G04 #@! TF.FileFunction,Copper,L2,Bot,Signal*
%FSLAX46Y46*%
G04 Gerber Fmt 4.6, Leading zero omitted, Abs format (unit mm)*
G04 Created by KiCad (PCBNEW 4.0.0-rc2-1-stable) date Mardi 07 juin 2016 13:35:49*
%MOMM*%
G01*
G04 APERTURE LIST*
%ADD10C,0.100000*%
%ADD11R,1.727200X2.032000*%
%ADD12O,1.727200X2.032000*%
%ADD13R,2.032000X2.032000*%
%ADD14O,2.032000X2.032000*%
%ADD15R,1.100000X0.450000*%
%ADD16C,1.900000*%
%ADD17C,2.200000*%
%ADD18C,1.400000*%
%ADD19C,2.300000*%
%ADD20R,1.200000X1.800000*%
%ADD21O,1.200000X1.800000*%
%ADD22R,2.800000X2.800000*%
%ADD23C,2.800000*%
%ADD24C,5.000000*%
%ADD25R,1.800000X1.800000*%
%ADD26C,1.800000*%
%ADD27C,0.600000*%
%ADD28C,0.300000*%
%ADD29C,0.400000*%
%ADD30C,1.500000*%
%ADD31C,0.600000*%
%ADD32C,1.000000*%
%ADD33C,0.200000*%
%ADD34C,0.254000*%
G04 APERTURE END LIST*
D10*
D11*
X95559785Y3523775D03*
D12*
X93019785Y3523775D03*
X90479785Y3523775D03*
X87939785Y3523775D03*
X85399785Y3523775D03*
X82859785Y3523775D03*
X80319785Y3523775D03*
D13*
X78497000Y11075000D03*
D14*
X81037000Y11075000D03*
D15*
X6480000Y15419000D03*
X6480000Y16069000D03*
X6480000Y16719000D03*
X6480000Y17369000D03*
X6480000Y18019000D03*
D16*
X5930000Y21669000D03*
X5930000Y11769000D03*
D17*
X1930000Y21669000D03*
X1930000Y11769000D03*
D18*
X4500000Y3500000D03*
X4500000Y5500000D03*
X4500000Y7500000D03*
D19*
X4500000Y1400000D03*
X4500000Y9600000D03*
D20*
X59000000Y3500000D03*
D21*
X61000000Y3500000D03*
X63000000Y3500000D03*
X65000000Y3500000D03*
X67000000Y3500000D03*
X69000000Y3500000D03*
X71000000Y3500000D03*
X73000000Y3500000D03*
X73000000Y19500000D03*
X71000000Y19500000D03*
X69000000Y19500000D03*
X67000000Y19500000D03*
X65000000Y19500000D03*
X63000000Y19500000D03*
X61000000Y19500000D03*
X59000000Y19500000D03*
D22*
X105858000Y16250000D03*
D23*
X109358000Y16250000D03*
X112858000Y16250000D03*
D22*
X105858000Y12472000D03*
D23*
X109358000Y12472000D03*
X112858000Y12472000D03*
D24*
X139000000Y16500000D03*
X139000000Y6500000D03*
D25*
X12645000Y14664000D03*
D26*
X10105000Y13394000D03*
X12645000Y12124000D03*
X10105000Y10854000D03*
X12645000Y9584000D03*
X10105000Y8314000D03*
D25*
X18553000Y14758000D03*
D26*
X21093000Y13488000D03*
X18553000Y12218000D03*
X21093000Y10948000D03*
X18553000Y9678000D03*
X21093000Y8408000D03*
D27*
X103008000Y5360000D03*
X99577590Y15899590D03*
X103389000Y14758000D03*
X21100000Y17100000D03*
X21100000Y15300000D03*
X111136000Y14377000D03*
X136500000Y8750000D03*
X136500000Y7250000D03*
X136500000Y5750000D03*
X136500000Y4250000D03*
X135000000Y4250000D03*
X133500000Y4250000D03*
X114438000Y14377000D03*
X115708000Y14758000D03*
X117486000Y14758000D03*
X117486000Y16282000D03*
X115708000Y16282000D03*
X109358000Y8027000D03*
X102246000Y9931992D03*
X105750000Y6000000D03*
X123328000Y18441000D03*
X123328000Y17425000D03*
X123328000Y15520000D03*
X123328000Y14631000D03*
X123328000Y16536000D03*
X116851000Y13107000D03*
X116851000Y12218000D03*
X116851000Y11329000D03*
X116914500Y10376496D03*
X116914500Y9487498D03*
X116851000Y8662000D03*
X57669000Y16155000D03*
X51192000Y16536000D03*
X38746000Y11710000D03*
X33285000Y18248990D03*
X38834990Y16155000D03*
X36714000Y14377000D03*
X34682000Y6757000D03*
X38834990Y7773000D03*
X73671000Y9805000D03*
X75957000Y11329000D03*
X48906000Y14885000D03*
X73036000Y16028000D03*
X90181000Y16282000D03*
X85482000Y16028000D03*
X96785000Y16028000D03*
X94372000Y8916000D03*
X90356214Y14396766D03*
X91705000Y12153785D03*
X110667355Y5741000D03*
X96785000Y14123000D03*
X108088000Y5741000D03*
X109358000Y5741000D03*
X115581000Y5487000D03*
X116724000Y6249000D03*
X122312000Y10567000D03*
X122312000Y11583000D03*
X120086507Y11046861D03*
X126756996Y17298000D03*
X37349000Y16409000D03*
X31865372Y13710628D03*
X76250000Y17213980D03*
X103448980Y12980000D03*
X51371962Y5639930D03*
X40097736Y5616000D03*
X63047094Y6439786D03*
X73055246Y6439786D03*
X76560071Y6439786D03*
X83450000Y9551000D03*
X95673632Y13062618D03*
X94073612Y13068797D03*
X94295650Y10632660D03*
X105294000Y7646000D03*
X91705000Y17044000D03*
X89673000Y17044000D03*
X104913000Y6630000D03*
X35952000Y4344000D03*
X37716635Y4344000D03*
X135266000Y14250008D03*
X125614000Y4725018D03*
X112786994Y5614000D03*
X125360000Y12599000D03*
X120534000Y11710000D03*
X127392000Y18187000D03*
X107657999Y14377000D03*
X115191135Y11436011D03*
X119772000Y18949000D03*
X115200000Y10186000D03*
X121677000Y16154994D03*
X120788010Y17171000D03*
X136500000Y14250000D03*
X136500000Y15750000D03*
X136500000Y17250000D03*
X136500000Y18750000D03*
X135000000Y18750000D03*
X133500000Y18750000D03*
X132000000Y18750000D03*
X99198000Y17552000D03*
X71893000Y16790000D03*
X97420000Y9551000D03*
X95514994Y9043000D03*
X89546000Y15774000D03*
X90689000Y12837990D03*
X64781000Y8039806D03*
X51525759Y7518567D03*
X66940000Y8039806D03*
X51581293Y8452995D03*
X68591000Y7439796D03*
X51446000Y6616010D03*
X71004000Y7439796D03*
X51746980Y9277271D03*
X99833000Y18060000D03*
X63003000Y17298000D03*
X36564534Y16565893D03*
X60336000Y17359990D03*
X57663782Y18132014D03*
X34084997Y18246087D03*
D28*
X6480000Y16069000D02*
X7082000Y16069000D01*
X7082000Y16069000D02*
X8904999Y14246001D01*
X8904999Y14246001D02*
X8904999Y12817999D01*
X8904999Y12817999D02*
X9598998Y12124000D01*
X11372208Y12124000D02*
X12645000Y12124000D01*
X9598998Y12124000D02*
X11372208Y12124000D01*
D29*
X21100000Y15300000D02*
X21100000Y17100000D01*
D28*
X136500000Y7250000D02*
X136500000Y8750000D01*
X136500000Y4250000D02*
X136500000Y5750000D01*
X133500000Y4250000D02*
X135000000Y4250000D01*
X115708000Y16282000D02*
X117486000Y16282000D01*
X117486000Y14758000D02*
X115708000Y14758000D01*
X1930000Y11769000D02*
X5930000Y11769000D01*
X5930000Y21669000D02*
X1930000Y21669000D01*
D29*
X6480000Y18019000D02*
X7291000Y18019000D01*
X7291000Y18019000D02*
X10646000Y14664000D01*
D30*
X57244736Y16155000D02*
X57669000Y16155000D01*
X51573000Y16155000D02*
X57244736Y16155000D01*
X51192000Y16536000D02*
X51573000Y16155000D01*
X48906000Y14885000D02*
X49541000Y14885000D01*
X49541000Y14885000D02*
X51192000Y16536000D01*
X75957000Y11329000D02*
X75195000Y11329000D01*
X75195000Y11329000D02*
X73671000Y9805000D01*
D29*
X90181000Y16282000D02*
X90181000Y16175002D01*
D31*
X116724000Y6249000D02*
X116343000Y6249000D01*
X116343000Y6249000D02*
X115581000Y5487000D01*
D29*
X10646000Y14664000D02*
X12645000Y14664000D01*
D28*
X6480000Y16719000D02*
X7281000Y16719000D01*
X7281000Y16719000D02*
X10105000Y13895000D01*
X10105000Y13895000D02*
X10105000Y13394000D01*
X31865372Y13710628D02*
X35031628Y13710628D01*
X35031628Y13710628D02*
X37349000Y16028000D01*
X37349000Y16028000D02*
X37349000Y16409000D01*
D29*
X6480000Y14385000D02*
X10011000Y10854000D01*
X10011000Y10854000D02*
X10105000Y10854000D01*
X6480000Y15419000D02*
X6480000Y14385000D01*
X6480000Y15419000D02*
X6805000Y15419000D01*
D28*
X6480000Y15419000D02*
X6716000Y15419000D01*
D31*
X103024716Y12980000D02*
X103448980Y12980000D01*
X91705000Y17044000D02*
X95769000Y12980000D01*
X95769000Y12980000D02*
X103024716Y12980000D01*
D29*
X76336020Y17163980D02*
X76300000Y17163980D01*
X76300000Y17163980D02*
X76250000Y17213980D01*
X76336020Y17163980D02*
X89553020Y17163980D01*
X89553020Y17163980D02*
X89673000Y17044000D01*
D32*
X56328974Y5616000D02*
X51371962Y5639930D01*
X51371962Y5639930D02*
X40097736Y5616000D01*
X73055246Y6439786D02*
X63047094Y6439786D01*
X56400964Y5544010D02*
X56328974Y5616000D01*
X57296740Y6439786D02*
X56400964Y5544010D01*
X63047094Y6439786D02*
X57296740Y6439786D01*
X76560071Y6439786D02*
X73055246Y6439786D01*
X83283165Y6439786D02*
X76560071Y6439786D01*
D29*
X83450000Y9551000D02*
X83450000Y6606621D01*
X83450000Y6606621D02*
X83283165Y6439786D01*
D32*
X97402284Y6439786D02*
X83283165Y6439786D01*
D28*
X95673632Y13062618D02*
X94079791Y13062618D01*
X94079791Y13062618D02*
X94073612Y13068797D01*
X94295650Y10632660D02*
X94295650Y12846759D01*
X94295650Y12846759D02*
X94073612Y13068797D01*
D32*
X105294000Y7646000D02*
X100678002Y7646000D01*
X100678002Y7646000D02*
X99471788Y6439786D01*
X99471788Y6439786D02*
X97402284Y6439786D01*
D31*
X91705000Y17044000D02*
X91666999Y17082001D01*
X91666999Y17082001D02*
X89711001Y17082001D01*
X89711001Y17082001D02*
X89673000Y17044000D01*
D32*
X102028932Y4344000D02*
X104913000Y4344000D01*
D31*
X104913000Y6630000D02*
X104913000Y4344000D01*
D32*
X104913000Y4344000D02*
X105942068Y4344000D01*
D29*
X7504000Y7519000D02*
X9310000Y7519000D01*
X9310000Y7519000D02*
X10105000Y8314000D01*
D32*
X57083998Y4344000D02*
X37716635Y4344000D01*
X57979774Y5239776D02*
X57083998Y4344000D01*
X35952000Y4344000D02*
X23257000Y4344000D01*
X23257000Y4344000D02*
X21093000Y6508000D01*
X21093000Y6508000D02*
X21093000Y8408000D01*
X36397555Y4344000D02*
X35952000Y4344000D01*
X37716635Y4344000D02*
X36397555Y4344000D01*
D31*
X105942068Y4344000D02*
X104406000Y4344000D01*
X104406000Y4344000D02*
X104299999Y4450001D01*
X134841736Y14250008D02*
X135266000Y14250008D01*
X131328992Y14250008D02*
X134841736Y14250008D01*
X127392000Y18187000D02*
X131328992Y14250008D01*
D32*
X125314001Y4425019D02*
X125614000Y4725018D01*
X125232982Y4344000D02*
X125314001Y4425019D01*
X114260905Y4344000D02*
X125232982Y4344000D01*
D29*
X4500000Y5500000D02*
X5485000Y5500000D01*
X5485000Y5500000D02*
X7504000Y7519000D01*
D32*
X97801000Y4344000D02*
X102028932Y4344000D01*
X96905224Y5239776D02*
X97801000Y4344000D01*
X59168326Y5239776D02*
X96905224Y5239776D01*
X59168326Y5239776D02*
X57979774Y5239776D01*
X105942068Y4344000D02*
X114260905Y4344000D01*
X112786994Y5189736D02*
X113632730Y4344000D01*
X112786994Y5614000D02*
X112786994Y5189736D01*
X113632730Y4344000D02*
X114260905Y4344000D01*
D31*
X122143998Y12599000D02*
X125360000Y12599000D01*
X120534000Y11710000D02*
X121254998Y11710000D01*
X121254998Y11710000D02*
X122143998Y12599000D01*
D29*
X21500000Y18949000D02*
X57836773Y18949000D01*
X18553000Y9678000D02*
X19842999Y10967999D01*
X19842999Y10967999D02*
X19842999Y17291999D01*
X19842999Y17291999D02*
X21500000Y18949000D01*
X12711000Y7900000D02*
X12711000Y9518000D01*
X12711000Y9518000D02*
X12645000Y9584000D01*
D28*
X107657999Y17756999D02*
X107657999Y14377000D01*
D29*
X108850000Y18949000D02*
X110078475Y18949000D01*
X86500007Y18949000D02*
X108850000Y18949000D01*
D28*
X108850000Y18949000D02*
X107657999Y17756999D01*
X115200000Y10186000D02*
X115200000Y11427146D01*
X115200000Y11427146D02*
X115191135Y11436011D01*
D29*
X110078475Y18949000D02*
X105126998Y18949000D01*
X74163227Y18949000D02*
X86500007Y18949000D01*
X73274227Y18060000D02*
X74163227Y18949000D01*
X110078475Y18949000D02*
X119347736Y18949000D01*
X119347736Y18949000D02*
X119772000Y18949000D01*
X58725773Y18060000D02*
X73274227Y18060000D01*
X57836773Y18949000D02*
X58725773Y18060000D01*
X4500000Y3500000D02*
X7757000Y6757000D01*
X7757000Y6757000D02*
X11568000Y6757000D01*
X11568000Y6757000D02*
X12711000Y7900000D01*
D28*
X115200000Y10186000D02*
X115200000Y10313000D01*
X121677000Y16154994D02*
X121677000Y16282010D01*
X121677000Y16282010D02*
X120788010Y17171000D01*
X136500000Y15750000D02*
X136500000Y14250000D01*
X136500000Y18750000D02*
X136500000Y17250000D01*
X135000000Y18750000D02*
X136500000Y18750000D01*
X133500000Y18750000D02*
X135000000Y18750000D01*
X132000000Y18750000D02*
X133500000Y18750000D01*
X91555736Y17813990D02*
X98936010Y17813990D01*
X98936010Y17813990D02*
X99198000Y17552000D01*
X73763980Y17009980D02*
X74567990Y17813990D01*
X74567990Y17813990D02*
X91555736Y17813990D01*
X91555736Y17813990D02*
X91562756Y17821010D01*
X71893000Y16790000D02*
X71893000Y16917000D01*
X71893000Y16917000D02*
X71985980Y17009980D01*
X71985980Y17009980D02*
X73763980Y17009980D01*
X96912000Y9043000D02*
X97120001Y9251001D01*
X97120001Y9251001D02*
X97420000Y9551000D01*
X95514994Y9043000D02*
X96912000Y9043000D01*
X89546000Y15349736D02*
X89546000Y15774000D01*
X89546000Y13980990D02*
X89546000Y15349736D01*
X90689000Y12837990D02*
X89546000Y13980990D01*
D29*
X63919000Y7939806D02*
X64681000Y7939806D01*
X64681000Y7939806D02*
X64781000Y8039806D01*
X56675412Y7939806D02*
X63919000Y7939806D01*
X55951626Y7216020D02*
X56675412Y7939806D01*
X51828306Y7216020D02*
X55951626Y7216020D01*
X51525759Y7518567D02*
X51828306Y7216020D01*
X56426880Y8539816D02*
X56626871Y8739807D01*
X56626871Y8739807D02*
X66239999Y8739807D01*
X66239999Y8739807D02*
X66940000Y8039806D01*
X52218258Y7816030D02*
X55703094Y7816030D01*
X55703094Y7816030D02*
X56426880Y8539816D01*
X51581293Y8452995D02*
X52218258Y7816030D01*
X68491000Y7339796D02*
X68591000Y7439796D01*
X56923944Y7339796D02*
X68491000Y7339796D01*
X51446000Y6616010D02*
X56200158Y6616010D01*
X56200158Y6616010D02*
X56923944Y7339796D01*
X56378339Y9339817D02*
X69103979Y9339817D01*
X69103979Y9339817D02*
X71004000Y7439796D01*
X52608211Y8416040D02*
X55454562Y8416040D01*
X55454562Y8416040D02*
X56378339Y9339817D01*
X51746980Y9277271D02*
X52608211Y8416040D01*
D28*
X99571980Y18321020D02*
X99833000Y18060000D01*
X86893310Y18321020D02*
X99571980Y18321020D01*
X86893310Y18321020D02*
X74313077Y18321020D01*
X74313077Y18321020D02*
X73502048Y17509990D01*
X86893310Y18321020D02*
X86886290Y18314000D01*
X73502048Y17509990D02*
X63214990Y17509990D01*
X63214990Y17509990D02*
X63003000Y17298000D01*
D29*
X60336000Y17359990D02*
X59911736Y17359990D01*
X37323357Y17748980D02*
X36564534Y16990157D01*
X59911736Y17359990D02*
X59846726Y17425000D01*
X56837020Y17748980D02*
X37323357Y17748980D01*
X59846726Y17425000D02*
X57161000Y17425000D01*
X57161000Y17425000D02*
X56837020Y17748980D01*
X36564534Y16990157D02*
X36564534Y16565893D01*
D28*
X36564534Y16586536D02*
X36564534Y16565893D01*
D29*
X57446805Y18348991D02*
X57663782Y18132014D01*
X34612165Y18348991D02*
X57446805Y18348991D01*
X34509261Y18246087D02*
X34612165Y18348991D01*
X34084997Y18246087D02*
X34509261Y18246087D01*
D33*
G36*
X131210000Y15217528D02*
X127816920Y18610608D01*
X127732317Y18695359D01*
X127511871Y18786896D01*
X127273176Y18787104D01*
X127052571Y18695952D01*
X126883641Y18527317D01*
X126792104Y18306871D01*
X126791896Y18068176D01*
X126883048Y17847571D01*
X127051683Y17678641D01*
X127051936Y17678536D01*
X130904728Y13825744D01*
X131099381Y13695680D01*
X131328992Y13650008D01*
X135265476Y13650008D01*
X135384824Y13649904D01*
X135528000Y13709063D01*
X135528000Y11583000D01*
X135562195Y11401271D01*
X135669596Y11234365D01*
X135833472Y11122393D01*
X136028000Y11083000D01*
X136224698Y11083000D01*
X136473145Y10481714D01*
X136979051Y9974924D01*
X137640387Y9700313D01*
X138356471Y9699688D01*
X139018286Y9973145D01*
X139525076Y10479051D01*
X139775858Y11083000D01*
X141625000Y11083000D01*
X141625000Y3875000D01*
X125895352Y3875000D01*
X126179686Y4159333D01*
X126353104Y4418871D01*
X126414000Y4725018D01*
X126353104Y5031165D01*
X126179686Y5290704D01*
X125920147Y5464122D01*
X125614000Y5525018D01*
X125307853Y5464122D01*
X125048315Y5290704D01*
X124901611Y5144000D01*
X113964101Y5144000D01*
X113586994Y5521106D01*
X113586994Y5614000D01*
X113526098Y5920147D01*
X113352679Y6179685D01*
X113093141Y6353104D01*
X112786994Y6414000D01*
X112480847Y6353104D01*
X112221309Y6179685D01*
X112047890Y5920147D01*
X111986994Y5614000D01*
X111986994Y5189736D01*
X111996091Y5144000D01*
X105513000Y5144000D01*
X105513000Y6630000D01*
X105513104Y6748824D01*
X105459361Y6878892D01*
X105600147Y6906896D01*
X105859685Y7080315D01*
X106033104Y7339853D01*
X106094000Y7646000D01*
X106033104Y7952147D01*
X105859685Y8211685D01*
X105600147Y8385104D01*
X105294000Y8446000D01*
X100678002Y8446000D01*
X100371855Y8385104D01*
X100112316Y8211685D01*
X99140418Y7239786D01*
X83950000Y7239786D01*
X83950000Y8924176D01*
X94914890Y8924176D01*
X95006042Y8703571D01*
X95174677Y8534641D01*
X95395123Y8443104D01*
X95633818Y8442896D01*
X95854423Y8534048D01*
X95913478Y8593000D01*
X96912000Y8593000D01*
X97084208Y8627254D01*
X97230198Y8724802D01*
X97456364Y8950968D01*
X97538824Y8950896D01*
X97759429Y9042048D01*
X97928359Y9210683D01*
X98019896Y9431129D01*
X98020104Y9669824D01*
X97928952Y9890429D01*
X97760317Y10059359D01*
X97539871Y10150896D01*
X97301176Y10151104D01*
X97080571Y10059952D01*
X96911641Y9891317D01*
X96820104Y9670871D01*
X96820031Y9587427D01*
X96725604Y9493000D01*
X95913568Y9493000D01*
X95855311Y9551359D01*
X95634865Y9642896D01*
X95396170Y9643104D01*
X95175565Y9551952D01*
X95006635Y9383317D01*
X94915098Y9162871D01*
X94914890Y8924176D01*
X83950000Y8924176D01*
X83950000Y9202339D01*
X83958359Y9210683D01*
X84049896Y9431129D01*
X84050104Y9669824D01*
X83958952Y9890429D01*
X83790317Y10059359D01*
X83569871Y10150896D01*
X83331176Y10151104D01*
X83110571Y10059952D01*
X82941641Y9891317D01*
X82850104Y9670871D01*
X82849896Y9432176D01*
X82941048Y9211571D01*
X82950000Y9202603D01*
X82950000Y7239786D01*
X71570619Y7239786D01*
X71603896Y7319925D01*
X71604104Y7558620D01*
X71512952Y7779225D01*
X71344317Y7948155D01*
X71123871Y8039692D01*
X71111200Y8039703D01*
X69457532Y9693370D01*
X69295321Y9801757D01*
X69280666Y9804672D01*
X69103979Y9839817D01*
X57100000Y9839817D01*
X57100000Y10850000D01*
X77181000Y10850000D01*
X77181000Y9999327D01*
X77226672Y9889064D01*
X77311063Y9804672D01*
X77421326Y9759000D01*
X78272000Y9759000D01*
X78347000Y9834000D01*
X78347000Y10925000D01*
X77256000Y10925000D01*
X77181000Y10850000D01*
X57100000Y10850000D01*
X57100000Y12150673D01*
X77181000Y12150673D01*
X77181000Y11300000D01*
X77256000Y11225000D01*
X78347000Y11225000D01*
X78347000Y12316000D01*
X78647000Y12316000D01*
X78647000Y11225000D01*
X78667000Y11225000D01*
X78667000Y10925000D01*
X78647000Y10925000D01*
X78647000Y9834000D01*
X78722000Y9759000D01*
X79572674Y9759000D01*
X79682937Y9804672D01*
X79767328Y9889064D01*
X79813000Y9999327D01*
X79813000Y10545038D01*
X80080665Y10144447D01*
X80507607Y9859175D01*
X81011218Y9759000D01*
X81062782Y9759000D01*
X81566393Y9859175D01*
X81993335Y10144447D01*
X82278607Y10571389D01*
X82378782Y11075000D01*
X82278607Y11578611D01*
X81993335Y12005553D01*
X81566393Y12290825D01*
X81062782Y12391000D01*
X81011218Y12391000D01*
X80507607Y12290825D01*
X80080665Y12005553D01*
X79813000Y11604962D01*
X79813000Y12150673D01*
X79767328Y12260936D01*
X79682937Y12345328D01*
X79572674Y12391000D01*
X78722000Y12391000D01*
X78647000Y12316000D01*
X78347000Y12316000D01*
X78272000Y12391000D01*
X77421326Y12391000D01*
X77311063Y12345328D01*
X77226672Y12260936D01*
X77181000Y12150673D01*
X57100000Y12150673D01*
X57100000Y15655176D01*
X88945896Y15655176D01*
X89037048Y15434571D01*
X89096000Y15375516D01*
X89096000Y13980990D01*
X89130254Y13808782D01*
X89195839Y13710628D01*
X89227802Y13662792D01*
X90088968Y12801626D01*
X90088896Y12719166D01*
X90180048Y12498561D01*
X90348683Y12329631D01*
X90569129Y12238094D01*
X90807824Y12237886D01*
X91028429Y12329038D01*
X91197359Y12497673D01*
X91288896Y12718119D01*
X91289104Y12956814D01*
X91197952Y13177419D01*
X91029317Y13346349D01*
X90808871Y13437886D01*
X90725427Y13437959D01*
X89996000Y14167386D01*
X89996000Y15375426D01*
X90054359Y15433683D01*
X90145896Y15654129D01*
X90146104Y15892824D01*
X90054952Y16113429D01*
X89886317Y16282359D01*
X89665871Y16373896D01*
X89427176Y16374104D01*
X89206571Y16282952D01*
X89037641Y16114317D01*
X88946104Y15893871D01*
X88945896Y15655176D01*
X57100000Y15655176D01*
X57100000Y16937134D01*
X57161000Y16925000D01*
X59680061Y16925000D01*
X59720394Y16898050D01*
X59911736Y16859990D01*
X59987339Y16859990D01*
X59995683Y16851631D01*
X60216129Y16760094D01*
X60454824Y16759886D01*
X60675429Y16851038D01*
X60844359Y17019673D01*
X60935896Y17240119D01*
X60936104Y17478814D01*
X60902559Y17560000D01*
X62462121Y17560000D01*
X62403104Y17417871D01*
X62402896Y17179176D01*
X62494048Y16958571D01*
X62662683Y16789641D01*
X62883129Y16698104D01*
X63121824Y16697896D01*
X63342429Y16789048D01*
X63511359Y16957683D01*
X63553840Y17059990D01*
X71355439Y17059990D01*
X71293104Y16909871D01*
X71292896Y16671176D01*
X71384048Y16450571D01*
X71552683Y16281641D01*
X71773129Y16190104D01*
X72011824Y16189896D01*
X72232429Y16281048D01*
X72401359Y16449683D01*
X72447158Y16559980D01*
X73763980Y16559980D01*
X73936188Y16594234D01*
X74082178Y16691782D01*
X74754386Y17363990D01*
X75662619Y17363990D01*
X75650104Y17333851D01*
X75649896Y17095156D01*
X75741048Y16874551D01*
X75909683Y16705621D01*
X76130129Y16614084D01*
X76368824Y16613876D01*
X76490085Y16663980D01*
X89204568Y16663980D01*
X89332683Y16535641D01*
X89553129Y16444104D01*
X89791824Y16443896D01*
X89884045Y16482001D01*
X91418471Y16482001D01*
X94258973Y13641499D01*
X94193483Y13668693D01*
X93954788Y13668901D01*
X93734183Y13577749D01*
X93565253Y13409114D01*
X93473716Y13188668D01*
X93473508Y12949973D01*
X93564660Y12729368D01*
X93733295Y12560438D01*
X93845650Y12513784D01*
X93845650Y11031234D01*
X93787291Y10972977D01*
X93695754Y10752531D01*
X93695546Y10513836D01*
X93786698Y10293231D01*
X93955333Y10124301D01*
X94175779Y10032764D01*
X94414474Y10032556D01*
X94635079Y10123708D01*
X94804009Y10292343D01*
X94895546Y10512789D01*
X94895754Y10751484D01*
X94804602Y10972089D01*
X94745650Y11031144D01*
X94745650Y12612618D01*
X95275058Y12612618D01*
X95333315Y12554259D01*
X95369324Y12539307D01*
X95539390Y12425672D01*
X95769000Y12380000D01*
X103448456Y12380000D01*
X103567804Y12379896D01*
X103788409Y12471048D01*
X103957339Y12639683D01*
X104048876Y12860129D01*
X104049084Y13098824D01*
X103957932Y13319429D01*
X103789297Y13488359D01*
X103568851Y13579896D01*
X103330156Y13580104D01*
X103329904Y13580000D01*
X96017528Y13580000D01*
X92233538Y17363990D01*
X98626483Y17363990D01*
X98689048Y17212571D01*
X98857683Y17043641D01*
X99078129Y16952104D01*
X99316824Y16951896D01*
X99537429Y17043048D01*
X99706359Y17211683D01*
X99797896Y17432129D01*
X99797920Y17460030D01*
X99951824Y17459896D01*
X100172429Y17551048D01*
X100341359Y17719683D01*
X100432896Y17940129D01*
X100433104Y18178824D01*
X100341952Y18399429D01*
X100292468Y18449000D01*
X107713604Y18449000D01*
X107339801Y18075197D01*
X107259826Y17955507D01*
X107258000Y17955877D01*
X104458000Y17955877D01*
X104346827Y17934958D01*
X104244721Y17869255D01*
X104176222Y17769003D01*
X104152123Y17650000D01*
X104152123Y14850000D01*
X104173042Y14738827D01*
X104238745Y14636721D01*
X104338997Y14568222D01*
X104458000Y14544123D01*
X107077724Y14544123D01*
X107058103Y14496871D01*
X107057895Y14258176D01*
X107091074Y14177877D01*
X104458000Y14177877D01*
X104346827Y14156958D01*
X104244721Y14091255D01*
X104176222Y13991003D01*
X104152123Y13872000D01*
X104152123Y11072000D01*
X104173042Y10960827D01*
X104238745Y10858721D01*
X104338997Y10790222D01*
X104458000Y10766123D01*
X107258000Y10766123D01*
X107369173Y10787042D01*
X107471279Y10852745D01*
X107539778Y10952997D01*
X107563877Y11072000D01*
X107563877Y12135333D01*
X107657706Y12135333D01*
X107915970Y11510285D01*
X108393770Y11031650D01*
X109018366Y10772296D01*
X109694667Y10771706D01*
X110319715Y11029970D01*
X110340964Y11051182D01*
X112002867Y11051182D01*
X112190296Y10872464D01*
X112853238Y10738702D01*
X113516905Y10868819D01*
X113525704Y10872464D01*
X113713133Y11051182D01*
X113447128Y11317187D01*
X114591031Y11317187D01*
X114682183Y11096582D01*
X114750000Y11028646D01*
X114750000Y10584574D01*
X114691641Y10526317D01*
X114600104Y10305871D01*
X114599896Y10067176D01*
X114691048Y9846571D01*
X114859683Y9677641D01*
X115080129Y9586104D01*
X115318824Y9585896D01*
X115539429Y9677048D01*
X115708359Y9845683D01*
X115799896Y10066129D01*
X115800104Y10304824D01*
X115708952Y10525429D01*
X115650000Y10584484D01*
X115650000Y11046286D01*
X115699494Y11095694D01*
X115791031Y11316140D01*
X115791239Y11554835D01*
X115776224Y11591176D01*
X119933896Y11591176D01*
X120025048Y11370571D01*
X120193683Y11201641D01*
X120414129Y11110104D01*
X120652824Y11109896D01*
X120653076Y11110000D01*
X121254998Y11110000D01*
X121484608Y11155672D01*
X121679262Y11285736D01*
X122392526Y11999000D01*
X125359476Y11999000D01*
X125478824Y11998896D01*
X125699429Y12090048D01*
X125868359Y12258683D01*
X125959896Y12479129D01*
X125960104Y12717824D01*
X125868952Y12938429D01*
X125700317Y13107359D01*
X125479871Y13198896D01*
X125241176Y13199104D01*
X125240924Y13199000D01*
X122143998Y13199000D01*
X121914388Y13153328D01*
X121719734Y13023264D01*
X121006470Y12310000D01*
X120534523Y12310000D01*
X120415176Y12310104D01*
X120194571Y12218952D01*
X120025641Y12050317D01*
X119934104Y11829871D01*
X119933896Y11591176D01*
X115776224Y11591176D01*
X115700087Y11775440D01*
X115531452Y11944370D01*
X115311006Y12035907D01*
X115072311Y12036115D01*
X114851706Y11944963D01*
X114682776Y11776328D01*
X114591239Y11555882D01*
X114591031Y11317187D01*
X113447128Y11317187D01*
X112858000Y11906315D01*
X112002867Y11051182D01*
X110340964Y11051182D01*
X110798350Y11507770D01*
X111057704Y12132366D01*
X111058004Y12476762D01*
X111124702Y12476762D01*
X111254819Y11813095D01*
X111258464Y11804296D01*
X111437182Y11616867D01*
X112292315Y12472000D01*
X113423685Y12472000D01*
X114278818Y11616867D01*
X114457536Y11804296D01*
X114591298Y12467238D01*
X114461181Y13130905D01*
X114457536Y13139704D01*
X114278818Y13327133D01*
X113423685Y12472000D01*
X112292315Y12472000D01*
X111437182Y13327133D01*
X111258464Y13139704D01*
X111124702Y12476762D01*
X111058004Y12476762D01*
X111058294Y12808667D01*
X110800030Y13433715D01*
X110341728Y13892818D01*
X112002867Y13892818D01*
X112858000Y13037685D01*
X113713133Y13892818D01*
X113525704Y14071536D01*
X112862762Y14205298D01*
X112199095Y14075181D01*
X112190296Y14071536D01*
X112002867Y13892818D01*
X110341728Y13892818D01*
X110322230Y13912350D01*
X109697634Y14171704D01*
X109021333Y14172294D01*
X108396285Y13914030D01*
X107917650Y13436230D01*
X107658296Y12811634D01*
X107657706Y12135333D01*
X107563877Y12135333D01*
X107563877Y13777082D01*
X107776823Y13776896D01*
X107997428Y13868048D01*
X108166358Y14036683D01*
X108257895Y14257129D01*
X108258103Y14495824D01*
X108166951Y14716429D01*
X108107999Y14775484D01*
X108107999Y15095920D01*
X108393770Y14809650D01*
X109018366Y14550296D01*
X109694667Y14549706D01*
X110319715Y14807970D01*
X110340964Y14829182D01*
X112002867Y14829182D01*
X112190296Y14650464D01*
X112853238Y14516702D01*
X113516905Y14646819D01*
X113525704Y14650464D01*
X113713133Y14829182D01*
X112858000Y15684315D01*
X112002867Y14829182D01*
X110340964Y14829182D01*
X110798350Y15285770D01*
X111057704Y15910366D01*
X111058004Y16254762D01*
X111124702Y16254762D01*
X111254819Y15591095D01*
X111258464Y15582296D01*
X111437182Y15394867D01*
X112292315Y16250000D01*
X113423685Y16250000D01*
X114278818Y15394867D01*
X114457536Y15582296D01*
X114591298Y16245238D01*
X114461181Y16908905D01*
X114457536Y16917704D01*
X114329314Y17052176D01*
X120187906Y17052176D01*
X120279058Y16831571D01*
X120447693Y16662641D01*
X120668139Y16571104D01*
X120751583Y16571031D01*
X121077078Y16245536D01*
X121076896Y16036170D01*
X121168048Y15815565D01*
X121336683Y15646635D01*
X121557129Y15555098D01*
X121795824Y15554890D01*
X122016429Y15646042D01*
X122185359Y15814677D01*
X122276896Y16035123D01*
X122277104Y16273818D01*
X122185952Y16494423D01*
X122017317Y16663353D01*
X121871508Y16723898D01*
X121388042Y17207364D01*
X121388114Y17289824D01*
X121296962Y17510429D01*
X121128327Y17679359D01*
X120907881Y17770896D01*
X120669186Y17771104D01*
X120448581Y17679952D01*
X120279651Y17511317D01*
X120188114Y17290871D01*
X120187906Y17052176D01*
X114329314Y17052176D01*
X114278818Y17105133D01*
X113423685Y16250000D01*
X112292315Y16250000D01*
X111437182Y17105133D01*
X111258464Y16917704D01*
X111124702Y16254762D01*
X111058004Y16254762D01*
X111058294Y16586667D01*
X110800030Y17211715D01*
X110341728Y17670818D01*
X112002867Y17670818D01*
X112858000Y16815685D01*
X113713133Y17670818D01*
X113525704Y17849536D01*
X112862762Y17983298D01*
X112199095Y17853181D01*
X112190296Y17849536D01*
X112002867Y17670818D01*
X110341728Y17670818D01*
X110322230Y17690350D01*
X109697634Y17949704D01*
X109021333Y17950294D01*
X108396285Y17692030D01*
X108107999Y17404247D01*
X108107999Y17570603D01*
X108986396Y18449000D01*
X119423339Y18449000D01*
X119431683Y18440641D01*
X119652129Y18349104D01*
X119890824Y18348896D01*
X120111429Y18440048D01*
X120280359Y18608683D01*
X120371896Y18829129D01*
X120372104Y19067824D01*
X120348479Y19125000D01*
X131210000Y19125000D01*
X131210000Y15217528D01*
X131210000Y15217528D01*
G37*
X131210000Y15217528D02*
X127816920Y18610608D01*
X127732317Y18695359D01*
X127511871Y18786896D01*
X127273176Y18787104D01*
X127052571Y18695952D01*
X126883641Y18527317D01*
X126792104Y18306871D01*
X126791896Y18068176D01*
X126883048Y17847571D01*
X127051683Y17678641D01*
X127051936Y17678536D01*
X130904728Y13825744D01*
X131099381Y13695680D01*
X131328992Y13650008D01*
X135265476Y13650008D01*
X135384824Y13649904D01*
X135528000Y13709063D01*
X135528000Y11583000D01*
X135562195Y11401271D01*
X135669596Y11234365D01*
X135833472Y11122393D01*
X136028000Y11083000D01*
X136224698Y11083000D01*
X136473145Y10481714D01*
X136979051Y9974924D01*
X137640387Y9700313D01*
X138356471Y9699688D01*
X139018286Y9973145D01*
X139525076Y10479051D01*
X139775858Y11083000D01*
X141625000Y11083000D01*
X141625000Y3875000D01*
X125895352Y3875000D01*
X126179686Y4159333D01*
X126353104Y4418871D01*
X126414000Y4725018D01*
X126353104Y5031165D01*
X126179686Y5290704D01*
X125920147Y5464122D01*
X125614000Y5525018D01*
X125307853Y5464122D01*
X125048315Y5290704D01*
X124901611Y5144000D01*
X113964101Y5144000D01*
X113586994Y5521106D01*
X113586994Y5614000D01*
X113526098Y5920147D01*
X113352679Y6179685D01*
X113093141Y6353104D01*
X112786994Y6414000D01*
X112480847Y6353104D01*
X112221309Y6179685D01*
X112047890Y5920147D01*
X111986994Y5614000D01*
X111986994Y5189736D01*
X111996091Y5144000D01*
X105513000Y5144000D01*
X105513000Y6630000D01*
X105513104Y6748824D01*
X105459361Y6878892D01*
X105600147Y6906896D01*
X105859685Y7080315D01*
X106033104Y7339853D01*
X106094000Y7646000D01*
X106033104Y7952147D01*
X105859685Y8211685D01*
X105600147Y8385104D01*
X105294000Y8446000D01*
X100678002Y8446000D01*
X100371855Y8385104D01*
X100112316Y8211685D01*
X99140418Y7239786D01*
X83950000Y7239786D01*
X83950000Y8924176D01*
X94914890Y8924176D01*
X95006042Y8703571D01*
X95174677Y8534641D01*
X95395123Y8443104D01*
X95633818Y8442896D01*
X95854423Y8534048D01*
X95913478Y8593000D01*
X96912000Y8593000D01*
X97084208Y8627254D01*
X97230198Y8724802D01*
X97456364Y8950968D01*
X97538824Y8950896D01*
X97759429Y9042048D01*
X97928359Y9210683D01*
X98019896Y9431129D01*
X98020104Y9669824D01*
X97928952Y9890429D01*
X97760317Y10059359D01*
X97539871Y10150896D01*
X97301176Y10151104D01*
X97080571Y10059952D01*
X96911641Y9891317D01*
X96820104Y9670871D01*
X96820031Y9587427D01*
X96725604Y9493000D01*
X95913568Y9493000D01*
X95855311Y9551359D01*
X95634865Y9642896D01*
X95396170Y9643104D01*
X95175565Y9551952D01*
X95006635Y9383317D01*
X94915098Y9162871D01*
X94914890Y8924176D01*
X83950000Y8924176D01*
X83950000Y9202339D01*
X83958359Y9210683D01*
X84049896Y9431129D01*
X84050104Y9669824D01*
X83958952Y9890429D01*
X83790317Y10059359D01*
X83569871Y10150896D01*
X83331176Y10151104D01*
X83110571Y10059952D01*
X82941641Y9891317D01*
X82850104Y9670871D01*
X82849896Y9432176D01*
X82941048Y9211571D01*
X82950000Y9202603D01*
X82950000Y7239786D01*
X71570619Y7239786D01*
X71603896Y7319925D01*
X71604104Y7558620D01*
X71512952Y7779225D01*
X71344317Y7948155D01*
X71123871Y8039692D01*
X71111200Y8039703D01*
X69457532Y9693370D01*
X69295321Y9801757D01*
X69280666Y9804672D01*
X69103979Y9839817D01*
X57100000Y9839817D01*
X57100000Y10850000D01*
X77181000Y10850000D01*
X77181000Y9999327D01*
X77226672Y9889064D01*
X77311063Y9804672D01*
X77421326Y9759000D01*
X78272000Y9759000D01*
X78347000Y9834000D01*
X78347000Y10925000D01*
X77256000Y10925000D01*
X77181000Y10850000D01*
X57100000Y10850000D01*
X57100000Y12150673D01*
X77181000Y12150673D01*
X77181000Y11300000D01*
X77256000Y11225000D01*
X78347000Y11225000D01*
X78347000Y12316000D01*
X78647000Y12316000D01*
X78647000Y11225000D01*
X78667000Y11225000D01*
X78667000Y10925000D01*
X78647000Y10925000D01*
X78647000Y9834000D01*
X78722000Y9759000D01*
X79572674Y9759000D01*
X79682937Y9804672D01*
X79767328Y9889064D01*
X79813000Y9999327D01*
X79813000Y10545038D01*
X80080665Y10144447D01*
X80507607Y9859175D01*
X81011218Y9759000D01*
X81062782Y9759000D01*
X81566393Y9859175D01*
X81993335Y10144447D01*
X82278607Y10571389D01*
X82378782Y11075000D01*
X82278607Y11578611D01*
X81993335Y12005553D01*
X81566393Y12290825D01*
X81062782Y12391000D01*
X81011218Y12391000D01*
X80507607Y12290825D01*
X80080665Y12005553D01*
X79813000Y11604962D01*
X79813000Y12150673D01*
X79767328Y12260936D01*
X79682937Y12345328D01*
X79572674Y12391000D01*
X78722000Y12391000D01*
X78647000Y12316000D01*
X78347000Y12316000D01*
X78272000Y12391000D01*
X77421326Y12391000D01*
X77311063Y12345328D01*
X77226672Y12260936D01*
X77181000Y12150673D01*
X57100000Y12150673D01*
X57100000Y15655176D01*
X88945896Y15655176D01*
X89037048Y15434571D01*
X89096000Y15375516D01*
X89096000Y13980990D01*
X89130254Y13808782D01*
X89195839Y13710628D01*
X89227802Y13662792D01*
X90088968Y12801626D01*
X90088896Y12719166D01*
X90180048Y12498561D01*
X90348683Y12329631D01*
X90569129Y12238094D01*
X90807824Y12237886D01*
X91028429Y12329038D01*
X91197359Y12497673D01*
X91288896Y12718119D01*
X91289104Y12956814D01*
X91197952Y13177419D01*
X91029317Y13346349D01*
X90808871Y13437886D01*
X90725427Y13437959D01*
X89996000Y14167386D01*
X89996000Y15375426D01*
X90054359Y15433683D01*
X90145896Y15654129D01*
X90146104Y15892824D01*
X90054952Y16113429D01*
X89886317Y16282359D01*
X89665871Y16373896D01*
X89427176Y16374104D01*
X89206571Y16282952D01*
X89037641Y16114317D01*
X88946104Y15893871D01*
X88945896Y15655176D01*
X57100000Y15655176D01*
X57100000Y16937134D01*
X57161000Y16925000D01*
X59680061Y16925000D01*
X59720394Y16898050D01*
X59911736Y16859990D01*
X59987339Y16859990D01*
X59995683Y16851631D01*
X60216129Y16760094D01*
X60454824Y16759886D01*
X60675429Y16851038D01*
X60844359Y17019673D01*
X60935896Y17240119D01*
X60936104Y17478814D01*
X60902559Y17560000D01*
X62462121Y17560000D01*
X62403104Y17417871D01*
X62402896Y17179176D01*
X62494048Y16958571D01*
X62662683Y16789641D01*
X62883129Y16698104D01*
X63121824Y16697896D01*
X63342429Y16789048D01*
X63511359Y16957683D01*
X63553840Y17059990D01*
X71355439Y17059990D01*
X71293104Y16909871D01*
X71292896Y16671176D01*
X71384048Y16450571D01*
X71552683Y16281641D01*
X71773129Y16190104D01*
X72011824Y16189896D01*
X72232429Y16281048D01*
X72401359Y16449683D01*
X72447158Y16559980D01*
X73763980Y16559980D01*
X73936188Y16594234D01*
X74082178Y16691782D01*
X74754386Y17363990D01*
X75662619Y17363990D01*
X75650104Y17333851D01*
X75649896Y17095156D01*
X75741048Y16874551D01*
X75909683Y16705621D01*
X76130129Y16614084D01*
X76368824Y16613876D01*
X76490085Y16663980D01*
X89204568Y16663980D01*
X89332683Y16535641D01*
X89553129Y16444104D01*
X89791824Y16443896D01*
X89884045Y16482001D01*
X91418471Y16482001D01*
X94258973Y13641499D01*
X94193483Y13668693D01*
X93954788Y13668901D01*
X93734183Y13577749D01*
X93565253Y13409114D01*
X93473716Y13188668D01*
X93473508Y12949973D01*
X93564660Y12729368D01*
X93733295Y12560438D01*
X93845650Y12513784D01*
X93845650Y11031234D01*
X93787291Y10972977D01*
X93695754Y10752531D01*
X93695546Y10513836D01*
X93786698Y10293231D01*
X93955333Y10124301D01*
X94175779Y10032764D01*
X94414474Y10032556D01*
X94635079Y10123708D01*
X94804009Y10292343D01*
X94895546Y10512789D01*
X94895754Y10751484D01*
X94804602Y10972089D01*
X94745650Y11031144D01*
X94745650Y12612618D01*
X95275058Y12612618D01*
X95333315Y12554259D01*
X95369324Y12539307D01*
X95539390Y12425672D01*
X95769000Y12380000D01*
X103448456Y12380000D01*
X103567804Y12379896D01*
X103788409Y12471048D01*
X103957339Y12639683D01*
X104048876Y12860129D01*
X104049084Y13098824D01*
X103957932Y13319429D01*
X103789297Y13488359D01*
X103568851Y13579896D01*
X103330156Y13580104D01*
X103329904Y13580000D01*
X96017528Y13580000D01*
X92233538Y17363990D01*
X98626483Y17363990D01*
X98689048Y17212571D01*
X98857683Y17043641D01*
X99078129Y16952104D01*
X99316824Y16951896D01*
X99537429Y17043048D01*
X99706359Y17211683D01*
X99797896Y17432129D01*
X99797920Y17460030D01*
X99951824Y17459896D01*
X100172429Y17551048D01*
X100341359Y17719683D01*
X100432896Y17940129D01*
X100433104Y18178824D01*
X100341952Y18399429D01*
X100292468Y18449000D01*
X107713604Y18449000D01*
X107339801Y18075197D01*
X107259826Y17955507D01*
X107258000Y17955877D01*
X104458000Y17955877D01*
X104346827Y17934958D01*
X104244721Y17869255D01*
X104176222Y17769003D01*
X104152123Y17650000D01*
X104152123Y14850000D01*
X104173042Y14738827D01*
X104238745Y14636721D01*
X104338997Y14568222D01*
X104458000Y14544123D01*
X107077724Y14544123D01*
X107058103Y14496871D01*
X107057895Y14258176D01*
X107091074Y14177877D01*
X104458000Y14177877D01*
X104346827Y14156958D01*
X104244721Y14091255D01*
X104176222Y13991003D01*
X104152123Y13872000D01*
X104152123Y11072000D01*
X104173042Y10960827D01*
X104238745Y10858721D01*
X104338997Y10790222D01*
X104458000Y10766123D01*
X107258000Y10766123D01*
X107369173Y10787042D01*
X107471279Y10852745D01*
X107539778Y10952997D01*
X107563877Y11072000D01*
X107563877Y12135333D01*
X107657706Y12135333D01*
X107915970Y11510285D01*
X108393770Y11031650D01*
X109018366Y10772296D01*
X109694667Y10771706D01*
X110319715Y11029970D01*
X110340964Y11051182D01*
X112002867Y11051182D01*
X112190296Y10872464D01*
X112853238Y10738702D01*
X113516905Y10868819D01*
X113525704Y10872464D01*
X113713133Y11051182D01*
X113447128Y11317187D01*
X114591031Y11317187D01*
X114682183Y11096582D01*
X114750000Y11028646D01*
X114750000Y10584574D01*
X114691641Y10526317D01*
X114600104Y10305871D01*
X114599896Y10067176D01*
X114691048Y9846571D01*
X114859683Y9677641D01*
X115080129Y9586104D01*
X115318824Y9585896D01*
X115539429Y9677048D01*
X115708359Y9845683D01*
X115799896Y10066129D01*
X115800104Y10304824D01*
X115708952Y10525429D01*
X115650000Y10584484D01*
X115650000Y11046286D01*
X115699494Y11095694D01*
X115791031Y11316140D01*
X115791239Y11554835D01*
X115776224Y11591176D01*
X119933896Y11591176D01*
X120025048Y11370571D01*
X120193683Y11201641D01*
X120414129Y11110104D01*
X120652824Y11109896D01*
X120653076Y11110000D01*
X121254998Y11110000D01*
X121484608Y11155672D01*
X121679262Y11285736D01*
X122392526Y11999000D01*
X125359476Y11999000D01*
X125478824Y11998896D01*
X125699429Y12090048D01*
X125868359Y12258683D01*
X125959896Y12479129D01*
X125960104Y12717824D01*
X125868952Y12938429D01*
X125700317Y13107359D01*
X125479871Y13198896D01*
X125241176Y13199104D01*
X125240924Y13199000D01*
X122143998Y13199000D01*
X121914388Y13153328D01*
X121719734Y13023264D01*
X121006470Y12310000D01*
X120534523Y12310000D01*
X120415176Y12310104D01*
X120194571Y12218952D01*
X120025641Y12050317D01*
X119934104Y11829871D01*
X119933896Y11591176D01*
X115776224Y11591176D01*
X115700087Y11775440D01*
X115531452Y11944370D01*
X115311006Y12035907D01*
X115072311Y12036115D01*
X114851706Y11944963D01*
X114682776Y11776328D01*
X114591239Y11555882D01*
X114591031Y11317187D01*
X113447128Y11317187D01*
X112858000Y11906315D01*
X112002867Y11051182D01*
X110340964Y11051182D01*
X110798350Y11507770D01*
X111057704Y12132366D01*
X111058004Y12476762D01*
X111124702Y12476762D01*
X111254819Y11813095D01*
X111258464Y11804296D01*
X111437182Y11616867D01*
X112292315Y12472000D01*
X113423685Y12472000D01*
X114278818Y11616867D01*
X114457536Y11804296D01*
X114591298Y12467238D01*
X114461181Y13130905D01*
X114457536Y13139704D01*
X114278818Y13327133D01*
X113423685Y12472000D01*
X112292315Y12472000D01*
X111437182Y13327133D01*
X111258464Y13139704D01*
X111124702Y12476762D01*
X111058004Y12476762D01*
X111058294Y12808667D01*
X110800030Y13433715D01*
X110341728Y13892818D01*
X112002867Y13892818D01*
X112858000Y13037685D01*
X113713133Y13892818D01*
X113525704Y14071536D01*
X112862762Y14205298D01*
X112199095Y14075181D01*
X112190296Y14071536D01*
X112002867Y13892818D01*
X110341728Y13892818D01*
X110322230Y13912350D01*
X109697634Y14171704D01*
X109021333Y14172294D01*
X108396285Y13914030D01*
X107917650Y13436230D01*
X107658296Y12811634D01*
X107657706Y12135333D01*
X107563877Y12135333D01*
X107563877Y13777082D01*
X107776823Y13776896D01*
X107997428Y13868048D01*
X108166358Y14036683D01*
X108257895Y14257129D01*
X108258103Y14495824D01*
X108166951Y14716429D01*
X108107999Y14775484D01*
X108107999Y15095920D01*
X108393770Y14809650D01*
X109018366Y14550296D01*
X109694667Y14549706D01*
X110319715Y14807970D01*
X110340964Y14829182D01*
X112002867Y14829182D01*
X112190296Y14650464D01*
X112853238Y14516702D01*
X113516905Y14646819D01*
X113525704Y14650464D01*
X113713133Y14829182D01*
X112858000Y15684315D01*
X112002867Y14829182D01*
X110340964Y14829182D01*
X110798350Y15285770D01*
X111057704Y15910366D01*
X111058004Y16254762D01*
X111124702Y16254762D01*
X111254819Y15591095D01*
X111258464Y15582296D01*
X111437182Y15394867D01*
X112292315Y16250000D01*
X113423685Y16250000D01*
X114278818Y15394867D01*
X114457536Y15582296D01*
X114591298Y16245238D01*
X114461181Y16908905D01*
X114457536Y16917704D01*
X114329314Y17052176D01*
X120187906Y17052176D01*
X120279058Y16831571D01*
X120447693Y16662641D01*
X120668139Y16571104D01*
X120751583Y16571031D01*
X121077078Y16245536D01*
X121076896Y16036170D01*
X121168048Y15815565D01*
X121336683Y15646635D01*
X121557129Y15555098D01*
X121795824Y15554890D01*
X122016429Y15646042D01*
X122185359Y15814677D01*
X122276896Y16035123D01*
X122277104Y16273818D01*
X122185952Y16494423D01*
X122017317Y16663353D01*
X121871508Y16723898D01*
X121388042Y17207364D01*
X121388114Y17289824D01*
X121296962Y17510429D01*
X121128327Y17679359D01*
X120907881Y17770896D01*
X120669186Y17771104D01*
X120448581Y17679952D01*
X120279651Y17511317D01*
X120188114Y17290871D01*
X120187906Y17052176D01*
X114329314Y17052176D01*
X114278818Y17105133D01*
X113423685Y16250000D01*
X112292315Y16250000D01*
X111437182Y17105133D01*
X111258464Y16917704D01*
X111124702Y16254762D01*
X111058004Y16254762D01*
X111058294Y16586667D01*
X110800030Y17211715D01*
X110341728Y17670818D01*
X112002867Y17670818D01*
X112858000Y16815685D01*
X113713133Y17670818D01*
X113525704Y17849536D01*
X112862762Y17983298D01*
X112199095Y17853181D01*
X112190296Y17849536D01*
X112002867Y17670818D01*
X110341728Y17670818D01*
X110322230Y17690350D01*
X109697634Y17949704D01*
X109021333Y17950294D01*
X108396285Y17692030D01*
X108107999Y17404247D01*
X108107999Y17570603D01*
X108986396Y18449000D01*
X119423339Y18449000D01*
X119431683Y18440641D01*
X119652129Y18349104D01*
X119890824Y18348896D01*
X120111429Y18440048D01*
X120280359Y18608683D01*
X120371896Y18829129D01*
X120372104Y19067824D01*
X120348479Y19125000D01*
X131210000Y19125000D01*
X131210000Y15217528D01*
G36*
X33485101Y18365958D02*
X33484893Y18127263D01*
X33576045Y17906658D01*
X33744680Y17737728D01*
X33965126Y17646191D01*
X34203821Y17645983D01*
X34424426Y17737135D01*
X34433394Y17746087D01*
X34509261Y17746087D01*
X34700603Y17784147D01*
X34797648Y17848991D01*
X36716261Y17848991D01*
X36210981Y17343710D01*
X36102594Y17181499D01*
X36064534Y16990157D01*
X36064534Y16914554D01*
X36056175Y16906210D01*
X35964638Y16685764D01*
X35964430Y16447069D01*
X36055582Y16226464D01*
X36224217Y16057534D01*
X36444663Y15965997D01*
X36650422Y15965818D01*
X34845232Y14160628D01*
X32263946Y14160628D01*
X32205689Y14218987D01*
X31985243Y14310524D01*
X31746548Y14310732D01*
X31525943Y14219580D01*
X31357013Y14050945D01*
X31265476Y13830499D01*
X31265268Y13591804D01*
X31356420Y13371199D01*
X31525055Y13202269D01*
X31745501Y13110732D01*
X31984196Y13110524D01*
X32204801Y13201676D01*
X32263856Y13260628D01*
X35031628Y13260628D01*
X35203836Y13294882D01*
X35349826Y13392430D01*
X37667198Y15709802D01*
X37686873Y15739248D01*
X37764746Y15855792D01*
X37794638Y16006072D01*
X37857359Y16068683D01*
X37948896Y16289129D01*
X37949104Y16527824D01*
X37857952Y16748429D01*
X37689317Y16917359D01*
X37468871Y17008896D01*
X37290535Y17009051D01*
X37530464Y17248980D01*
X51900000Y17248980D01*
X51900000Y9863402D01*
X51866851Y9877167D01*
X51628156Y9877375D01*
X51407551Y9786223D01*
X51238621Y9617588D01*
X51147084Y9397142D01*
X51146876Y9158447D01*
X51232097Y8952197D01*
X51072934Y8793312D01*
X50981397Y8572866D01*
X50981189Y8334171D01*
X51072341Y8113566D01*
X51172259Y8013473D01*
X51017400Y7858884D01*
X50925863Y7638438D01*
X50925655Y7399743D01*
X51016807Y7179138D01*
X51088699Y7107121D01*
X50937641Y6956327D01*
X50846104Y6735881D01*
X50845896Y6497186D01*
X50869993Y6438866D01*
X40096038Y6415998D01*
X39790021Y6354453D01*
X39530852Y6180483D01*
X39357984Y5920578D01*
X39297738Y5614302D01*
X39359283Y5308285D01*
X39469561Y5144000D01*
X23588371Y5144000D01*
X21893000Y6839370D01*
X21893000Y7511028D01*
X22109717Y7727367D01*
X22292791Y8168258D01*
X22293207Y8645647D01*
X22110903Y9086857D01*
X21773633Y9424717D01*
X21332742Y9607791D01*
X20855353Y9608207D01*
X20414143Y9425903D01*
X20076283Y9088633D01*
X19893209Y8647742D01*
X19892793Y8170353D01*
X20075097Y7729143D01*
X20293000Y7510859D01*
X20293000Y6508000D01*
X20346343Y6239826D01*
X20353896Y6201853D01*
X20527315Y5942315D01*
X22594629Y3875000D01*
X17600000Y3875000D01*
X17600000Y5664650D01*
X17667000Y5692334D01*
X17962628Y5987446D01*
X18122818Y6373226D01*
X18123182Y6790942D01*
X17963666Y7177000D01*
X17668554Y7472628D01*
X17600000Y7501094D01*
X17600000Y8934126D01*
X17872367Y8661283D01*
X18313258Y8478209D01*
X18790647Y8477793D01*
X19231857Y8660097D01*
X19569717Y8997367D01*
X19752791Y9438258D01*
X19753207Y9915647D01*
X19678517Y10096411D01*
X20009648Y10427542D01*
X20075097Y10269143D01*
X20412367Y9931283D01*
X20853258Y9748209D01*
X21330647Y9747793D01*
X21771857Y9930097D01*
X22109717Y10267367D01*
X22292791Y10708258D01*
X22293170Y11143529D01*
X26199688Y11143529D01*
X26473145Y10481714D01*
X26979051Y9974924D01*
X27640387Y9700313D01*
X28356471Y9699688D01*
X29018286Y9973145D01*
X29525076Y10479051D01*
X29799687Y11140387D01*
X29800312Y11856471D01*
X29526855Y12518286D01*
X29020949Y13025076D01*
X28359613Y13299687D01*
X27643529Y13300312D01*
X26981714Y13026855D01*
X26474924Y12520949D01*
X26200313Y11859613D01*
X26199688Y11143529D01*
X22293170Y11143529D01*
X22293207Y11185647D01*
X22110903Y11626857D01*
X21773633Y11964717D01*
X21332742Y12147791D01*
X20855353Y12148207D01*
X20414143Y11965903D01*
X20342999Y11894883D01*
X20342999Y12540772D01*
X20412367Y12471283D01*
X20853258Y12288209D01*
X21330647Y12287793D01*
X21771857Y12470097D01*
X22109717Y12807367D01*
X22292791Y13248258D01*
X22293207Y13725647D01*
X22110903Y14166857D01*
X21773633Y14504717D01*
X21332742Y14687791D01*
X20855353Y14688207D01*
X20414143Y14505903D01*
X20342999Y14434883D01*
X20342999Y17084893D01*
X21707107Y18449000D01*
X33519583Y18449000D01*
X33485101Y18365958D01*
X33485101Y18365958D01*
G37*
X33485101Y18365958D02*
X33484893Y18127263D01*
X33576045Y17906658D01*
X33744680Y17737728D01*
X33965126Y17646191D01*
X34203821Y17645983D01*
X34424426Y17737135D01*
X34433394Y17746087D01*
X34509261Y17746087D01*
X34700603Y17784147D01*
X34797648Y17848991D01*
X36716261Y17848991D01*
X36210981Y17343710D01*
X36102594Y17181499D01*
X36064534Y16990157D01*
X36064534Y16914554D01*
X36056175Y16906210D01*
X35964638Y16685764D01*
X35964430Y16447069D01*
X36055582Y16226464D01*
X36224217Y16057534D01*
X36444663Y15965997D01*
X36650422Y15965818D01*
X34845232Y14160628D01*
X32263946Y14160628D01*
X32205689Y14218987D01*
X31985243Y14310524D01*
X31746548Y14310732D01*
X31525943Y14219580D01*
X31357013Y14050945D01*
X31265476Y13830499D01*
X31265268Y13591804D01*
X31356420Y13371199D01*
X31525055Y13202269D01*
X31745501Y13110732D01*
X31984196Y13110524D01*
X32204801Y13201676D01*
X32263856Y13260628D01*
X35031628Y13260628D01*
X35203836Y13294882D01*
X35349826Y13392430D01*
X37667198Y15709802D01*
X37686873Y15739248D01*
X37764746Y15855792D01*
X37794638Y16006072D01*
X37857359Y16068683D01*
X37948896Y16289129D01*
X37949104Y16527824D01*
X37857952Y16748429D01*
X37689317Y16917359D01*
X37468871Y17008896D01*
X37290535Y17009051D01*
X37530464Y17248980D01*
X51900000Y17248980D01*
X51900000Y9863402D01*
X51866851Y9877167D01*
X51628156Y9877375D01*
X51407551Y9786223D01*
X51238621Y9617588D01*
X51147084Y9397142D01*
X51146876Y9158447D01*
X51232097Y8952197D01*
X51072934Y8793312D01*
X50981397Y8572866D01*
X50981189Y8334171D01*
X51072341Y8113566D01*
X51172259Y8013473D01*
X51017400Y7858884D01*
X50925863Y7638438D01*
X50925655Y7399743D01*
X51016807Y7179138D01*
X51088699Y7107121D01*
X50937641Y6956327D01*
X50846104Y6735881D01*
X50845896Y6497186D01*
X50869993Y6438866D01*
X40096038Y6415998D01*
X39790021Y6354453D01*
X39530852Y6180483D01*
X39357984Y5920578D01*
X39297738Y5614302D01*
X39359283Y5308285D01*
X39469561Y5144000D01*
X23588371Y5144000D01*
X21893000Y6839370D01*
X21893000Y7511028D01*
X22109717Y7727367D01*
X22292791Y8168258D01*
X22293207Y8645647D01*
X22110903Y9086857D01*
X21773633Y9424717D01*
X21332742Y9607791D01*
X20855353Y9608207D01*
X20414143Y9425903D01*
X20076283Y9088633D01*
X19893209Y8647742D01*
X19892793Y8170353D01*
X20075097Y7729143D01*
X20293000Y7510859D01*
X20293000Y6508000D01*
X20346343Y6239826D01*
X20353896Y6201853D01*
X20527315Y5942315D01*
X22594629Y3875000D01*
X17600000Y3875000D01*
X17600000Y5664650D01*
X17667000Y5692334D01*
X17962628Y5987446D01*
X18122818Y6373226D01*
X18123182Y6790942D01*
X17963666Y7177000D01*
X17668554Y7472628D01*
X17600000Y7501094D01*
X17600000Y8934126D01*
X17872367Y8661283D01*
X18313258Y8478209D01*
X18790647Y8477793D01*
X19231857Y8660097D01*
X19569717Y8997367D01*
X19752791Y9438258D01*
X19753207Y9915647D01*
X19678517Y10096411D01*
X20009648Y10427542D01*
X20075097Y10269143D01*
X20412367Y9931283D01*
X20853258Y9748209D01*
X21330647Y9747793D01*
X21771857Y9930097D01*
X22109717Y10267367D01*
X22292791Y10708258D01*
X22293170Y11143529D01*
X26199688Y11143529D01*
X26473145Y10481714D01*
X26979051Y9974924D01*
X27640387Y9700313D01*
X28356471Y9699688D01*
X29018286Y9973145D01*
X29525076Y10479051D01*
X29799687Y11140387D01*
X29800312Y11856471D01*
X29526855Y12518286D01*
X29020949Y13025076D01*
X28359613Y13299687D01*
X27643529Y13300312D01*
X26981714Y13026855D01*
X26474924Y12520949D01*
X26200313Y11859613D01*
X26199688Y11143529D01*
X22293170Y11143529D01*
X22293207Y11185647D01*
X22110903Y11626857D01*
X21773633Y11964717D01*
X21332742Y12147791D01*
X20855353Y12148207D01*
X20414143Y11965903D01*
X20342999Y11894883D01*
X20342999Y12540772D01*
X20412367Y12471283D01*
X20853258Y12288209D01*
X21330647Y12287793D01*
X21771857Y12470097D01*
X22109717Y12807367D01*
X22292791Y13248258D01*
X22293207Y13725647D01*
X22110903Y14166857D01*
X21773633Y14504717D01*
X21332742Y14687791D01*
X20855353Y14688207D01*
X20414143Y14505903D01*
X20342999Y14434883D01*
X20342999Y17084893D01*
X21707107Y18449000D01*
X33519583Y18449000D01*
X33485101Y18365958D01*
G36*
X104313104Y6749871D02*
X104312896Y6511176D01*
X104313000Y6510924D01*
X104313000Y5144000D01*
X98132371Y5144000D01*
X97636584Y5639786D01*
X99471788Y5639786D01*
X99777935Y5700682D01*
X100037473Y5874101D01*
X101009373Y6846000D01*
X104353020Y6846000D01*
X104313104Y6749871D01*
X104313104Y6749871D01*
G37*
X104313104Y6749871D02*
X104312896Y6511176D01*
X104313000Y6510924D01*
X104313000Y5144000D01*
X98132371Y5144000D01*
X97636584Y5639786D01*
X99471788Y5639786D01*
X99777935Y5700682D01*
X100037473Y5874101D01*
X101009373Y6846000D01*
X104353020Y6846000D01*
X104313104Y6749871D01*
G36*
X19489446Y17645552D02*
X19381059Y17483341D01*
X19342999Y17291999D01*
X19342999Y15958000D01*
X18778000Y15958000D01*
X18703000Y15883000D01*
X18703000Y14908000D01*
X18723000Y14908000D01*
X18723000Y14608000D01*
X18703000Y14608000D01*
X18703000Y13633000D01*
X18778000Y13558000D01*
X19342999Y13558000D01*
X19342999Y13125160D01*
X19233633Y13234717D01*
X18792742Y13417791D01*
X18315353Y13418207D01*
X17874143Y13235903D01*
X17600000Y12962239D01*
X17600000Y13558000D01*
X18328000Y13558000D01*
X18403000Y13633000D01*
X18403000Y14608000D01*
X18383000Y14608000D01*
X18383000Y14908000D01*
X18403000Y14908000D01*
X18403000Y15883000D01*
X18328000Y15958000D01*
X17933131Y15958000D01*
X17962628Y15987446D01*
X18122818Y16373226D01*
X18123182Y16790942D01*
X17963666Y17177000D01*
X17668554Y17472628D01*
X17600000Y17501094D01*
X17600000Y19125000D01*
X20968893Y19125000D01*
X19489446Y17645552D01*
X19489446Y17645552D01*
G37*
X19489446Y17645552D02*
X19381059Y17483341D01*
X19342999Y17291999D01*
X19342999Y15958000D01*
X18778000Y15958000D01*
X18703000Y15883000D01*
X18703000Y14908000D01*
X18723000Y14908000D01*
X18723000Y14608000D01*
X18703000Y14608000D01*
X18703000Y13633000D01*
X18778000Y13558000D01*
X19342999Y13558000D01*
X19342999Y13125160D01*
X19233633Y13234717D01*
X18792742Y13417791D01*
X18315353Y13418207D01*
X17874143Y13235903D01*
X17600000Y12962239D01*
X17600000Y13558000D01*
X18328000Y13558000D01*
X18403000Y13633000D01*
X18403000Y14608000D01*
X18383000Y14608000D01*
X18383000Y14908000D01*
X18403000Y14908000D01*
X18403000Y15883000D01*
X18328000Y15958000D01*
X17933131Y15958000D01*
X17962628Y15987446D01*
X18122818Y16373226D01*
X18123182Y16790942D01*
X17963666Y17177000D01*
X17668554Y17472628D01*
X17600000Y17501094D01*
X17600000Y19125000D01*
X20968893Y19125000D01*
X19489446Y17645552D01*
D34*
G36*
X4333812Y12021602D02*
X4358648Y11391539D01*
X4488930Y11077010D01*
X4207495Y11077256D01*
X3664440Y10852870D01*
X3248591Y10437746D01*
X3023257Y9895082D01*
X3022744Y9307495D01*
X3247130Y8764440D01*
X3662254Y8348591D01*
X3827621Y8279925D01*
X3629860Y8082508D01*
X3473179Y7705179D01*
X3472822Y7296613D01*
X3628844Y6919011D01*
X3917492Y6629860D01*
X4230532Y6499874D01*
X3919011Y6371156D01*
X3629860Y6082508D01*
X3473179Y5705179D01*
X3472822Y5296613D01*
X3628844Y4919011D01*
X3917492Y4629860D01*
X4230532Y4499874D01*
X3919011Y4371156D01*
X3629860Y4082508D01*
X3473179Y3705179D01*
X3472822Y3296613D01*
X3628844Y2919011D01*
X3827333Y2720176D01*
X3664440Y2652870D01*
X3248591Y2237746D01*
X3023257Y1695082D01*
X3022744Y1107495D01*
X3247130Y564440D01*
X3409287Y402000D01*
X402000Y402000D01*
X402000Y10544132D01*
X884737Y10544132D01*
X995641Y10266901D01*
X1641593Y10023677D01*
X2331453Y10046164D01*
X2864359Y10266901D01*
X2975263Y10544132D01*
X1930000Y11589395D01*
X884737Y10544132D01*
X402000Y10544132D01*
X402000Y10897172D01*
X427901Y10834641D01*
X705132Y10723737D01*
X1750395Y11769000D01*
X1736253Y11783142D01*
X1915858Y11962747D01*
X1930000Y11948605D01*
X1944143Y11962747D01*
X2123748Y11783142D01*
X2109605Y11769000D01*
X3154868Y10723737D01*
X3432099Y10834641D01*
X3675323Y11480593D01*
X3652836Y12170453D01*
X3600004Y12298000D01*
X4435740Y12298000D01*
X4333812Y12021602D01*
X4333812Y12021602D01*
G37*
X4333812Y12021602D02*
X4358648Y11391539D01*
X4488930Y11077010D01*
X4207495Y11077256D01*
X3664440Y10852870D01*
X3248591Y10437746D01*
X3023257Y9895082D01*
X3022744Y9307495D01*
X3247130Y8764440D01*
X3662254Y8348591D01*
X3827621Y8279925D01*
X3629860Y8082508D01*
X3473179Y7705179D01*
X3472822Y7296613D01*
X3628844Y6919011D01*
X3917492Y6629860D01*
X4230532Y6499874D01*
X3919011Y6371156D01*
X3629860Y6082508D01*
X3473179Y5705179D01*
X3472822Y5296613D01*
X3628844Y4919011D01*
X3917492Y4629860D01*
X4230532Y4499874D01*
X3919011Y4371156D01*
X3629860Y4082508D01*
X3473179Y3705179D01*
X3472822Y3296613D01*
X3628844Y2919011D01*
X3827333Y2720176D01*
X3664440Y2652870D01*
X3248591Y2237746D01*
X3023257Y1695082D01*
X3022744Y1107495D01*
X3247130Y564440D01*
X3409287Y402000D01*
X402000Y402000D01*
X402000Y10544132D01*
X884737Y10544132D01*
X995641Y10266901D01*
X1641593Y10023677D01*
X2331453Y10046164D01*
X2864359Y10266901D01*
X2975263Y10544132D01*
X1930000Y11589395D01*
X884737Y10544132D01*
X402000Y10544132D01*
X402000Y10897172D01*
X427901Y10834641D01*
X705132Y10723737D01*
X1750395Y11769000D01*
X1736253Y11783142D01*
X1915858Y11962747D01*
X1930000Y11948605D01*
X1944143Y11962747D01*
X2123748Y11783142D01*
X2109605Y11769000D01*
X3154868Y10723737D01*
X3432099Y10834641D01*
X3675323Y11480593D01*
X3652836Y12170453D01*
X3600004Y12298000D01*
X4435740Y12298000D01*
X4333812Y12021602D01*
G36*
X14873000Y17264133D02*
X14735868Y17401504D01*
X14340168Y17565813D01*
X13911711Y17566187D01*
X13515725Y17402569D01*
X13212496Y17099868D01*
X13048187Y16704168D01*
X13047813Y16275711D01*
X13079509Y16199000D01*
X12930750Y16199000D01*
X12772000Y16040250D01*
X12772000Y14791000D01*
X14021250Y14791000D01*
X14180000Y14949750D01*
X14180000Y15411951D01*
X14338289Y15411813D01*
X14734275Y15575431D01*
X14873000Y15713914D01*
X14873000Y7264133D01*
X14735868Y7401504D01*
X14340168Y7565813D01*
X13911711Y7566187D01*
X13515725Y7402569D01*
X13212496Y7099868D01*
X13048187Y6704168D01*
X13047813Y6275711D01*
X13211431Y5879725D01*
X13514132Y5576496D01*
X13909832Y5412187D01*
X14338289Y5411813D01*
X14734275Y5575431D01*
X14873000Y5713914D01*
X14873000Y402000D01*
X5590875Y402000D01*
X5751409Y562254D01*
X5976743Y1104918D01*
X5977256Y1692505D01*
X5752870Y2235560D01*
X5337746Y2651409D01*
X5172379Y2720075D01*
X5370140Y2917492D01*
X5461778Y3138182D01*
X9172684Y3138182D01*
X9450242Y2466440D01*
X9963736Y1952048D01*
X10634993Y1673318D01*
X11361818Y1672684D01*
X12033560Y1950242D01*
X12547952Y2463736D01*
X12826682Y3134993D01*
X12827316Y3861818D01*
X12549758Y4533560D01*
X12036264Y5047952D01*
X11365007Y5326682D01*
X10638182Y5327316D01*
X9966440Y5049758D01*
X9452048Y4536264D01*
X9173318Y3865007D01*
X9172684Y3138182D01*
X5461778Y3138182D01*
X5526821Y3294821D01*
X5527178Y3703387D01*
X5504226Y3758936D01*
X7975291Y6230000D01*
X11568000Y6230000D01*
X11769675Y6270115D01*
X11940645Y6384355D01*
X13083645Y7527355D01*
X13197885Y7698325D01*
X13238000Y7900000D01*
X13238000Y8501407D01*
X13339131Y8543194D01*
X13684593Y8888053D01*
X13871786Y9338864D01*
X13872212Y9826995D01*
X13685806Y10278131D01*
X13340947Y10623593D01*
X12890136Y10810786D01*
X12402005Y10811212D01*
X11950869Y10624806D01*
X11605407Y10279947D01*
X11418214Y9829136D01*
X11417788Y9341005D01*
X11604194Y8889869D01*
X11949053Y8544407D01*
X12184000Y8446849D01*
X12184000Y8118290D01*
X11349710Y7284000D01*
X10809956Y7284000D01*
X11144593Y7618053D01*
X11331786Y8068864D01*
X11332212Y8556995D01*
X11145806Y9008131D01*
X10800947Y9353593D01*
X10350136Y9540786D01*
X9862005Y9541212D01*
X9410869Y9354806D01*
X9065407Y9009947D01*
X8878214Y8559136D01*
X8877788Y8071005D01*
X8888120Y8046000D01*
X7504000Y8046000D01*
X7335785Y8012540D01*
X7302325Y8005885D01*
X7131355Y7891645D01*
X5345949Y6106239D01*
X5082508Y6370140D01*
X4769468Y6500126D01*
X5080989Y6628844D01*
X5370140Y6917492D01*
X5526821Y7294821D01*
X5527178Y7703387D01*
X5371156Y8080989D01*
X5172667Y8279824D01*
X5335560Y8347130D01*
X5751409Y8762254D01*
X5976743Y9304918D01*
X5977256Y9892505D01*
X5858486Y10179950D01*
X6307461Y10197648D01*
X6774208Y10390981D01*
X6866745Y10652650D01*
X5930000Y11589395D01*
X5915858Y11575252D01*
X5736253Y11754857D01*
X5750395Y11769000D01*
X6109605Y11769000D01*
X7046350Y10832255D01*
X7308019Y10924792D01*
X7526188Y11516398D01*
X7501352Y12146461D01*
X7308019Y12613208D01*
X7046350Y12705745D01*
X6109605Y11769000D01*
X5750395Y11769000D01*
X5736253Y11783142D01*
X5915858Y11962747D01*
X5930000Y11948605D01*
X6866745Y12885350D01*
X6774208Y13147019D01*
X6182602Y13365188D01*
X5880693Y13353287D01*
X5894276Y13421575D01*
X5894276Y13461168D01*
X5902000Y13500000D01*
X5902000Y14866264D01*
X5930000Y14860594D01*
X5953000Y14860594D01*
X5953000Y14385000D01*
X5993115Y14183325D01*
X6107355Y14012355D01*
X8919983Y11199727D01*
X8878214Y11099136D01*
X8877788Y10611005D01*
X9064194Y10159869D01*
X9409053Y9814407D01*
X9859864Y9627214D01*
X10347995Y9626788D01*
X10799131Y9813194D01*
X11144593Y10158053D01*
X11331786Y10608864D01*
X11332212Y11096995D01*
X11145806Y11548131D01*
X11047110Y11647000D01*
X11514477Y11647000D01*
X11604194Y11429869D01*
X11949053Y11084407D01*
X12399864Y10897214D01*
X12887995Y10896788D01*
X13339131Y11083194D01*
X13684593Y11428053D01*
X13871786Y11878864D01*
X13872212Y12366995D01*
X13685806Y12818131D01*
X13375480Y13129000D01*
X13671310Y13129000D01*
X13904699Y13225673D01*
X14083327Y13404302D01*
X14180000Y13637691D01*
X14180000Y14378250D01*
X14021250Y14537000D01*
X12772000Y14537000D01*
X12772000Y14517000D01*
X12518000Y14517000D01*
X12518000Y14537000D01*
X11268750Y14537000D01*
X11110000Y14378250D01*
X11110000Y14124000D01*
X10800947Y14433593D01*
X10350136Y14620786D01*
X10053535Y14621045D01*
X8984271Y15690309D01*
X11110000Y15690309D01*
X11110000Y14949750D01*
X11268750Y14791000D01*
X12518000Y14791000D01*
X12518000Y16040250D01*
X12359250Y16199000D01*
X11618690Y16199000D01*
X11385301Y16102327D01*
X11206673Y15923698D01*
X11110000Y15690309D01*
X8984271Y15690309D01*
X7618290Y17056290D01*
X7463540Y17159691D01*
X7363406Y17179609D01*
X7363406Y17244782D01*
X7389699Y17255673D01*
X7568327Y17434302D01*
X7665000Y17667691D01*
X7665000Y17747750D01*
X7506250Y17906500D01*
X7133236Y17906500D01*
X7030000Y17927406D01*
X6333000Y17927406D01*
X6333000Y18131500D01*
X6353000Y18131500D01*
X6353000Y18720250D01*
X6607000Y18720250D01*
X6607000Y18131500D01*
X7506250Y18131500D01*
X7665000Y18290250D01*
X7665000Y18370309D01*
X7568327Y18603698D01*
X7389699Y18782327D01*
X7156310Y18879000D01*
X6765750Y18879000D01*
X6607000Y18720250D01*
X6353000Y18720250D01*
X6194250Y18879000D01*
X5902000Y18879000D01*
X5902000Y19138182D01*
X9172684Y19138182D01*
X9450242Y18466440D01*
X9963736Y17952048D01*
X10634993Y17673318D01*
X11361818Y17672684D01*
X12033560Y17950242D01*
X12547952Y18463736D01*
X12826682Y19134993D01*
X12827316Y19861818D01*
X12549758Y20533560D01*
X12036264Y21047952D01*
X11365007Y21326682D01*
X10638182Y21327316D01*
X9966440Y21049758D01*
X9452048Y20536264D01*
X9173318Y19865007D01*
X9172684Y19138182D01*
X5902000Y19138182D01*
X5902000Y19900000D01*
X5901440Y19902813D01*
X5904613Y19953775D01*
X5887427Y20081091D01*
X6307461Y20097648D01*
X6774208Y20290981D01*
X6866745Y20552650D01*
X5930000Y21489395D01*
X5915858Y21475252D01*
X5736253Y21654857D01*
X5750395Y21669000D01*
X5736253Y21683142D01*
X5915858Y21862747D01*
X5930000Y21848605D01*
X5944143Y21862747D01*
X6123748Y21683142D01*
X6109605Y21669000D01*
X7046350Y20732255D01*
X7308019Y20824792D01*
X7526188Y21416398D01*
X7501352Y22046461D01*
X7308019Y22513208D01*
X7068251Y22598000D01*
X14873000Y22598000D01*
X14873000Y17264133D01*
X14873000Y17264133D01*
G37*
X14873000Y17264133D02*
X14735868Y17401504D01*
X14340168Y17565813D01*
X13911711Y17566187D01*
X13515725Y17402569D01*
X13212496Y17099868D01*
X13048187Y16704168D01*
X13047813Y16275711D01*
X13079509Y16199000D01*
X12930750Y16199000D01*
X12772000Y16040250D01*
X12772000Y14791000D01*
X14021250Y14791000D01*
X14180000Y14949750D01*
X14180000Y15411951D01*
X14338289Y15411813D01*
X14734275Y15575431D01*
X14873000Y15713914D01*
X14873000Y7264133D01*
X14735868Y7401504D01*
X14340168Y7565813D01*
X13911711Y7566187D01*
X13515725Y7402569D01*
X13212496Y7099868D01*
X13048187Y6704168D01*
X13047813Y6275711D01*
X13211431Y5879725D01*
X13514132Y5576496D01*
X13909832Y5412187D01*
X14338289Y5411813D01*
X14734275Y5575431D01*
X14873000Y5713914D01*
X14873000Y402000D01*
X5590875Y402000D01*
X5751409Y562254D01*
X5976743Y1104918D01*
X5977256Y1692505D01*
X5752870Y2235560D01*
X5337746Y2651409D01*
X5172379Y2720075D01*
X5370140Y2917492D01*
X5461778Y3138182D01*
X9172684Y3138182D01*
X9450242Y2466440D01*
X9963736Y1952048D01*
X10634993Y1673318D01*
X11361818Y1672684D01*
X12033560Y1950242D01*
X12547952Y2463736D01*
X12826682Y3134993D01*
X12827316Y3861818D01*
X12549758Y4533560D01*
X12036264Y5047952D01*
X11365007Y5326682D01*
X10638182Y5327316D01*
X9966440Y5049758D01*
X9452048Y4536264D01*
X9173318Y3865007D01*
X9172684Y3138182D01*
X5461778Y3138182D01*
X5526821Y3294821D01*
X5527178Y3703387D01*
X5504226Y3758936D01*
X7975291Y6230000D01*
X11568000Y6230000D01*
X11769675Y6270115D01*
X11940645Y6384355D01*
X13083645Y7527355D01*
X13197885Y7698325D01*
X13238000Y7900000D01*
X13238000Y8501407D01*
X13339131Y8543194D01*
X13684593Y8888053D01*
X13871786Y9338864D01*
X13872212Y9826995D01*
X13685806Y10278131D01*
X13340947Y10623593D01*
X12890136Y10810786D01*
X12402005Y10811212D01*
X11950869Y10624806D01*
X11605407Y10279947D01*
X11418214Y9829136D01*
X11417788Y9341005D01*
X11604194Y8889869D01*
X11949053Y8544407D01*
X12184000Y8446849D01*
X12184000Y8118290D01*
X11349710Y7284000D01*
X10809956Y7284000D01*
X11144593Y7618053D01*
X11331786Y8068864D01*
X11332212Y8556995D01*
X11145806Y9008131D01*
X10800947Y9353593D01*
X10350136Y9540786D01*
X9862005Y9541212D01*
X9410869Y9354806D01*
X9065407Y9009947D01*
X8878214Y8559136D01*
X8877788Y8071005D01*
X8888120Y8046000D01*
X7504000Y8046000D01*
X7335785Y8012540D01*
X7302325Y8005885D01*
X7131355Y7891645D01*
X5345949Y6106239D01*
X5082508Y6370140D01*
X4769468Y6500126D01*
X5080989Y6628844D01*
X5370140Y6917492D01*
X5526821Y7294821D01*
X5527178Y7703387D01*
X5371156Y8080989D01*
X5172667Y8279824D01*
X5335560Y8347130D01*
X5751409Y8762254D01*
X5976743Y9304918D01*
X5977256Y9892505D01*
X5858486Y10179950D01*
X6307461Y10197648D01*
X6774208Y10390981D01*
X6866745Y10652650D01*
X5930000Y11589395D01*
X5915858Y11575252D01*
X5736253Y11754857D01*
X5750395Y11769000D01*
X6109605Y11769000D01*
X7046350Y10832255D01*
X7308019Y10924792D01*
X7526188Y11516398D01*
X7501352Y12146461D01*
X7308019Y12613208D01*
X7046350Y12705745D01*
X6109605Y11769000D01*
X5750395Y11769000D01*
X5736253Y11783142D01*
X5915858Y11962747D01*
X5930000Y11948605D01*
X6866745Y12885350D01*
X6774208Y13147019D01*
X6182602Y13365188D01*
X5880693Y13353287D01*
X5894276Y13421575D01*
X5894276Y13461168D01*
X5902000Y13500000D01*
X5902000Y14866264D01*
X5930000Y14860594D01*
X5953000Y14860594D01*
X5953000Y14385000D01*
X5993115Y14183325D01*
X6107355Y14012355D01*
X8919983Y11199727D01*
X8878214Y11099136D01*
X8877788Y10611005D01*
X9064194Y10159869D01*
X9409053Y9814407D01*
X9859864Y9627214D01*
X10347995Y9626788D01*
X10799131Y9813194D01*
X11144593Y10158053D01*
X11331786Y10608864D01*
X11332212Y11096995D01*
X11145806Y11548131D01*
X11047110Y11647000D01*
X11514477Y11647000D01*
X11604194Y11429869D01*
X11949053Y11084407D01*
X12399864Y10897214D01*
X12887995Y10896788D01*
X13339131Y11083194D01*
X13684593Y11428053D01*
X13871786Y11878864D01*
X13872212Y12366995D01*
X13685806Y12818131D01*
X13375480Y13129000D01*
X13671310Y13129000D01*
X13904699Y13225673D01*
X14083327Y13404302D01*
X14180000Y13637691D01*
X14180000Y14378250D01*
X14021250Y14537000D01*
X12772000Y14537000D01*
X12772000Y14517000D01*
X12518000Y14517000D01*
X12518000Y14537000D01*
X11268750Y14537000D01*
X11110000Y14378250D01*
X11110000Y14124000D01*
X10800947Y14433593D01*
X10350136Y14620786D01*
X10053535Y14621045D01*
X8984271Y15690309D01*
X11110000Y15690309D01*
X11110000Y14949750D01*
X11268750Y14791000D01*
X12518000Y14791000D01*
X12518000Y16040250D01*
X12359250Y16199000D01*
X11618690Y16199000D01*
X11385301Y16102327D01*
X11206673Y15923698D01*
X11110000Y15690309D01*
X8984271Y15690309D01*
X7618290Y17056290D01*
X7463540Y17159691D01*
X7363406Y17179609D01*
X7363406Y17244782D01*
X7389699Y17255673D01*
X7568327Y17434302D01*
X7665000Y17667691D01*
X7665000Y17747750D01*
X7506250Y17906500D01*
X7133236Y17906500D01*
X7030000Y17927406D01*
X6333000Y17927406D01*
X6333000Y18131500D01*
X6353000Y18131500D01*
X6353000Y18720250D01*
X6607000Y18720250D01*
X6607000Y18131500D01*
X7506250Y18131500D01*
X7665000Y18290250D01*
X7665000Y18370309D01*
X7568327Y18603698D01*
X7389699Y18782327D01*
X7156310Y18879000D01*
X6765750Y18879000D01*
X6607000Y18720250D01*
X6353000Y18720250D01*
X6194250Y18879000D01*
X5902000Y18879000D01*
X5902000Y19138182D01*
X9172684Y19138182D01*
X9450242Y18466440D01*
X9963736Y17952048D01*
X10634993Y17673318D01*
X11361818Y17672684D01*
X12033560Y17950242D01*
X12547952Y18463736D01*
X12826682Y19134993D01*
X12827316Y19861818D01*
X12549758Y20533560D01*
X12036264Y21047952D01*
X11365007Y21326682D01*
X10638182Y21327316D01*
X9966440Y21049758D01*
X9452048Y20536264D01*
X9173318Y19865007D01*
X9172684Y19138182D01*
X5902000Y19138182D01*
X5902000Y19900000D01*
X5901440Y19902813D01*
X5904613Y19953775D01*
X5887427Y20081091D01*
X6307461Y20097648D01*
X6774208Y20290981D01*
X6866745Y20552650D01*
X5930000Y21489395D01*
X5915858Y21475252D01*
X5736253Y21654857D01*
X5750395Y21669000D01*
X5736253Y21683142D01*
X5915858Y21862747D01*
X5930000Y21848605D01*
X5944143Y21862747D01*
X6123748Y21683142D01*
X6109605Y21669000D01*
X7046350Y20732255D01*
X7308019Y20824792D01*
X7526188Y21416398D01*
X7501352Y22046461D01*
X7308019Y22513208D01*
X7068251Y22598000D01*
X14873000Y22598000D01*
X14873000Y17264133D01*
G36*
X2123748Y21683142D02*
X2109605Y21669000D01*
X2123748Y21654857D01*
X1944143Y21475252D01*
X1930000Y21489395D01*
X1915858Y21475252D01*
X1736253Y21654857D01*
X1750395Y21669000D01*
X1736253Y21683142D01*
X1915858Y21862747D01*
X1930000Y21848605D01*
X1944143Y21862747D01*
X2123748Y21683142D01*
X2123748Y21683142D01*
G37*
X2123748Y21683142D02*
X2109605Y21669000D01*
X2123748Y21654857D01*
X1944143Y21475252D01*
X1930000Y21489395D01*
X1915858Y21475252D01*
X1736253Y21654857D01*
X1750395Y21669000D01*
X1736253Y21683142D01*
X1915858Y21862747D01*
X1930000Y21848605D01*
X1944143Y21862747D01*
X2123748Y21683142D01*
D33*
G36*
X141425000Y11683000D02*
X140000160Y11683000D01*
X140000346Y11896079D01*
X139696506Y12631429D01*
X139134388Y13194529D01*
X138399570Y13499652D01*
X137603921Y13500346D01*
X136868571Y13196506D01*
X136305471Y12634388D01*
X136128000Y12206990D01*
X136128000Y15139000D01*
X136120121Y15177906D01*
X136097727Y15210681D01*
X136064346Y15232161D01*
X136028000Y15239000D01*
X131810000Y15239000D01*
X131810000Y18925000D01*
X141425000Y18925000D01*
X141425000Y11683000D01*
X141425000Y11683000D01*
G37*
X141425000Y11683000D02*
X140000160Y11683000D01*
X140000346Y11896079D01*
X139696506Y12631429D01*
X139134388Y13194529D01*
X138399570Y13499652D01*
X137603921Y13500346D01*
X136868571Y13196506D01*
X136305471Y12634388D01*
X136128000Y12206990D01*
X136128000Y15139000D01*
X136120121Y15177906D01*
X136097727Y15210681D01*
X136064346Y15232161D01*
X136028000Y15239000D01*
X131810000Y15239000D01*
X131810000Y18925000D01*
X141425000Y18925000D01*
X141425000Y11683000D01*
M02*
