M48
INCH,TZ
T10C0.016
T11C0.059
T12C0.031
T13C0.033
T14C0.039
T15C0.040
T16C0.051
T17C0.063
T18C0.071
T19C0.098
T20C0.118
%
T10
X006299Y007598
X006299Y007283
X006299Y006969
X006299Y006654
X006299Y006339
X006299Y006024
X006299Y005551
X006299Y005079
X006299Y004567
X006299Y004094
X006299Y003543
X006299Y003031
X006299Y002717
X006299Y002402
X006299Y002087
X006299Y001772
X006299Y001457
X008307Y006732
X008307Y006024
X012545Y005398
X013104Y007185
X013419Y007183
X013654Y002660
X014154Y001710
X014396Y006522
X014454Y005660
X014704Y006460
X014849Y001710
X015254Y004610
X015289Y006360
X015289Y003060
X015787Y002211
X019254Y005860
X020154Y006510
X020225Y002220
X020254Y002605
X020286Y002960
X020307Y003328
X020373Y003652
X022702Y007139
X022704Y006360
X023754Y006835
X024804Y006810
X024822Y002535
X025504Y003165
X026354Y003165
X027004Y002929
X027954Y002929
X028304Y006610
X028754Y006310
X028762Y002535
X029004Y003860
X029904Y004460
X030020Y006777
X030142Y002535
X032854Y003760
X033654Y006310
X035254Y006210
X035304Y006710
X035504Y006410
X035573Y005668
X035704Y005054
X036104Y006710
X036104Y004785
X037037Y005145
X037124Y004186
X037154Y003510
X037604Y003560
X037667Y005143
X038104Y006310
X038104Y005560
X038354Y003760
X039054Y006910
X039204Y006260
X039304Y007110
X040254Y003910
X040554Y002110
X040704Y005810
X040728Y005110
X041304Y002610
X041454Y003010
X041634Y002362
X042385Y005660
X042554Y002260
X043054Y003160
X043054Y002260
X043570Y002260
X043754Y005660
X044404Y002210
X045054Y005660
X045351Y004502
X045354Y004010
X045504Y002160
X045554Y006410
X045554Y005810
X045954Y002460
X046004Y005160
X046004Y004810
X046004Y004460
X046004Y003410
X046029Y004085
X046029Y003735
X046254Y006410
X046254Y005810
X047154Y007460
X047278Y004349
X047454Y004610
X047554Y006760
X047904Y006360
X048154Y004560
X048154Y004160
X048554Y007260
X048554Y006860
X048554Y006510
X048554Y006110
X048554Y005760
X049354Y004960
X049454Y001860
X049904Y006810
X050154Y007160
X051969Y007382
X052559Y007382
X052559Y001673
X053150Y007382
X053150Y001673
X053254Y005610
X053740Y007382
X053740Y006791
X053740Y006201
X053740Y005610
X053740Y003445
X053740Y002854
X053740Y002264
X053740Y001673
T11
X005561Y006492
X005561Y002555
X006722Y006529
X006722Y002592
X001772Y003780
X001772Y000551
T12
X001772Y002953
X001772Y002165
X001772Y001378
T13
X003978Y005273
X003978Y004273
X003978Y003273
X004978Y005773
X004978Y004773
X004978Y003773
X007304Y005810
X007304Y004810
X007304Y003810
X008304Y005310
X008304Y004310
X008304Y003310
T14
X023228Y007677
X023228Y001378
X024016Y007677
X024016Y001378
X024803Y007677
X024803Y001378
X025591Y007677
X025591Y001378
X026378Y007677
X026378Y001378
X027165Y007677
X027165Y001378
X027953Y007677
X027953Y001378
X028740Y007677
X028740Y001378
T15
X030904Y004360
X031622Y001387
X031904Y004360
X032622Y001387
X033622Y001387
X034622Y001387
X035622Y001387
X036622Y001387
X037622Y001387
T16
X002335Y008531
X002335Y004633
T17
X000760Y008531
X000760Y004633
T18
X041676Y006398
X041676Y004910
X043054Y006398
X043054Y004910
X044432Y006398
X044432Y004910
T19
X054724Y006496
X054724Y002559
T20
X004331Y007677
X004331Y001378
X011024Y004528
X054331Y004528
M30

