G04 #@! TF.FileFunction,Paste,Top*
%FSLAX46Y46*%
G04 Gerber Fmt 4.6, Leading zero omitted, Abs format (unit mm)*
G04 Created by KiCad (PCBNEW 4.0.0-rc2-1-stable) date Mardi 07 juin 2016 13:35:49*
%MOMM*%
G01*
G04 APERTURE LIST*
%ADD10C,0.100000*%
%ADD11R,0.600000X1.100000*%
%ADD12R,0.600000X1.500000*%
%ADD13R,1.100000X0.400000*%
%ADD14R,0.350000X0.800000*%
%ADD15R,0.800000X0.350000*%
%ADD16R,0.750000X0.750000*%
%ADD17R,0.500000X0.900000*%
%ADD18R,0.900000X0.500000*%
%ADD19R,2.029460X2.651760*%
%ADD20R,2.499360X1.800860*%
%ADD21R,0.797560X0.797560*%
%ADD22R,1.000000X1.250000*%
%ADD23R,0.750000X0.800000*%
%ADD24R,0.800000X0.750000*%
%ADD25R,1.250000X1.000000*%
%ADD26R,0.500000X0.300000*%
%ADD27R,0.360000X0.360000*%
%ADD28R,1.100000X1.500000*%
%ADD29R,4.100000X1.850000*%
%ADD30R,0.300000X0.800000*%
%ADD31O,0.550000X0.200000*%
%ADD32O,0.200000X0.550000*%
%ADD33O,0.200000X0.600000*%
%ADD34O,0.600000X0.200000*%
%ADD35R,0.600000X0.600000*%
%ADD36R,0.500000X0.180000*%
%ADD37R,0.180000X0.564000*%
%ADD38R,0.700000X0.350000*%
%ADD39R,0.768000X0.588000*%
G04 APERTURE END LIST*
D10*
D11*
X100640049Y12892017D03*
X99390049Y12892017D03*
X98140049Y12892017D03*
X96890049Y12892017D03*
X96890049Y10692017D03*
X98140049Y10692017D03*
X99390049Y10692017D03*
X100640049Y10692017D03*
D12*
X41220000Y6966000D03*
X42490000Y6966000D03*
X43760000Y6966000D03*
X45030000Y6966000D03*
X46300000Y6966000D03*
X47570000Y6966000D03*
X48840000Y6966000D03*
X50110000Y6966000D03*
X50110000Y16266000D03*
X48840000Y16266000D03*
X47570000Y16266000D03*
X46300000Y16266000D03*
X45030000Y16266000D03*
X43760000Y16266000D03*
X42490000Y16266000D03*
X41220000Y16266000D03*
D13*
X84250032Y16423114D03*
X84250032Y15773114D03*
X84250032Y15123114D03*
X84250032Y14473114D03*
X88550032Y14473114D03*
X88550032Y15123114D03*
X88550032Y15773114D03*
X88550032Y16423114D03*
D14*
X34575000Y17426000D03*
X33925000Y17426000D03*
X33275000Y17426000D03*
X32625000Y17426000D03*
D15*
X31600000Y16401000D03*
X31600000Y15751000D03*
X31600000Y15101000D03*
X31600000Y14451000D03*
D14*
X32625000Y13426000D03*
X33275000Y13426000D03*
X33925000Y13426000D03*
X34575000Y13426000D03*
D15*
X35600000Y14451000D03*
X35600000Y15101000D03*
X35600000Y15751000D03*
X35600000Y16401000D03*
D16*
X32975000Y14801000D03*
X34225000Y14801000D03*
X32975000Y16051000D03*
X34225000Y16051000D03*
D17*
X32384000Y9297000D03*
X30884000Y9297000D03*
D18*
X80319785Y5973775D03*
X80319785Y7473775D03*
X82859785Y5973775D03*
X82859785Y7473775D03*
X85399785Y5973775D03*
X85399785Y7473775D03*
X87939785Y5973775D03*
X87939785Y7473775D03*
X90479785Y5973775D03*
X90479785Y7473775D03*
X93019785Y5973775D03*
X93019785Y7473775D03*
X95559785Y5973775D03*
X95559785Y7473775D03*
D17*
X46300000Y4725000D03*
X47800000Y4725000D03*
X80960032Y14391114D03*
X82460032Y14391114D03*
X80960032Y16296114D03*
X82460032Y16296114D03*
X80960032Y18201114D03*
X82460032Y18201114D03*
D18*
X29956082Y7532196D03*
X29956082Y6032196D03*
X86117000Y10579000D03*
X86117000Y12079000D03*
X84212000Y10579000D03*
X84212000Y12079000D03*
X98309000Y17782000D03*
X98309000Y16282000D03*
X77735000Y5995000D03*
X77735000Y7495000D03*
D17*
X27902000Y17077000D03*
X26402000Y17077000D03*
X27902000Y15172000D03*
X26402000Y15172000D03*
X49438000Y4725000D03*
X50938000Y4725000D03*
D19*
X133361000Y16843340D03*
X133361000Y12672660D03*
D20*
X130661020Y6155000D03*
X134658980Y6155000D03*
D21*
X31861082Y7531496D03*
X31861082Y6032896D03*
D22*
X114708000Y7425000D03*
X116708000Y7425000D03*
X121365195Y13394513D03*
X123365195Y13394513D03*
D23*
X115708000Y12230000D03*
X115708000Y13730000D03*
D24*
X120800000Y18187000D03*
X122300000Y18187000D03*
X119518000Y12218000D03*
X118018000Y12218000D03*
X125835195Y18220513D03*
X124335195Y18220513D03*
D22*
X118740000Y5106000D03*
X116740000Y5106000D03*
X125323195Y11108513D03*
X123323195Y11108513D03*
D23*
X107019345Y7575587D03*
X107019345Y6075587D03*
D24*
X110067345Y4781587D03*
X108567345Y4781587D03*
D23*
X111591345Y7575587D03*
X111591345Y6075587D03*
D25*
X37576082Y5782196D03*
X37576082Y7782196D03*
X37603000Y9694000D03*
X37603000Y11694000D03*
D23*
X103770000Y7278400D03*
X103770000Y5778400D03*
D24*
X99390049Y14586017D03*
X97890049Y14586017D03*
D23*
X102250049Y12542017D03*
X102250049Y11042017D03*
X93273785Y11168775D03*
X93273785Y9668775D03*
D24*
X93147244Y18318164D03*
X91647244Y18318164D03*
X95052244Y18318164D03*
X96552244Y18318164D03*
D23*
X91128622Y15893164D03*
X91128622Y14393164D03*
D24*
X43760000Y18314000D03*
X45260000Y18314000D03*
X88175032Y18328114D03*
X86675032Y18328114D03*
X34797000Y11837000D03*
X33297000Y11837000D03*
X37361000Y17425000D03*
X38861000Y17425000D03*
D23*
X24612000Y16962000D03*
X24612000Y18462000D03*
X24612000Y15287000D03*
X24612000Y13787000D03*
D26*
X124217504Y15175900D03*
X124217504Y15675900D03*
X124217504Y16175900D03*
X124217504Y16675900D03*
X122417504Y16675900D03*
X122417504Y16175900D03*
X122417504Y15675900D03*
X122417504Y15175900D03*
D27*
X123317504Y16225900D03*
X123317504Y15625900D03*
D26*
X117801000Y9195000D03*
X117801000Y9695000D03*
X117801000Y10195000D03*
X117801000Y10695000D03*
X116001000Y10695000D03*
X116001000Y10195000D03*
X116001000Y9695000D03*
X116001000Y9195000D03*
D27*
X116901000Y10245000D03*
X116901000Y9645000D03*
D28*
X78970032Y17758000D03*
X77470032Y17758000D03*
X77470032Y14758000D03*
X78970032Y14758000D03*
D29*
X128895195Y11056513D03*
X128895195Y14716513D03*
X122312000Y5106000D03*
X122312000Y8766000D03*
D30*
X102107000Y17705000D03*
X101607000Y17705000D03*
X101107000Y17705000D03*
X100607000Y17705000D03*
X102107000Y14605000D03*
X101607000Y14605000D03*
X101107000Y14605000D03*
X100607000Y14605000D03*
D31*
X95573622Y14343164D03*
D32*
X93073622Y16843164D03*
X95073622Y13843164D03*
D31*
X95573622Y14743164D03*
X95573622Y15143164D03*
X95573622Y15543164D03*
X95573622Y15943164D03*
X95573622Y16343164D03*
D32*
X95073622Y16843164D03*
X94673622Y16843164D03*
X94273622Y16843164D03*
X93873622Y16843164D03*
X93473622Y16843164D03*
D31*
X92573622Y16343164D03*
X92573622Y15943164D03*
X92573622Y15543164D03*
X92573622Y15143164D03*
X92573622Y14743164D03*
X92573622Y14343164D03*
D32*
X93073622Y13843164D03*
X93473622Y13843164D03*
X93873622Y13843164D03*
X94273622Y13843164D03*
X94673622Y13843164D03*
D33*
X89598785Y9253775D03*
X90048785Y9253775D03*
X90498785Y9253775D03*
X90948785Y9253775D03*
X91398785Y9253775D03*
D34*
X91898785Y9753775D03*
X91898785Y10203775D03*
X91898785Y10653775D03*
X91898785Y11103775D03*
X91898785Y11553775D03*
D33*
X91398785Y12053775D03*
X90948785Y12053775D03*
X90498785Y12053775D03*
X90048785Y12053775D03*
X89598785Y12053775D03*
D34*
X89098785Y11553775D03*
X89098785Y11103775D03*
X89098785Y10653775D03*
X89098785Y10203775D03*
X89098785Y9753775D03*
D35*
X90098785Y10253775D03*
X90098785Y11053775D03*
X90898785Y10253775D03*
X90898785Y11053775D03*
D11*
X33766082Y5512196D03*
X35666082Y5512196D03*
X33766082Y8312196D03*
X34716082Y5512196D03*
X35666082Y8312196D03*
D36*
X108731345Y7265587D03*
X108731345Y6865587D03*
X108731345Y6465587D03*
X109931345Y6465587D03*
X109931345Y6865587D03*
X109931345Y7265587D03*
D37*
X109331345Y6865587D03*
D23*
X103389000Y17032000D03*
X103389000Y15532000D03*
D38*
X102019000Y5546000D03*
X102019000Y6196000D03*
X102019000Y6846000D03*
X102019000Y7496000D03*
X98419000Y7496000D03*
X98419000Y6846000D03*
X98419000Y6196000D03*
X98419000Y5546000D03*
D39*
X99579000Y7011000D03*
X99579000Y6031000D03*
X100859000Y7011000D03*
X100859000Y6031000D03*
M02*
