G04 #@! TF.FileFunction,Soldermask,Top*
%FSLAX46Y46*%
G04 Gerber Fmt 4.6, Leading zero omitted, Abs format (unit mm)*
G04 Created by KiCad (PCBNEW 4.0.0-rc2-1-stable) date Mardi 07 juin 2016 13:35:49*
%MOMM*%
G01*
G04 APERTURE LIST*
%ADD10C,0.100000*%
G04 APERTURE END LIST*
D10*
G36*
X4626041Y2599202D02*
X4856569Y2551881D01*
X5073510Y2460688D01*
X5268610Y2329092D01*
X5434435Y2162104D01*
X5564668Y1966090D01*
X5654342Y1748521D01*
X5699985Y1518010D01*
X5699985Y1518000D01*
X5700051Y1517666D01*
X5696298Y1248872D01*
X5696222Y1248538D01*
X5696222Y1248526D01*
X5644164Y1019390D01*
X5548444Y804401D01*
X5412792Y612101D01*
X5242366Y449808D01*
X5043673Y323713D01*
X4824265Y238610D01*
X4592511Y197746D01*
X4357230Y202674D01*
X4127383Y253209D01*
X3911737Y347422D01*
X3718489Y481733D01*
X3555014Y651017D01*
X3427535Y848825D01*
X3340903Y1067632D01*
X3298420Y1299104D01*
X3301707Y1534411D01*
X3350634Y1764598D01*
X3443343Y1980903D01*
X3576297Y2175078D01*
X3744438Y2339734D01*
X3941354Y2468592D01*
X4159551Y2556749D01*
X4390711Y2600846D01*
X4626041Y2599202D01*
X4626041Y2599202D01*
G37*
G36*
X80503440Y4576281D02*
X80503453Y4576277D01*
X80503490Y4576273D01*
X80673819Y4523547D01*
X80830664Y4438742D01*
X80968049Y4325087D01*
X81080742Y4186912D01*
X81164450Y4029479D01*
X81215986Y3858786D01*
X81233385Y3681333D01*
X81233385Y3366217D01*
X81233296Y3353461D01*
X81213421Y3176269D01*
X81159507Y3006312D01*
X81073609Y2850063D01*
X80958997Y2713475D01*
X80820039Y2601749D01*
X80662026Y2519142D01*
X80490977Y2468799D01*
X80490943Y2468796D01*
X80490930Y2468792D01*
X80313409Y2452636D01*
X80136130Y2471269D01*
X80136117Y2471273D01*
X80136080Y2471277D01*
X79965751Y2524003D01*
X79808906Y2608808D01*
X79671521Y2722463D01*
X79558828Y2860638D01*
X79475120Y3018071D01*
X79423584Y3188764D01*
X79406185Y3366217D01*
X79406185Y3681333D01*
X79406274Y3694089D01*
X79426149Y3871281D01*
X79480063Y4041238D01*
X79565961Y4197487D01*
X79680573Y4334075D01*
X79819531Y4445801D01*
X79977544Y4528408D01*
X80148593Y4578751D01*
X80148627Y4578754D01*
X80148640Y4578758D01*
X80326161Y4594914D01*
X80503440Y4576281D01*
X80503440Y4576281D01*
G37*
G36*
X83043440Y4576281D02*
X83043453Y4576277D01*
X83043490Y4576273D01*
X83213819Y4523547D01*
X83370664Y4438742D01*
X83508049Y4325087D01*
X83620742Y4186912D01*
X83704450Y4029479D01*
X83755986Y3858786D01*
X83773385Y3681333D01*
X83773385Y3366217D01*
X83773296Y3353461D01*
X83753421Y3176269D01*
X83699507Y3006312D01*
X83613609Y2850063D01*
X83498997Y2713475D01*
X83360039Y2601749D01*
X83202026Y2519142D01*
X83030977Y2468799D01*
X83030943Y2468796D01*
X83030930Y2468792D01*
X82853409Y2452636D01*
X82676130Y2471269D01*
X82676117Y2471273D01*
X82676080Y2471277D01*
X82505751Y2524003D01*
X82348906Y2608808D01*
X82211521Y2722463D01*
X82098828Y2860638D01*
X82015120Y3018071D01*
X81963584Y3188764D01*
X81946185Y3366217D01*
X81946185Y3681333D01*
X81946274Y3694089D01*
X81966149Y3871281D01*
X82020063Y4041238D01*
X82105961Y4197487D01*
X82220573Y4334075D01*
X82359531Y4445801D01*
X82517544Y4528408D01*
X82688593Y4578751D01*
X82688627Y4578754D01*
X82688640Y4578758D01*
X82866161Y4594914D01*
X83043440Y4576281D01*
X83043440Y4576281D01*
G37*
G36*
X85583440Y4576281D02*
X85583453Y4576277D01*
X85583490Y4576273D01*
X85753819Y4523547D01*
X85910664Y4438742D01*
X86048049Y4325087D01*
X86160742Y4186912D01*
X86244450Y4029479D01*
X86295986Y3858786D01*
X86313385Y3681333D01*
X86313385Y3366217D01*
X86313296Y3353461D01*
X86293421Y3176269D01*
X86239507Y3006312D01*
X86153609Y2850063D01*
X86038997Y2713475D01*
X85900039Y2601749D01*
X85742026Y2519142D01*
X85570977Y2468799D01*
X85570943Y2468796D01*
X85570930Y2468792D01*
X85393409Y2452636D01*
X85216130Y2471269D01*
X85216117Y2471273D01*
X85216080Y2471277D01*
X85045751Y2524003D01*
X84888906Y2608808D01*
X84751521Y2722463D01*
X84638828Y2860638D01*
X84555120Y3018071D01*
X84503584Y3188764D01*
X84486185Y3366217D01*
X84486185Y3681333D01*
X84486274Y3694089D01*
X84506149Y3871281D01*
X84560063Y4041238D01*
X84645961Y4197487D01*
X84760573Y4334075D01*
X84899531Y4445801D01*
X85057544Y4528408D01*
X85228593Y4578751D01*
X85228627Y4578754D01*
X85228640Y4578758D01*
X85406161Y4594914D01*
X85583440Y4576281D01*
X85583440Y4576281D01*
G37*
G36*
X88123440Y4576281D02*
X88123453Y4576277D01*
X88123490Y4576273D01*
X88293819Y4523547D01*
X88450664Y4438742D01*
X88588049Y4325087D01*
X88700742Y4186912D01*
X88784450Y4029479D01*
X88835986Y3858786D01*
X88853385Y3681333D01*
X88853385Y3366217D01*
X88853296Y3353461D01*
X88833421Y3176269D01*
X88779507Y3006312D01*
X88693609Y2850063D01*
X88578997Y2713475D01*
X88440039Y2601749D01*
X88282026Y2519142D01*
X88110977Y2468799D01*
X88110943Y2468796D01*
X88110930Y2468792D01*
X87933409Y2452636D01*
X87756130Y2471269D01*
X87756117Y2471273D01*
X87756080Y2471277D01*
X87585751Y2524003D01*
X87428906Y2608808D01*
X87291521Y2722463D01*
X87178828Y2860638D01*
X87095120Y3018071D01*
X87043584Y3188764D01*
X87026185Y3366217D01*
X87026185Y3681333D01*
X87026274Y3694089D01*
X87046149Y3871281D01*
X87100063Y4041238D01*
X87185961Y4197487D01*
X87300573Y4334075D01*
X87439531Y4445801D01*
X87597544Y4528408D01*
X87768593Y4578751D01*
X87768627Y4578754D01*
X87768640Y4578758D01*
X87946161Y4594914D01*
X88123440Y4576281D01*
X88123440Y4576281D01*
G37*
G36*
X90663440Y4576281D02*
X90663453Y4576277D01*
X90663490Y4576273D01*
X90833819Y4523547D01*
X90990664Y4438742D01*
X91128049Y4325087D01*
X91240742Y4186912D01*
X91324450Y4029479D01*
X91375986Y3858786D01*
X91393385Y3681333D01*
X91393385Y3366217D01*
X91393296Y3353461D01*
X91373421Y3176269D01*
X91319507Y3006312D01*
X91233609Y2850063D01*
X91118997Y2713475D01*
X90980039Y2601749D01*
X90822026Y2519142D01*
X90650977Y2468799D01*
X90650943Y2468796D01*
X90650930Y2468792D01*
X90473409Y2452636D01*
X90296130Y2471269D01*
X90296117Y2471273D01*
X90296080Y2471277D01*
X90125751Y2524003D01*
X89968906Y2608808D01*
X89831521Y2722463D01*
X89718828Y2860638D01*
X89635120Y3018071D01*
X89583584Y3188764D01*
X89566185Y3366217D01*
X89566185Y3681333D01*
X89566274Y3694089D01*
X89586149Y3871281D01*
X89640063Y4041238D01*
X89725961Y4197487D01*
X89840573Y4334075D01*
X89979531Y4445801D01*
X90137544Y4528408D01*
X90308593Y4578751D01*
X90308627Y4578754D01*
X90308640Y4578758D01*
X90486161Y4594914D01*
X90663440Y4576281D01*
X90663440Y4576281D01*
G37*
G36*
X93203440Y4576281D02*
X93203453Y4576277D01*
X93203490Y4576273D01*
X93373819Y4523547D01*
X93530664Y4438742D01*
X93668049Y4325087D01*
X93780742Y4186912D01*
X93864450Y4029479D01*
X93915986Y3858786D01*
X93933385Y3681333D01*
X93933385Y3366217D01*
X93933296Y3353461D01*
X93913421Y3176269D01*
X93859507Y3006312D01*
X93773609Y2850063D01*
X93658997Y2713475D01*
X93520039Y2601749D01*
X93362026Y2519142D01*
X93190977Y2468799D01*
X93190943Y2468796D01*
X93190930Y2468792D01*
X93013409Y2452636D01*
X92836130Y2471269D01*
X92836117Y2471273D01*
X92836080Y2471277D01*
X92665751Y2524003D01*
X92508906Y2608808D01*
X92371521Y2722463D01*
X92258828Y2860638D01*
X92175120Y3018071D01*
X92123584Y3188764D01*
X92106185Y3366217D01*
X92106185Y3681333D01*
X92106274Y3694089D01*
X92126149Y3871281D01*
X92180063Y4041238D01*
X92265961Y4197487D01*
X92380573Y4334075D01*
X92519531Y4445801D01*
X92677544Y4528408D01*
X92848593Y4578751D01*
X92848627Y4578754D01*
X92848640Y4578758D01*
X93026161Y4594914D01*
X93203440Y4576281D01*
X93203440Y4576281D01*
G37*
G36*
X96473385Y2457775D02*
X94646185Y2457775D01*
X94646185Y4589775D01*
X96473385Y4589775D01*
X96473385Y2457775D01*
X96473385Y2457775D01*
G37*
G36*
X61130651Y4441329D02*
X61130664Y4441325D01*
X61130701Y4441321D01*
X61251885Y4403808D01*
X61363475Y4343471D01*
X61461221Y4262609D01*
X61541399Y4164302D01*
X61600955Y4052293D01*
X61637621Y3930849D01*
X61650000Y3804597D01*
X61650000Y3195403D01*
X61649937Y3186328D01*
X61635796Y3060260D01*
X61597438Y2939341D01*
X61536324Y2828174D01*
X61454781Y2730996D01*
X61355916Y2651506D01*
X61243494Y2592733D01*
X61121798Y2556916D01*
X61121764Y2556913D01*
X61121751Y2556909D01*
X60995464Y2545416D01*
X60869349Y2558671D01*
X60869336Y2558675D01*
X60869299Y2558679D01*
X60748115Y2596192D01*
X60636525Y2656529D01*
X60538779Y2737391D01*
X60458601Y2835698D01*
X60399045Y2947707D01*
X60362379Y3069151D01*
X60350000Y3195403D01*
X60350000Y3804597D01*
X60350063Y3813672D01*
X60364204Y3939740D01*
X60402562Y4060659D01*
X60463676Y4171826D01*
X60545219Y4269004D01*
X60644084Y4348494D01*
X60756506Y4407267D01*
X60878202Y4443084D01*
X60878236Y4443087D01*
X60878249Y4443091D01*
X61004536Y4454584D01*
X61130651Y4441329D01*
X61130651Y4441329D01*
G37*
G36*
X63130651Y4441329D02*
X63130664Y4441325D01*
X63130701Y4441321D01*
X63251885Y4403808D01*
X63363475Y4343471D01*
X63461221Y4262609D01*
X63541399Y4164302D01*
X63600955Y4052293D01*
X63637621Y3930849D01*
X63650000Y3804597D01*
X63650000Y3195403D01*
X63649937Y3186328D01*
X63635796Y3060260D01*
X63597438Y2939341D01*
X63536324Y2828174D01*
X63454781Y2730996D01*
X63355916Y2651506D01*
X63243494Y2592733D01*
X63121798Y2556916D01*
X63121764Y2556913D01*
X63121751Y2556909D01*
X62995464Y2545416D01*
X62869349Y2558671D01*
X62869336Y2558675D01*
X62869299Y2558679D01*
X62748115Y2596192D01*
X62636525Y2656529D01*
X62538779Y2737391D01*
X62458601Y2835698D01*
X62399045Y2947707D01*
X62362379Y3069151D01*
X62350000Y3195403D01*
X62350000Y3804597D01*
X62350063Y3813672D01*
X62364204Y3939740D01*
X62402562Y4060659D01*
X62463676Y4171826D01*
X62545219Y4269004D01*
X62644084Y4348494D01*
X62756506Y4407267D01*
X62878202Y4443084D01*
X62878236Y4443087D01*
X62878249Y4443091D01*
X63004536Y4454584D01*
X63130651Y4441329D01*
X63130651Y4441329D01*
G37*
G36*
X65130651Y4441329D02*
X65130664Y4441325D01*
X65130701Y4441321D01*
X65251885Y4403808D01*
X65363475Y4343471D01*
X65461221Y4262609D01*
X65541399Y4164302D01*
X65600955Y4052293D01*
X65637621Y3930849D01*
X65650000Y3804597D01*
X65650000Y3195403D01*
X65649937Y3186328D01*
X65635796Y3060260D01*
X65597438Y2939341D01*
X65536324Y2828174D01*
X65454781Y2730996D01*
X65355916Y2651506D01*
X65243494Y2592733D01*
X65121798Y2556916D01*
X65121764Y2556913D01*
X65121751Y2556909D01*
X64995464Y2545416D01*
X64869349Y2558671D01*
X64869336Y2558675D01*
X64869299Y2558679D01*
X64748115Y2596192D01*
X64636525Y2656529D01*
X64538779Y2737391D01*
X64458601Y2835698D01*
X64399045Y2947707D01*
X64362379Y3069151D01*
X64350000Y3195403D01*
X64350000Y3804597D01*
X64350063Y3813672D01*
X64364204Y3939740D01*
X64402562Y4060659D01*
X64463676Y4171826D01*
X64545219Y4269004D01*
X64644084Y4348494D01*
X64756506Y4407267D01*
X64878202Y4443084D01*
X64878236Y4443087D01*
X64878249Y4443091D01*
X65004536Y4454584D01*
X65130651Y4441329D01*
X65130651Y4441329D01*
G37*
G36*
X67130651Y4441329D02*
X67130664Y4441325D01*
X67130701Y4441321D01*
X67251885Y4403808D01*
X67363475Y4343471D01*
X67461221Y4262609D01*
X67541399Y4164302D01*
X67600955Y4052293D01*
X67637621Y3930849D01*
X67650000Y3804597D01*
X67650000Y3195403D01*
X67649937Y3186328D01*
X67635796Y3060260D01*
X67597438Y2939341D01*
X67536324Y2828174D01*
X67454781Y2730996D01*
X67355916Y2651506D01*
X67243494Y2592733D01*
X67121798Y2556916D01*
X67121764Y2556913D01*
X67121751Y2556909D01*
X66995464Y2545416D01*
X66869349Y2558671D01*
X66869336Y2558675D01*
X66869299Y2558679D01*
X66748115Y2596192D01*
X66636525Y2656529D01*
X66538779Y2737391D01*
X66458601Y2835698D01*
X66399045Y2947707D01*
X66362379Y3069151D01*
X66350000Y3195403D01*
X66350000Y3804597D01*
X66350063Y3813672D01*
X66364204Y3939740D01*
X66402562Y4060659D01*
X66463676Y4171826D01*
X66545219Y4269004D01*
X66644084Y4348494D01*
X66756506Y4407267D01*
X66878202Y4443084D01*
X66878236Y4443087D01*
X66878249Y4443091D01*
X67004536Y4454584D01*
X67130651Y4441329D01*
X67130651Y4441329D01*
G37*
G36*
X69130651Y4441329D02*
X69130664Y4441325D01*
X69130701Y4441321D01*
X69251885Y4403808D01*
X69363475Y4343471D01*
X69461221Y4262609D01*
X69541399Y4164302D01*
X69600955Y4052293D01*
X69637621Y3930849D01*
X69650000Y3804597D01*
X69650000Y3195403D01*
X69649937Y3186328D01*
X69635796Y3060260D01*
X69597438Y2939341D01*
X69536324Y2828174D01*
X69454781Y2730996D01*
X69355916Y2651506D01*
X69243494Y2592733D01*
X69121798Y2556916D01*
X69121764Y2556913D01*
X69121751Y2556909D01*
X68995464Y2545416D01*
X68869349Y2558671D01*
X68869336Y2558675D01*
X68869299Y2558679D01*
X68748115Y2596192D01*
X68636525Y2656529D01*
X68538779Y2737391D01*
X68458601Y2835698D01*
X68399045Y2947707D01*
X68362379Y3069151D01*
X68350000Y3195403D01*
X68350000Y3804597D01*
X68350063Y3813672D01*
X68364204Y3939740D01*
X68402562Y4060659D01*
X68463676Y4171826D01*
X68545219Y4269004D01*
X68644084Y4348494D01*
X68756506Y4407267D01*
X68878202Y4443084D01*
X68878236Y4443087D01*
X68878249Y4443091D01*
X69004536Y4454584D01*
X69130651Y4441329D01*
X69130651Y4441329D01*
G37*
G36*
X71130651Y4441329D02*
X71130664Y4441325D01*
X71130701Y4441321D01*
X71251885Y4403808D01*
X71363475Y4343471D01*
X71461221Y4262609D01*
X71541399Y4164302D01*
X71600955Y4052293D01*
X71637621Y3930849D01*
X71650000Y3804597D01*
X71650000Y3195403D01*
X71649937Y3186328D01*
X71635796Y3060260D01*
X71597438Y2939341D01*
X71536324Y2828174D01*
X71454781Y2730996D01*
X71355916Y2651506D01*
X71243494Y2592733D01*
X71121798Y2556916D01*
X71121764Y2556913D01*
X71121751Y2556909D01*
X70995464Y2545416D01*
X70869349Y2558671D01*
X70869336Y2558675D01*
X70869299Y2558679D01*
X70748115Y2596192D01*
X70636525Y2656529D01*
X70538779Y2737391D01*
X70458601Y2835698D01*
X70399045Y2947707D01*
X70362379Y3069151D01*
X70350000Y3195403D01*
X70350000Y3804597D01*
X70350063Y3813672D01*
X70364204Y3939740D01*
X70402562Y4060659D01*
X70463676Y4171826D01*
X70545219Y4269004D01*
X70644084Y4348494D01*
X70756506Y4407267D01*
X70878202Y4443084D01*
X70878236Y4443087D01*
X70878249Y4443091D01*
X71004536Y4454584D01*
X71130651Y4441329D01*
X71130651Y4441329D01*
G37*
G36*
X73130651Y4441329D02*
X73130664Y4441325D01*
X73130701Y4441321D01*
X73251885Y4403808D01*
X73363475Y4343471D01*
X73461221Y4262609D01*
X73541399Y4164302D01*
X73600955Y4052293D01*
X73637621Y3930849D01*
X73650000Y3804597D01*
X73650000Y3195403D01*
X73649937Y3186328D01*
X73635796Y3060260D01*
X73597438Y2939341D01*
X73536324Y2828174D01*
X73454781Y2730996D01*
X73355916Y2651506D01*
X73243494Y2592733D01*
X73121798Y2556916D01*
X73121764Y2556913D01*
X73121751Y2556909D01*
X72995464Y2545416D01*
X72869349Y2558671D01*
X72869336Y2558675D01*
X72869299Y2558679D01*
X72748115Y2596192D01*
X72636525Y2656529D01*
X72538779Y2737391D01*
X72458601Y2835698D01*
X72399045Y2947707D01*
X72362379Y3069151D01*
X72350000Y3195403D01*
X72350000Y3804597D01*
X72350063Y3813672D01*
X72364204Y3939740D01*
X72402562Y4060659D01*
X72463676Y4171826D01*
X72545219Y4269004D01*
X72644084Y4348494D01*
X72756506Y4407267D01*
X72878202Y4443084D01*
X72878236Y4443087D01*
X72878249Y4443091D01*
X73004536Y4454584D01*
X73130651Y4441329D01*
X73130651Y4441329D01*
G37*
G36*
X59650000Y2550000D02*
X58350000Y2550000D01*
X58350000Y4450000D01*
X59650000Y4450000D01*
X59650000Y2550000D01*
X59650000Y2550000D01*
G37*
G36*
X4578775Y4249502D02*
X4722856Y4219927D01*
X4858444Y4162931D01*
X4980382Y4080683D01*
X5084023Y3976315D01*
X5165419Y3853806D01*
X5221464Y3717827D01*
X5249966Y3573885D01*
X5249966Y3573875D01*
X5250032Y3573541D01*
X5247686Y3405545D01*
X5247610Y3405211D01*
X5247610Y3405199D01*
X5215104Y3262119D01*
X5155279Y3127750D01*
X5070496Y3007563D01*
X4963978Y2906128D01*
X4839796Y2827320D01*
X4702666Y2774131D01*
X4557819Y2748590D01*
X4410769Y2751670D01*
X4267111Y2783255D01*
X4132338Y2842136D01*
X4011554Y2926083D01*
X3909383Y3031885D01*
X3829709Y3155514D01*
X3775564Y3292269D01*
X3749012Y3436941D01*
X3751066Y3584008D01*
X3781645Y3727873D01*
X3839587Y3863063D01*
X3922687Y3984426D01*
X4027773Y4087335D01*
X4150844Y4167870D01*
X4287221Y4222970D01*
X4431693Y4250530D01*
X4578775Y4249502D01*
X4578775Y4249502D01*
G37*
G36*
X16026259Y3949836D02*
X16074287Y3939977D01*
X16119481Y3920979D01*
X16160131Y3893561D01*
X16194677Y3858773D01*
X16221806Y3817938D01*
X16240490Y3772609D01*
X16249945Y3724859D01*
X16249945Y3724848D01*
X16250011Y3724514D01*
X16249229Y3668515D01*
X16249153Y3668181D01*
X16249153Y3668173D01*
X16238369Y3620702D01*
X16218428Y3575916D01*
X16190166Y3535851D01*
X16154663Y3502044D01*
X16113265Y3475771D01*
X16067555Y3458042D01*
X16019274Y3449528D01*
X15970257Y3450555D01*
X15922370Y3461083D01*
X15877443Y3480712D01*
X15837185Y3508692D01*
X15803125Y3543962D01*
X15776569Y3585169D01*
X15758518Y3630760D01*
X15749668Y3678977D01*
X15750354Y3728003D01*
X15760546Y3775957D01*
X15779862Y3821023D01*
X15807560Y3861476D01*
X15842591Y3895781D01*
X15883614Y3922626D01*
X15929073Y3940992D01*
X15977230Y3950178D01*
X16026259Y3949836D01*
X16026259Y3949836D01*
G37*
G36*
X139267837Y9048303D02*
X139757706Y8947747D01*
X140218709Y8753959D01*
X140633296Y8474317D01*
X140985672Y8119472D01*
X141262413Y7702945D01*
X141452978Y7240600D01*
X141550043Y6750384D01*
X141550043Y6750374D01*
X141550109Y6750040D01*
X141542133Y6178854D01*
X141542057Y6178520D01*
X141542057Y6178508D01*
X141431344Y5691202D01*
X141227942Y5234353D01*
X140939680Y4825715D01*
X140577531Y4480846D01*
X140155303Y4212892D01*
X139689064Y4032049D01*
X139196583Y3945212D01*
X138696611Y3955684D01*
X138208189Y4063071D01*
X137749938Y4263276D01*
X137339297Y4548679D01*
X136991909Y4908410D01*
X136721014Y5328757D01*
X136536921Y5793721D01*
X136446646Y6285592D01*
X136453629Y6785623D01*
X136557600Y7274773D01*
X136754605Y7734417D01*
X137037134Y8147040D01*
X137394429Y8496931D01*
X137812878Y8770756D01*
X138276545Y8958090D01*
X138767765Y9051795D01*
X139267837Y9048303D01*
X139267837Y9048303D01*
G37*
G36*
X76105034Y5999336D02*
X76297141Y5959902D01*
X76477925Y5883907D01*
X76640509Y5774244D01*
X76778697Y5635087D01*
X76887223Y5471744D01*
X76961954Y5290433D01*
X76999978Y5098399D01*
X76999978Y5098384D01*
X77000043Y5098055D01*
X76996916Y4874060D01*
X76996839Y4873722D01*
X76996839Y4873714D01*
X76953471Y4682825D01*
X76873705Y4503667D01*
X76760661Y4343417D01*
X76618639Y4208172D01*
X76453061Y4103094D01*
X76270221Y4032173D01*
X76077093Y3998121D01*
X75881025Y4002227D01*
X75689485Y4044340D01*
X75509779Y4122853D01*
X75348742Y4234775D01*
X75212511Y4375847D01*
X75106279Y4540687D01*
X75034085Y4723026D01*
X74998682Y4915920D01*
X75001421Y5112010D01*
X75042194Y5303832D01*
X75119451Y5484086D01*
X75230247Y5645899D01*
X75370364Y5783113D01*
X75534461Y5890495D01*
X75716292Y5963959D01*
X75908925Y6000706D01*
X76105034Y5999336D01*
X76105034Y5999336D01*
G37*
G36*
X124412000Y4131000D02*
X120212000Y4131000D01*
X120212000Y6081000D01*
X124412000Y6081000D01*
X124412000Y4131000D01*
X124412000Y4131000D01*
G37*
G36*
X46600000Y4225000D02*
X46000000Y4225000D01*
X46000000Y5225000D01*
X46600000Y5225000D01*
X46600000Y4225000D01*
X46600000Y4225000D01*
G37*
G36*
X48100000Y4225000D02*
X47500000Y4225000D01*
X47500000Y5225000D01*
X48100000Y5225000D01*
X48100000Y4225000D01*
X48100000Y4225000D01*
G37*
G36*
X49738000Y4225000D02*
X49138000Y4225000D01*
X49138000Y5225000D01*
X49738000Y5225000D01*
X49738000Y4225000D01*
X49738000Y4225000D01*
G37*
G36*
X51238000Y4225000D02*
X50638000Y4225000D01*
X50638000Y5225000D01*
X51238000Y5225000D01*
X51238000Y4225000D01*
X51238000Y4225000D01*
G37*
G36*
X16026259Y4749836D02*
X16074287Y4739977D01*
X16119481Y4720979D01*
X16160131Y4693561D01*
X16194677Y4658773D01*
X16221806Y4617938D01*
X16240490Y4572609D01*
X16249945Y4524859D01*
X16249945Y4524848D01*
X16250011Y4524514D01*
X16249229Y4468515D01*
X16249153Y4468181D01*
X16249153Y4468173D01*
X16238369Y4420702D01*
X16218428Y4375916D01*
X16190166Y4335851D01*
X16154663Y4302044D01*
X16113265Y4275771D01*
X16067555Y4258042D01*
X16019274Y4249528D01*
X15970257Y4250555D01*
X15922370Y4261083D01*
X15877443Y4280712D01*
X15837185Y4308692D01*
X15803125Y4343962D01*
X15776569Y4385169D01*
X15758518Y4430760D01*
X15749668Y4478977D01*
X15750354Y4528003D01*
X15760546Y4575957D01*
X15779862Y4621023D01*
X15807560Y4661476D01*
X15842591Y4695781D01*
X15883614Y4722626D01*
X15929073Y4740992D01*
X15977230Y4750178D01*
X16026259Y4749836D01*
X16026259Y4749836D01*
G37*
G36*
X109017345Y4356587D02*
X108117345Y4356587D01*
X108117345Y5206587D01*
X109017345Y5206587D01*
X109017345Y4356587D01*
X109017345Y4356587D01*
G37*
G36*
X110517345Y4356587D02*
X109617345Y4356587D01*
X109617345Y5206587D01*
X110517345Y5206587D01*
X110517345Y4356587D01*
X110517345Y4356587D01*
G37*
G36*
X119290000Y4431000D02*
X118190000Y4431000D01*
X118190000Y5781000D01*
X119290000Y5781000D01*
X119290000Y4431000D01*
X119290000Y4431000D01*
G37*
G36*
X117290000Y4431000D02*
X116190000Y4431000D01*
X116190000Y5781000D01*
X117290000Y5781000D01*
X117290000Y4431000D01*
X117290000Y4431000D01*
G37*
G36*
X4578775Y6249502D02*
X4722856Y6219927D01*
X4858444Y6162931D01*
X4980382Y6080683D01*
X5084023Y5976315D01*
X5165419Y5853806D01*
X5221464Y5717827D01*
X5249966Y5573885D01*
X5249966Y5573875D01*
X5250032Y5573541D01*
X5247686Y5405545D01*
X5247610Y5405211D01*
X5247610Y5405199D01*
X5215104Y5262119D01*
X5155279Y5127750D01*
X5070496Y5007563D01*
X4963978Y4906128D01*
X4839796Y4827320D01*
X4702666Y4774131D01*
X4557819Y4748590D01*
X4410769Y4751670D01*
X4267111Y4783255D01*
X4132338Y4842136D01*
X4011554Y4926083D01*
X3909383Y5031885D01*
X3829709Y5155514D01*
X3775564Y5292269D01*
X3749012Y5436941D01*
X3751066Y5584008D01*
X3781645Y5727873D01*
X3839587Y5863063D01*
X3922687Y5984426D01*
X4027773Y6087335D01*
X4150844Y6167870D01*
X4287221Y6222970D01*
X4431693Y6250530D01*
X4578775Y6249502D01*
X4578775Y6249502D01*
G37*
G36*
X36016082Y4912196D02*
X35316082Y4912196D01*
X35316082Y6112196D01*
X36016082Y6112196D01*
X36016082Y4912196D01*
X36016082Y4912196D01*
G37*
G36*
X35066082Y4912196D02*
X34366082Y4912196D01*
X34366082Y6112196D01*
X35066082Y6112196D01*
X35066082Y4912196D01*
X35066082Y4912196D01*
G37*
G36*
X34116082Y4912196D02*
X33416082Y4912196D01*
X33416082Y6112196D01*
X34116082Y6112196D01*
X34116082Y4912196D01*
X34116082Y4912196D01*
G37*
G36*
X16026259Y5549836D02*
X16074287Y5539977D01*
X16119481Y5520979D01*
X16160131Y5493561D01*
X16194677Y5458773D01*
X16221806Y5417938D01*
X16240490Y5372609D01*
X16249945Y5324859D01*
X16249945Y5324848D01*
X16250011Y5324514D01*
X16249229Y5268515D01*
X16249153Y5268181D01*
X16249153Y5268173D01*
X16238369Y5220702D01*
X16218428Y5175916D01*
X16190166Y5135851D01*
X16154663Y5102044D01*
X16113265Y5075771D01*
X16067555Y5058042D01*
X16019274Y5049528D01*
X15970257Y5050555D01*
X15922370Y5061083D01*
X15877443Y5080712D01*
X15837185Y5108692D01*
X15803125Y5143962D01*
X15776569Y5185169D01*
X15758518Y5230760D01*
X15749668Y5278977D01*
X15750354Y5328003D01*
X15760546Y5375957D01*
X15779862Y5421023D01*
X15807560Y5461476D01*
X15842591Y5495781D01*
X15883614Y5522626D01*
X15929073Y5540992D01*
X15977230Y5550178D01*
X16026259Y5549836D01*
X16026259Y5549836D01*
G37*
G36*
X131960700Y5204570D02*
X129361340Y5204570D01*
X129361340Y7105430D01*
X131960700Y7105430D01*
X131960700Y5204570D01*
X131960700Y5204570D01*
G37*
G36*
X135958660Y5204570D02*
X133359300Y5204570D01*
X133359300Y7105430D01*
X135958660Y7105430D01*
X135958660Y5204570D01*
X135958660Y5204570D01*
G37*
G36*
X38251082Y5232196D02*
X36901082Y5232196D01*
X36901082Y6332196D01*
X38251082Y6332196D01*
X38251082Y5232196D01*
X38251082Y5232196D01*
G37*
G36*
X98819000Y7601000D02*
X98820980Y7587070D01*
X98826761Y7574244D01*
X98835888Y7563536D01*
X98847636Y7555794D01*
X98861076Y7551632D01*
X98869000Y7551000D01*
X101569000Y7551000D01*
X101582930Y7552980D01*
X101595756Y7558761D01*
X101606464Y7567888D01*
X101614206Y7579636D01*
X101618368Y7593076D01*
X101619000Y7601000D01*
X101619000Y7721000D01*
X102419000Y7721000D01*
X102419000Y7271000D01*
X101599000Y7271000D01*
X101585070Y7269020D01*
X101572244Y7263239D01*
X101561536Y7254112D01*
X101553794Y7242364D01*
X101549632Y7228924D01*
X101549000Y7221000D01*
X101549000Y7121000D01*
X101550980Y7107070D01*
X101556761Y7094244D01*
X101565888Y7083536D01*
X101577636Y7075794D01*
X101591076Y7071632D01*
X101599000Y7071000D01*
X102419000Y7071000D01*
X102419000Y6621000D01*
X101599000Y6621000D01*
X101585070Y6619020D01*
X101572244Y6613239D01*
X101561536Y6604112D01*
X101553794Y6592364D01*
X101549632Y6578924D01*
X101549000Y6571000D01*
X101549000Y6471000D01*
X101550980Y6457070D01*
X101556761Y6444244D01*
X101565888Y6433536D01*
X101577636Y6425794D01*
X101591076Y6421632D01*
X101599000Y6421000D01*
X102419000Y6421000D01*
X102419000Y5971000D01*
X101599000Y5971000D01*
X101585070Y5969020D01*
X101572244Y5963239D01*
X101561536Y5954112D01*
X101553794Y5942364D01*
X101549632Y5928924D01*
X101549000Y5921000D01*
X101549000Y5821000D01*
X101550980Y5807070D01*
X101556761Y5794244D01*
X101565888Y5783536D01*
X101577636Y5775794D01*
X101591076Y5771632D01*
X101599000Y5771000D01*
X102419000Y5771000D01*
X102419000Y5321000D01*
X101619000Y5321000D01*
X101619000Y5441000D01*
X101617020Y5454930D01*
X101611239Y5467756D01*
X101602112Y5478464D01*
X101590364Y5486206D01*
X101576924Y5490368D01*
X101569000Y5491000D01*
X98869000Y5491000D01*
X98855070Y5489020D01*
X98842244Y5483239D01*
X98831536Y5474112D01*
X98823794Y5462364D01*
X98819632Y5448924D01*
X98819000Y5441000D01*
X98819000Y5321000D01*
X98019000Y5321000D01*
X98019000Y5771000D01*
X98839000Y5771000D01*
X98852930Y5772980D01*
X98865756Y5778761D01*
X98876464Y5787888D01*
X98884206Y5799636D01*
X98888368Y5813076D01*
X98889000Y5821000D01*
X98889000Y5921000D01*
X98887020Y5934930D01*
X98881239Y5947756D01*
X98872112Y5958464D01*
X98860364Y5966206D01*
X98846924Y5970368D01*
X98839000Y5971000D01*
X98019000Y5971000D01*
X98019000Y6421000D01*
X98839000Y6421000D01*
X98852930Y6422980D01*
X98865756Y6428761D01*
X98876464Y6437888D01*
X98884206Y6449636D01*
X98888368Y6463076D01*
X98889000Y6471000D01*
X98889000Y6571000D01*
X98887020Y6584930D01*
X98881239Y6597756D01*
X98872112Y6608464D01*
X98860364Y6616206D01*
X98846924Y6620368D01*
X98839000Y6621000D01*
X98019000Y6621000D01*
X98019000Y7071000D01*
X98839000Y7071000D01*
X98852930Y7072980D01*
X98865756Y7078761D01*
X98876464Y7087888D01*
X98884206Y7099636D01*
X98888368Y7113076D01*
X98889000Y7121000D01*
X98889000Y7221000D01*
X98887020Y7234930D01*
X98881239Y7247756D01*
X98872112Y7258464D01*
X98860364Y7266206D01*
X98846924Y7270368D01*
X98839000Y7271000D01*
X98019000Y7271000D01*
X98019000Y7721000D01*
X98819000Y7721000D01*
X98819000Y7601000D01*
X98819000Y7601000D01*
G37*
G36*
X104195000Y5328400D02*
X103345000Y5328400D01*
X103345000Y6228400D01*
X104195000Y6228400D01*
X104195000Y5328400D01*
X104195000Y5328400D01*
G37*
G36*
X32309862Y5584116D02*
X31412302Y5584116D01*
X31412302Y6481676D01*
X32309862Y6481676D01*
X32309862Y5584116D01*
X32309862Y5584116D01*
G37*
G36*
X107444345Y5625587D02*
X106594345Y5625587D01*
X106594345Y6525587D01*
X107444345Y6525587D01*
X107444345Y5625587D01*
X107444345Y5625587D01*
G37*
G36*
X112016345Y5625587D02*
X111166345Y5625587D01*
X111166345Y6525587D01*
X112016345Y6525587D01*
X112016345Y5625587D01*
X112016345Y5625587D01*
G37*
G36*
X96059785Y5673775D02*
X95059785Y5673775D01*
X95059785Y6273775D01*
X96059785Y6273775D01*
X96059785Y5673775D01*
X96059785Y5673775D01*
G37*
G36*
X93519785Y5673775D02*
X92519785Y5673775D01*
X92519785Y6273775D01*
X93519785Y6273775D01*
X93519785Y5673775D01*
X93519785Y5673775D01*
G37*
G36*
X90979785Y5673775D02*
X89979785Y5673775D01*
X89979785Y6273775D01*
X90979785Y6273775D01*
X90979785Y5673775D01*
X90979785Y5673775D01*
G37*
G36*
X88439785Y5673775D02*
X87439785Y5673775D01*
X87439785Y6273775D01*
X88439785Y6273775D01*
X88439785Y5673775D01*
X88439785Y5673775D01*
G37*
G36*
X85899785Y5673775D02*
X84899785Y5673775D01*
X84899785Y6273775D01*
X85899785Y6273775D01*
X85899785Y5673775D01*
X85899785Y5673775D01*
G37*
G36*
X83359785Y5673775D02*
X82359785Y5673775D01*
X82359785Y6273775D01*
X83359785Y6273775D01*
X83359785Y5673775D01*
X83359785Y5673775D01*
G37*
G36*
X80819785Y5673775D02*
X79819785Y5673775D01*
X79819785Y6273775D01*
X80819785Y6273775D01*
X80819785Y5673775D01*
X80819785Y5673775D01*
G37*
G36*
X14209027Y7288469D02*
X14362713Y7256922D01*
X14507340Y7196126D01*
X14637407Y7108395D01*
X14747958Y6997069D01*
X14834779Y6866395D01*
X14894563Y6721347D01*
X14924969Y6567788D01*
X14924969Y6567773D01*
X14925034Y6567444D01*
X14922532Y6388248D01*
X14922456Y6387914D01*
X14922456Y6387903D01*
X14887776Y6235259D01*
X14823964Y6091934D01*
X14733529Y5963734D01*
X14619910Y5855537D01*
X14487449Y5771474D01*
X14341177Y5714738D01*
X14186675Y5687496D01*
X14029821Y5690781D01*
X13876588Y5724472D01*
X13732825Y5787280D01*
X13603991Y5876822D01*
X13495008Y5989678D01*
X13410023Y6121549D01*
X13352268Y6267421D01*
X13323946Y6421737D01*
X13326137Y6578609D01*
X13358754Y6732064D01*
X13420561Y6876269D01*
X13509197Y7005719D01*
X13621292Y7115491D01*
X13752567Y7201395D01*
X13898035Y7260168D01*
X14052140Y7289565D01*
X14209027Y7288469D01*
X14209027Y7288469D01*
G37*
G36*
X78235000Y5695000D02*
X77235000Y5695000D01*
X77235000Y6295000D01*
X78235000Y6295000D01*
X78235000Y5695000D01*
X78235000Y5695000D01*
G37*
G36*
X30456082Y5732196D02*
X29456082Y5732196D01*
X29456082Y6332196D01*
X30456082Y6332196D01*
X30456082Y5732196D01*
X30456082Y5732196D01*
G37*
G36*
X17157027Y7382469D02*
X17310713Y7350922D01*
X17455340Y7290126D01*
X17585407Y7202395D01*
X17695958Y7091069D01*
X17782779Y6960395D01*
X17842563Y6815347D01*
X17872969Y6661788D01*
X17872969Y6661773D01*
X17873034Y6661444D01*
X17870532Y6482248D01*
X17870456Y6481914D01*
X17870456Y6481903D01*
X17835776Y6329259D01*
X17771964Y6185934D01*
X17681529Y6057734D01*
X17567910Y5949537D01*
X17435449Y5865474D01*
X17289177Y5808738D01*
X17134675Y5781496D01*
X16977821Y5784781D01*
X16824588Y5818472D01*
X16680825Y5881280D01*
X16551991Y5970822D01*
X16443008Y6083678D01*
X16358023Y6215549D01*
X16300268Y6361421D01*
X16271946Y6515737D01*
X16274136Y6672604D01*
X16278948Y6695242D01*
X16279907Y6709279D01*
X16276918Y6723027D01*
X16270217Y6735399D01*
X16260335Y6745414D01*
X16248054Y6752279D01*
X16234347Y6755451D01*
X16220299Y6754679D01*
X16207021Y6750023D01*
X16195567Y6741853D01*
X16191404Y6737030D01*
X16154663Y6702044D01*
X16113265Y6675771D01*
X16067555Y6658042D01*
X16019274Y6649528D01*
X15970257Y6650555D01*
X15922370Y6661083D01*
X15877443Y6680712D01*
X15837185Y6708692D01*
X15803125Y6743962D01*
X15776569Y6785169D01*
X15758518Y6830760D01*
X15749668Y6878977D01*
X15750354Y6928003D01*
X15760546Y6975957D01*
X15779862Y7021023D01*
X15807560Y7061476D01*
X15842591Y7095781D01*
X15883614Y7122626D01*
X15929073Y7140992D01*
X15977230Y7150178D01*
X16026259Y7149836D01*
X16074287Y7139977D01*
X16119481Y7120979D01*
X16160131Y7093561D01*
X16194677Y7058773D01*
X16221806Y7017938D01*
X16240490Y6972609D01*
X16249903Y6925069D01*
X16254551Y6911789D01*
X16262714Y6900329D01*
X16273746Y6891598D01*
X16286774Y6886285D01*
X16300767Y6884813D01*
X16314615Y6887297D01*
X16327223Y6893541D01*
X16337593Y6903050D01*
X16344908Y6915083D01*
X16368561Y6970269D01*
X16457197Y7099719D01*
X16569292Y7209491D01*
X16700567Y7295395D01*
X16846035Y7354168D01*
X17000140Y7383565D01*
X17157027Y7382469D01*
X17157027Y7382469D01*
G37*
G36*
X16026259Y6349836D02*
X16074287Y6339977D01*
X16119481Y6320979D01*
X16160131Y6293561D01*
X16194677Y6258773D01*
X16221806Y6217938D01*
X16240490Y6172609D01*
X16249945Y6124859D01*
X16249945Y6124848D01*
X16250011Y6124514D01*
X16249229Y6068515D01*
X16249153Y6068181D01*
X16249153Y6068173D01*
X16238369Y6020702D01*
X16218428Y5975916D01*
X16190166Y5935851D01*
X16154663Y5902044D01*
X16113265Y5875771D01*
X16067555Y5858042D01*
X16019274Y5849528D01*
X15970257Y5850555D01*
X15922370Y5861083D01*
X15877443Y5880712D01*
X15837185Y5908692D01*
X15803125Y5943962D01*
X15776569Y5985169D01*
X15758518Y6030760D01*
X15749668Y6078977D01*
X15750354Y6128003D01*
X15760546Y6175957D01*
X15779862Y6221023D01*
X15807560Y6261476D01*
X15842591Y6295781D01*
X15883614Y6322626D01*
X15929073Y6340992D01*
X15977230Y6350178D01*
X16026259Y6349836D01*
X16026259Y6349836D01*
G37*
G36*
X46650000Y6166000D02*
X45950000Y6166000D01*
X45950000Y7766000D01*
X46650000Y7766000D01*
X46650000Y6166000D01*
X46650000Y6166000D01*
G37*
G36*
X50460000Y6166000D02*
X49760000Y6166000D01*
X49760000Y7766000D01*
X50460000Y7766000D01*
X50460000Y6166000D01*
X50460000Y6166000D01*
G37*
G36*
X45380000Y6166000D02*
X44680000Y6166000D01*
X44680000Y7766000D01*
X45380000Y7766000D01*
X45380000Y6166000D01*
X45380000Y6166000D01*
G37*
G36*
X44110000Y6166000D02*
X43410000Y6166000D01*
X43410000Y7766000D01*
X44110000Y7766000D01*
X44110000Y6166000D01*
X44110000Y6166000D01*
G37*
G36*
X42840000Y6166000D02*
X42140000Y6166000D01*
X42140000Y7766000D01*
X42840000Y7766000D01*
X42840000Y6166000D01*
X42840000Y6166000D01*
G37*
G36*
X41570000Y6166000D02*
X40870000Y6166000D01*
X40870000Y7766000D01*
X41570000Y7766000D01*
X41570000Y6166000D01*
X41570000Y6166000D01*
G37*
G36*
X49190000Y6166000D02*
X48490000Y6166000D01*
X48490000Y7766000D01*
X49190000Y7766000D01*
X49190000Y6166000D01*
X49190000Y6166000D01*
G37*
G36*
X47920000Y6166000D02*
X47220000Y6166000D01*
X47220000Y7766000D01*
X47920000Y7766000D01*
X47920000Y6166000D01*
X47920000Y6166000D01*
G37*
G36*
X109048233Y7398123D02*
X109059981Y7390381D01*
X109073421Y7386219D01*
X109081345Y7385587D01*
X109581345Y7385587D01*
X109595275Y7387567D01*
X109608101Y7393348D01*
X109618809Y7402475D01*
X109620860Y7405587D01*
X110231345Y7405587D01*
X110231345Y7125587D01*
X109581345Y7125587D01*
X109567415Y7123607D01*
X109554589Y7117826D01*
X109543881Y7108699D01*
X109536139Y7096951D01*
X109531977Y7083511D01*
X109531345Y7075587D01*
X109531345Y7055587D01*
X109533325Y7041657D01*
X109539106Y7028831D01*
X109548233Y7018123D01*
X109559981Y7010381D01*
X109573421Y7006219D01*
X109581345Y7005587D01*
X110231345Y7005587D01*
X110231345Y6725587D01*
X109581345Y6725587D01*
X109567415Y6723607D01*
X109554589Y6717826D01*
X109543881Y6708699D01*
X109536139Y6696951D01*
X109531977Y6683511D01*
X109531345Y6675587D01*
X109531345Y6655587D01*
X109533325Y6641657D01*
X109539106Y6628831D01*
X109548233Y6618123D01*
X109559981Y6610381D01*
X109573421Y6606219D01*
X109581345Y6605587D01*
X110231345Y6605587D01*
X110231345Y6325587D01*
X109620819Y6325587D01*
X109614457Y6333051D01*
X109602709Y6340793D01*
X109589269Y6344955D01*
X109581345Y6345587D01*
X109081345Y6345587D01*
X109067415Y6343607D01*
X109054589Y6337826D01*
X109043881Y6328699D01*
X109041830Y6325587D01*
X108431345Y6325587D01*
X108431345Y6605587D01*
X109081345Y6605587D01*
X109095275Y6607567D01*
X109108101Y6613348D01*
X109118809Y6622475D01*
X109126551Y6634223D01*
X109130713Y6647663D01*
X109131345Y6655587D01*
X109131345Y6675587D01*
X109129365Y6689517D01*
X109123584Y6702343D01*
X109114457Y6713051D01*
X109102709Y6720793D01*
X109089269Y6724955D01*
X109081345Y6725587D01*
X108431345Y6725587D01*
X108431345Y7005587D01*
X109081345Y7005587D01*
X109095275Y7007567D01*
X109108101Y7013348D01*
X109118809Y7022475D01*
X109126551Y7034223D01*
X109130713Y7047663D01*
X109131345Y7055587D01*
X109131345Y7075587D01*
X109129365Y7089517D01*
X109123584Y7102343D01*
X109114457Y7113051D01*
X109102709Y7120793D01*
X109089269Y7124955D01*
X109081345Y7125587D01*
X108431345Y7125587D01*
X108431345Y7405587D01*
X109041871Y7405587D01*
X109048233Y7398123D01*
X109048233Y7398123D01*
G37*
G36*
X4578775Y8249502D02*
X4722856Y8219927D01*
X4858444Y8162931D01*
X4980382Y8080683D01*
X5084023Y7976315D01*
X5165419Y7853806D01*
X5221464Y7717827D01*
X5249966Y7573885D01*
X5249966Y7573875D01*
X5250032Y7573541D01*
X5247686Y7405545D01*
X5247610Y7405211D01*
X5247610Y7405199D01*
X5215104Y7262119D01*
X5155279Y7127750D01*
X5070496Y7007563D01*
X4963978Y6906128D01*
X4839796Y6827320D01*
X4702666Y6774131D01*
X4557819Y6748590D01*
X4410769Y6751670D01*
X4267111Y6783255D01*
X4132338Y6842136D01*
X4011554Y6926083D01*
X3909383Y7031885D01*
X3829709Y7155514D01*
X3775564Y7292269D01*
X3749012Y7436941D01*
X3751066Y7584008D01*
X3781645Y7727873D01*
X3839587Y7863063D01*
X3922687Y7984426D01*
X4027773Y8087335D01*
X4150844Y8167870D01*
X4287221Y8222970D01*
X4431693Y8250530D01*
X4578775Y8249502D01*
X4578775Y8249502D01*
G37*
G36*
X115258000Y6750000D02*
X114158000Y6750000D01*
X114158000Y8100000D01*
X115258000Y8100000D01*
X115258000Y6750000D01*
X115258000Y6750000D01*
G37*
G36*
X117258000Y6750000D02*
X116158000Y6750000D01*
X116158000Y8100000D01*
X117258000Y8100000D01*
X117258000Y6750000D01*
X117258000Y6750000D01*
G37*
G36*
X104195000Y6828400D02*
X103345000Y6828400D01*
X103345000Y7728400D01*
X104195000Y7728400D01*
X104195000Y6828400D01*
X104195000Y6828400D01*
G37*
G36*
X32309862Y7082716D02*
X31412302Y7082716D01*
X31412302Y7980276D01*
X32309862Y7980276D01*
X32309862Y7082716D01*
X32309862Y7082716D01*
G37*
G36*
X107444345Y7125587D02*
X106594345Y7125587D01*
X106594345Y8025587D01*
X107444345Y8025587D01*
X107444345Y7125587D01*
X107444345Y7125587D01*
G37*
G36*
X112016345Y7125587D02*
X111166345Y7125587D01*
X111166345Y8025587D01*
X112016345Y8025587D01*
X112016345Y7125587D01*
X112016345Y7125587D01*
G37*
G36*
X80819785Y7173775D02*
X79819785Y7173775D01*
X79819785Y7773775D01*
X80819785Y7773775D01*
X80819785Y7173775D01*
X80819785Y7173775D01*
G37*
G36*
X83359785Y7173775D02*
X82359785Y7173775D01*
X82359785Y7773775D01*
X83359785Y7773775D01*
X83359785Y7173775D01*
X83359785Y7173775D01*
G37*
G36*
X88439785Y7173775D02*
X87439785Y7173775D01*
X87439785Y7773775D01*
X88439785Y7773775D01*
X88439785Y7173775D01*
X88439785Y7173775D01*
G37*
G36*
X85899785Y7173775D02*
X84899785Y7173775D01*
X84899785Y7773775D01*
X85899785Y7773775D01*
X85899785Y7173775D01*
X85899785Y7173775D01*
G37*
G36*
X90979785Y7173775D02*
X89979785Y7173775D01*
X89979785Y7773775D01*
X90979785Y7773775D01*
X90979785Y7173775D01*
X90979785Y7173775D01*
G37*
G36*
X93519785Y7173775D02*
X92519785Y7173775D01*
X92519785Y7773775D01*
X93519785Y7773775D01*
X93519785Y7173775D01*
X93519785Y7173775D01*
G37*
G36*
X96059785Y7173775D02*
X95059785Y7173775D01*
X95059785Y7773775D01*
X96059785Y7773775D01*
X96059785Y7173775D01*
X96059785Y7173775D01*
G37*
G36*
X78235000Y7195000D02*
X77235000Y7195000D01*
X77235000Y7795000D01*
X78235000Y7795000D01*
X78235000Y7195000D01*
X78235000Y7195000D01*
G37*
G36*
X30456082Y7232196D02*
X29456082Y7232196D01*
X29456082Y7832196D01*
X30456082Y7832196D01*
X30456082Y7232196D01*
X30456082Y7232196D01*
G37*
G36*
X38251082Y7232196D02*
X36901082Y7232196D01*
X36901082Y8332196D01*
X38251082Y8332196D01*
X38251082Y7232196D01*
X38251082Y7232196D01*
G37*
G36*
X10204782Y9263369D02*
X10387284Y9225907D01*
X10559029Y9153712D01*
X10713483Y9049532D01*
X10844762Y8917333D01*
X10947862Y8762156D01*
X11018856Y8589911D01*
X11054975Y8407496D01*
X11054975Y8407486D01*
X11055041Y8407152D01*
X11052070Y8194357D01*
X11051994Y8194023D01*
X11051994Y8194011D01*
X11010798Y8012684D01*
X10935019Y7842484D01*
X10827628Y7690246D01*
X10692707Y7561763D01*
X10535408Y7461939D01*
X10361710Y7394565D01*
X10178238Y7362215D01*
X9991974Y7366116D01*
X9810011Y7406123D01*
X9639289Y7480710D01*
X9486306Y7587036D01*
X9356885Y7721054D01*
X9255965Y7877652D01*
X9187381Y8050875D01*
X9153748Y8234124D01*
X9156350Y8420409D01*
X9195084Y8602640D01*
X9268479Y8773882D01*
X9373735Y8927604D01*
X9506846Y9057957D01*
X9662738Y9159970D01*
X9835477Y9229761D01*
X10018479Y9264670D01*
X10204782Y9263369D01*
X10204782Y9263369D01*
G37*
G36*
X16026259Y7949836D02*
X16074287Y7939977D01*
X16119481Y7920979D01*
X16160131Y7893561D01*
X16194677Y7858773D01*
X16221806Y7817938D01*
X16240490Y7772609D01*
X16249945Y7724859D01*
X16249945Y7724848D01*
X16250011Y7724514D01*
X16249229Y7668515D01*
X16249153Y7668181D01*
X16249153Y7668173D01*
X16238369Y7620702D01*
X16218428Y7575916D01*
X16190166Y7535851D01*
X16154663Y7502044D01*
X16113265Y7475771D01*
X16067555Y7458042D01*
X16019274Y7449528D01*
X15970257Y7450555D01*
X15922370Y7461083D01*
X15877443Y7480712D01*
X15837185Y7508692D01*
X15803125Y7543962D01*
X15776569Y7585169D01*
X15758518Y7630760D01*
X15749668Y7678977D01*
X15750354Y7728003D01*
X15760546Y7775957D01*
X15779862Y7821023D01*
X15807560Y7861476D01*
X15842591Y7895781D01*
X15883614Y7922626D01*
X15929073Y7940992D01*
X15977230Y7950178D01*
X16026259Y7949836D01*
X16026259Y7949836D01*
G37*
G36*
X21192782Y9357369D02*
X21375284Y9319907D01*
X21547029Y9247712D01*
X21701483Y9143532D01*
X21832762Y9011333D01*
X21935862Y8856156D01*
X22006856Y8683911D01*
X22042975Y8501496D01*
X22042975Y8501486D01*
X22043041Y8501152D01*
X22040070Y8288357D01*
X22039994Y8288023D01*
X22039994Y8288011D01*
X21998798Y8106684D01*
X21923019Y7936484D01*
X21815628Y7784246D01*
X21680707Y7655763D01*
X21523408Y7555939D01*
X21349710Y7488565D01*
X21166238Y7456215D01*
X20979974Y7460116D01*
X20798011Y7500123D01*
X20627289Y7574710D01*
X20474306Y7681036D01*
X20344885Y7815054D01*
X20243965Y7971652D01*
X20175381Y8144875D01*
X20141748Y8328124D01*
X20144350Y8514409D01*
X20183084Y8696640D01*
X20256479Y8867882D01*
X20361735Y9021604D01*
X20494846Y9151957D01*
X20650738Y9253970D01*
X20823477Y9323761D01*
X21006479Y9358670D01*
X21192782Y9357369D01*
X21192782Y9357369D01*
G37*
G36*
X34116082Y7712196D02*
X33416082Y7712196D01*
X33416082Y8912196D01*
X34116082Y8912196D01*
X34116082Y7712196D01*
X34116082Y7712196D01*
G37*
G36*
X36016082Y7712196D02*
X35316082Y7712196D01*
X35316082Y8912196D01*
X36016082Y8912196D01*
X36016082Y7712196D01*
X36016082Y7712196D01*
G37*
G36*
X124412000Y7791000D02*
X120212000Y7791000D01*
X120212000Y9741000D01*
X124412000Y9741000D01*
X124412000Y7791000D01*
X124412000Y7791000D01*
G37*
G36*
X4626041Y10799202D02*
X4856569Y10751881D01*
X5073510Y10660688D01*
X5268610Y10529092D01*
X5434435Y10362104D01*
X5564668Y10166090D01*
X5654342Y9948521D01*
X5699985Y9718010D01*
X5699985Y9718000D01*
X5700051Y9717666D01*
X5696298Y9448872D01*
X5696222Y9448538D01*
X5696222Y9448526D01*
X5644164Y9219390D01*
X5548444Y9004401D01*
X5412792Y8812101D01*
X5242366Y8649808D01*
X5043673Y8523713D01*
X4824265Y8438610D01*
X4592511Y8397746D01*
X4357230Y8402674D01*
X4127383Y8453209D01*
X3911737Y8547422D01*
X3718489Y8681733D01*
X3555014Y8851017D01*
X3427535Y9048825D01*
X3340903Y9267632D01*
X3298420Y9499104D01*
X3301707Y9734411D01*
X3350634Y9964598D01*
X3443343Y10180903D01*
X3576297Y10375078D01*
X3744438Y10539734D01*
X3941354Y10668592D01*
X4159551Y10756749D01*
X4390711Y10800846D01*
X4626041Y10799202D01*
X4626041Y10799202D01*
G37*
G36*
X12744782Y10533369D02*
X12927284Y10495907D01*
X13099029Y10423712D01*
X13253483Y10319532D01*
X13384762Y10187333D01*
X13487862Y10032156D01*
X13558856Y9859911D01*
X13594975Y9677496D01*
X13594975Y9677486D01*
X13595041Y9677152D01*
X13592070Y9464357D01*
X13591994Y9464023D01*
X13591994Y9464011D01*
X13550798Y9282684D01*
X13475019Y9112484D01*
X13367628Y8960246D01*
X13232707Y8831763D01*
X13075408Y8731939D01*
X12901710Y8664565D01*
X12718238Y8632215D01*
X12531974Y8636116D01*
X12350011Y8676123D01*
X12179289Y8750710D01*
X12026306Y8857036D01*
X11896885Y8991054D01*
X11795965Y9147652D01*
X11727381Y9320875D01*
X11693748Y9504124D01*
X11696350Y9690409D01*
X11735084Y9872640D01*
X11808479Y10043882D01*
X11913735Y10197604D01*
X12046846Y10327957D01*
X12202738Y10429970D01*
X12375477Y10499761D01*
X12558479Y10534670D01*
X12744782Y10533369D01*
X12744782Y10533369D01*
G37*
G36*
X18652782Y10627369D02*
X18835284Y10589907D01*
X19007029Y10517712D01*
X19161483Y10413532D01*
X19292762Y10281333D01*
X19395862Y10126156D01*
X19466856Y9953911D01*
X19502975Y9771496D01*
X19502975Y9771486D01*
X19503041Y9771152D01*
X19500070Y9558357D01*
X19499994Y9558023D01*
X19499994Y9558011D01*
X19458798Y9376684D01*
X19383019Y9206484D01*
X19275628Y9054246D01*
X19140707Y8925763D01*
X18983408Y8825939D01*
X18809710Y8758565D01*
X18626238Y8726215D01*
X18439974Y8730116D01*
X18258011Y8770123D01*
X18087289Y8844710D01*
X17934306Y8951036D01*
X17804885Y9085054D01*
X17703965Y9241652D01*
X17635381Y9414875D01*
X17601748Y9598124D01*
X17604350Y9784409D01*
X17643084Y9966640D01*
X17716479Y10137882D01*
X17821735Y10291604D01*
X17954846Y10421957D01*
X18110738Y10523970D01*
X18283477Y10593761D01*
X18466479Y10628670D01*
X18652782Y10627369D01*
X18652782Y10627369D01*
G37*
G36*
X16026259Y9249836D02*
X16074287Y9239977D01*
X16119481Y9220979D01*
X16160131Y9193561D01*
X16194677Y9158773D01*
X16221806Y9117938D01*
X16240490Y9072609D01*
X16249945Y9024859D01*
X16249945Y9024848D01*
X16250011Y9024514D01*
X16249229Y8968515D01*
X16249153Y8968181D01*
X16249153Y8968173D01*
X16238369Y8920702D01*
X16218428Y8875916D01*
X16190166Y8835851D01*
X16154663Y8802044D01*
X16113265Y8775771D01*
X16067555Y8758042D01*
X16019274Y8749528D01*
X15970257Y8750555D01*
X15922370Y8761083D01*
X15877443Y8780712D01*
X15837185Y8808692D01*
X15803125Y8843962D01*
X15776569Y8885169D01*
X15758518Y8930760D01*
X15749668Y8978977D01*
X15750354Y9028003D01*
X15760546Y9075957D01*
X15779862Y9121023D01*
X15807560Y9161476D01*
X15842591Y9195781D01*
X15883614Y9222626D01*
X15929073Y9240992D01*
X15977230Y9250178D01*
X16026259Y9249836D01*
X16026259Y9249836D01*
G37*
G36*
X31184000Y8797000D02*
X30584000Y8797000D01*
X30584000Y9797000D01*
X31184000Y9797000D01*
X31184000Y8797000D01*
X31184000Y8797000D01*
G37*
G36*
X32684000Y8797000D02*
X32084000Y8797000D01*
X32084000Y9797000D01*
X32684000Y9797000D01*
X32684000Y8797000D01*
X32684000Y8797000D01*
G37*
G36*
X91428899Y9602412D02*
X91428909Y9602409D01*
X91428947Y9602405D01*
X91456912Y9593748D01*
X91482664Y9579825D01*
X91505221Y9561164D01*
X91523723Y9538478D01*
X91537467Y9512630D01*
X91545928Y9484604D01*
X91548785Y9455469D01*
X91548785Y9052007D01*
X91548784Y9052002D01*
X91548770Y9049987D01*
X91545507Y9020894D01*
X91536655Y8992990D01*
X91522552Y8967336D01*
X91503735Y8944910D01*
X91480919Y8926566D01*
X91454976Y8913003D01*
X91426892Y8904738D01*
X91426850Y8904734D01*
X91426846Y8904733D01*
X91397740Y8902083D01*
X91368671Y8905138D01*
X91368661Y8905141D01*
X91368623Y8905145D01*
X91340658Y8913802D01*
X91314906Y8927725D01*
X91292349Y8946386D01*
X91273847Y8969072D01*
X91260103Y8994920D01*
X91251642Y9022946D01*
X91248785Y9052081D01*
X91248785Y9455543D01*
X91248786Y9455548D01*
X91248800Y9457563D01*
X91252063Y9486656D01*
X91260915Y9514560D01*
X91275018Y9540214D01*
X91293835Y9562640D01*
X91316651Y9580984D01*
X91342594Y9594547D01*
X91370678Y9602812D01*
X91370720Y9602816D01*
X91370724Y9602817D01*
X91399830Y9605467D01*
X91428899Y9602412D01*
X91428899Y9602412D01*
G37*
G36*
X90978899Y9602412D02*
X90978909Y9602409D01*
X90978947Y9602405D01*
X91006912Y9593748D01*
X91032664Y9579825D01*
X91055221Y9561164D01*
X91073723Y9538478D01*
X91087467Y9512630D01*
X91095928Y9484604D01*
X91098785Y9455469D01*
X91098785Y9052007D01*
X91098784Y9052002D01*
X91098770Y9049987D01*
X91095507Y9020894D01*
X91086655Y8992990D01*
X91072552Y8967336D01*
X91053735Y8944910D01*
X91030919Y8926566D01*
X91004976Y8913003D01*
X90976892Y8904738D01*
X90976850Y8904734D01*
X90976846Y8904733D01*
X90947740Y8902083D01*
X90918671Y8905138D01*
X90918661Y8905141D01*
X90918623Y8905145D01*
X90890658Y8913802D01*
X90864906Y8927725D01*
X90842349Y8946386D01*
X90823847Y8969072D01*
X90810103Y8994920D01*
X90801642Y9022946D01*
X90798785Y9052081D01*
X90798785Y9455543D01*
X90798786Y9455548D01*
X90798800Y9457563D01*
X90802063Y9486656D01*
X90810915Y9514560D01*
X90825018Y9540214D01*
X90843835Y9562640D01*
X90866651Y9580984D01*
X90892594Y9594547D01*
X90920678Y9602812D01*
X90920720Y9602816D01*
X90920724Y9602817D01*
X90949830Y9605467D01*
X90978899Y9602412D01*
X90978899Y9602412D01*
G37*
G36*
X90528899Y9602412D02*
X90528909Y9602409D01*
X90528947Y9602405D01*
X90556912Y9593748D01*
X90582664Y9579825D01*
X90605221Y9561164D01*
X90623723Y9538478D01*
X90637467Y9512630D01*
X90645928Y9484604D01*
X90648785Y9455469D01*
X90648785Y9052007D01*
X90648784Y9052002D01*
X90648770Y9049987D01*
X90645507Y9020894D01*
X90636655Y8992990D01*
X90622552Y8967336D01*
X90603735Y8944910D01*
X90580919Y8926566D01*
X90554976Y8913003D01*
X90526892Y8904738D01*
X90526850Y8904734D01*
X90526846Y8904733D01*
X90497740Y8902083D01*
X90468671Y8905138D01*
X90468661Y8905141D01*
X90468623Y8905145D01*
X90440658Y8913802D01*
X90414906Y8927725D01*
X90392349Y8946386D01*
X90373847Y8969072D01*
X90360103Y8994920D01*
X90351642Y9022946D01*
X90348785Y9052081D01*
X90348785Y9455543D01*
X90348786Y9455548D01*
X90348800Y9457563D01*
X90352063Y9486656D01*
X90360915Y9514560D01*
X90375018Y9540214D01*
X90393835Y9562640D01*
X90416651Y9580984D01*
X90442594Y9594547D01*
X90470678Y9602812D01*
X90470720Y9602816D01*
X90470724Y9602817D01*
X90499830Y9605467D01*
X90528899Y9602412D01*
X90528899Y9602412D01*
G37*
G36*
X90078899Y9602412D02*
X90078909Y9602409D01*
X90078947Y9602405D01*
X90106912Y9593748D01*
X90132664Y9579825D01*
X90155221Y9561164D01*
X90173723Y9538478D01*
X90187467Y9512630D01*
X90195928Y9484604D01*
X90198785Y9455469D01*
X90198785Y9052007D01*
X90198784Y9052002D01*
X90198770Y9049987D01*
X90195507Y9020894D01*
X90186655Y8992990D01*
X90172552Y8967336D01*
X90153735Y8944910D01*
X90130919Y8926566D01*
X90104976Y8913003D01*
X90076892Y8904738D01*
X90076850Y8904734D01*
X90076846Y8904733D01*
X90047740Y8902083D01*
X90018671Y8905138D01*
X90018661Y8905141D01*
X90018623Y8905145D01*
X89990658Y8913802D01*
X89964906Y8927725D01*
X89942349Y8946386D01*
X89923847Y8969072D01*
X89910103Y8994920D01*
X89901642Y9022946D01*
X89898785Y9052081D01*
X89898785Y9455543D01*
X89898786Y9455548D01*
X89898800Y9457563D01*
X89902063Y9486656D01*
X89910915Y9514560D01*
X89925018Y9540214D01*
X89943835Y9562640D01*
X89966651Y9580984D01*
X89992594Y9594547D01*
X90020678Y9602812D01*
X90020720Y9602816D01*
X90020724Y9602817D01*
X90049830Y9605467D01*
X90078899Y9602412D01*
X90078899Y9602412D01*
G37*
G36*
X89628899Y9602412D02*
X89628909Y9602409D01*
X89628947Y9602405D01*
X89656912Y9593748D01*
X89682664Y9579825D01*
X89705221Y9561164D01*
X89723723Y9538478D01*
X89737467Y9512630D01*
X89745928Y9484604D01*
X89748785Y9455469D01*
X89748785Y9052007D01*
X89748784Y9052002D01*
X89748770Y9049987D01*
X89745507Y9020894D01*
X89736655Y8992990D01*
X89722552Y8967336D01*
X89703735Y8944910D01*
X89680919Y8926566D01*
X89654976Y8913003D01*
X89626892Y8904738D01*
X89626850Y8904734D01*
X89626846Y8904733D01*
X89597740Y8902083D01*
X89568671Y8905138D01*
X89568661Y8905141D01*
X89568623Y8905145D01*
X89540658Y8913802D01*
X89514906Y8927725D01*
X89492349Y8946386D01*
X89473847Y8969072D01*
X89460103Y8994920D01*
X89451642Y9022946D01*
X89448785Y9052081D01*
X89448785Y9455543D01*
X89448786Y9455548D01*
X89448800Y9457563D01*
X89452063Y9486656D01*
X89460915Y9514560D01*
X89475018Y9540214D01*
X89493835Y9562640D01*
X89516651Y9580984D01*
X89542594Y9594547D01*
X89570678Y9602812D01*
X89570720Y9602816D01*
X89570724Y9602817D01*
X89599830Y9605467D01*
X89628899Y9602412D01*
X89628899Y9602412D01*
G37*
G36*
X116301000Y8995000D02*
X115701000Y8995000D01*
X115701000Y10895000D01*
X116301000Y10895000D01*
X116301000Y8995000D01*
X116301000Y8995000D01*
G37*
G36*
X118101000Y8995000D02*
X117501000Y8995000D01*
X117501000Y10895000D01*
X118101000Y10895000D01*
X118101000Y8995000D01*
X118101000Y8995000D01*
G37*
G36*
X38278000Y9144000D02*
X36928000Y9144000D01*
X36928000Y10244000D01*
X38278000Y10244000D01*
X38278000Y9144000D01*
X38278000Y9144000D01*
G37*
G36*
X93698785Y9218775D02*
X92848785Y9218775D01*
X92848785Y10118775D01*
X93698785Y10118775D01*
X93698785Y9218775D01*
X93698785Y9218775D01*
G37*
G36*
X117251000Y9295000D02*
X116551000Y9295000D01*
X116551000Y10595000D01*
X117251000Y10595000D01*
X117251000Y9295000D01*
X117251000Y9295000D01*
G37*
G36*
X92100558Y9903774D02*
X92102573Y9903760D01*
X92131666Y9900497D01*
X92159570Y9891645D01*
X92185224Y9877542D01*
X92207650Y9858725D01*
X92225994Y9835909D01*
X92239557Y9809966D01*
X92247822Y9781882D01*
X92247826Y9781840D01*
X92247827Y9781836D01*
X92250477Y9752730D01*
X92247422Y9723661D01*
X92247419Y9723651D01*
X92247415Y9723613D01*
X92238758Y9695648D01*
X92224835Y9669896D01*
X92206174Y9647339D01*
X92183488Y9628837D01*
X92157640Y9615093D01*
X92129614Y9606632D01*
X92100479Y9603775D01*
X91697017Y9603775D01*
X91697012Y9603776D01*
X91694997Y9603790D01*
X91665904Y9607053D01*
X91638000Y9615905D01*
X91612346Y9630008D01*
X91589920Y9648825D01*
X91571576Y9671641D01*
X91558013Y9697584D01*
X91549748Y9725668D01*
X91549744Y9725710D01*
X91549743Y9725714D01*
X91547093Y9754820D01*
X91550148Y9783889D01*
X91550151Y9783899D01*
X91550155Y9783937D01*
X91558812Y9811902D01*
X91572735Y9837654D01*
X91591396Y9860211D01*
X91614082Y9878713D01*
X91639930Y9892457D01*
X91667956Y9900918D01*
X91697091Y9903775D01*
X92100553Y9903775D01*
X92100558Y9903774D01*
X92100558Y9903774D01*
G37*
G36*
X89300558Y9903774D02*
X89302573Y9903760D01*
X89331666Y9900497D01*
X89359570Y9891645D01*
X89385224Y9877542D01*
X89407650Y9858725D01*
X89425994Y9835909D01*
X89439557Y9809966D01*
X89447822Y9781882D01*
X89447826Y9781840D01*
X89447827Y9781836D01*
X89450477Y9752730D01*
X89447422Y9723661D01*
X89447419Y9723651D01*
X89447415Y9723613D01*
X89438758Y9695648D01*
X89424835Y9669896D01*
X89406174Y9647339D01*
X89383488Y9628837D01*
X89357640Y9615093D01*
X89329614Y9606632D01*
X89300479Y9603775D01*
X88897017Y9603775D01*
X88897012Y9603776D01*
X88894997Y9603790D01*
X88865904Y9607053D01*
X88838000Y9615905D01*
X88812346Y9630008D01*
X88789920Y9648825D01*
X88771576Y9671641D01*
X88758013Y9697584D01*
X88749748Y9725668D01*
X88749744Y9725710D01*
X88749743Y9725714D01*
X88747093Y9754820D01*
X88750148Y9783889D01*
X88750151Y9783899D01*
X88750155Y9783937D01*
X88758812Y9811902D01*
X88772735Y9837654D01*
X88791396Y9860211D01*
X88814082Y9878713D01*
X88839930Y9892457D01*
X88867956Y9900918D01*
X88897091Y9903775D01*
X89300553Y9903775D01*
X89300558Y9903774D01*
X89300558Y9903774D01*
G37*
G36*
X91348785Y9803775D02*
X89648785Y9803775D01*
X89648785Y11503775D01*
X91348785Y11503775D01*
X91348785Y9803775D01*
X91348785Y9803775D01*
G37*
G36*
X10204782Y11803369D02*
X10387284Y11765907D01*
X10559029Y11693712D01*
X10713483Y11589532D01*
X10844762Y11457333D01*
X10947862Y11302156D01*
X11018856Y11129911D01*
X11054975Y10947496D01*
X11054975Y10947486D01*
X11055041Y10947152D01*
X11052070Y10734357D01*
X11051994Y10734023D01*
X11051994Y10734011D01*
X11010798Y10552684D01*
X10935019Y10382484D01*
X10827628Y10230246D01*
X10692707Y10101763D01*
X10535408Y10001939D01*
X10361710Y9934565D01*
X10178238Y9902215D01*
X9991974Y9906116D01*
X9810011Y9946123D01*
X9639289Y10020710D01*
X9486306Y10127036D01*
X9356885Y10261054D01*
X9255965Y10417652D01*
X9187381Y10590875D01*
X9153748Y10774124D01*
X9156350Y10960409D01*
X9195084Y11142640D01*
X9268479Y11313882D01*
X9373735Y11467604D01*
X9506846Y11597957D01*
X9662738Y11699970D01*
X9835477Y11769761D01*
X10018479Y11804670D01*
X10204782Y11803369D01*
X10204782Y11803369D01*
G37*
G36*
X21192782Y11897369D02*
X21375284Y11859907D01*
X21547029Y11787712D01*
X21701483Y11683532D01*
X21832762Y11551333D01*
X21935862Y11396156D01*
X22006856Y11223911D01*
X22042975Y11041496D01*
X22042975Y11041486D01*
X22043041Y11041152D01*
X22040070Y10828357D01*
X22039994Y10828023D01*
X22039994Y10828011D01*
X21998798Y10646684D01*
X21923019Y10476484D01*
X21815628Y10324246D01*
X21680707Y10195763D01*
X21523408Y10095939D01*
X21349710Y10028565D01*
X21166238Y9996215D01*
X20979974Y10000116D01*
X20798011Y10040123D01*
X20627289Y10114710D01*
X20474306Y10221036D01*
X20344885Y10355054D01*
X20243965Y10511652D01*
X20175381Y10684875D01*
X20141748Y10868124D01*
X20144350Y11054409D01*
X20183084Y11236640D01*
X20256479Y11407882D01*
X20361735Y11561604D01*
X20494846Y11691957D01*
X20650738Y11793970D01*
X20823477Y11863761D01*
X21006479Y11898670D01*
X21192782Y11897369D01*
X21192782Y11897369D01*
G37*
G36*
X79563000Y10009000D02*
X77431000Y10009000D01*
X77431000Y12141000D01*
X79563000Y12141000D01*
X79563000Y10009000D01*
X79563000Y10009000D01*
G37*
G36*
X81050447Y12140942D02*
X81057042Y12140896D01*
X81263792Y12117705D01*
X81462100Y12054798D01*
X81644413Y11954571D01*
X81803786Y11820841D01*
X81934149Y11658702D01*
X82030536Y11474331D01*
X82089276Y11274748D01*
X82089278Y11274721D01*
X82089284Y11274702D01*
X82108135Y11067560D01*
X82086393Y10860700D01*
X82086389Y10860686D01*
X82086385Y10860651D01*
X82024864Y10661908D01*
X81925912Y10478900D01*
X81793298Y10318598D01*
X81632073Y10187106D01*
X81448379Y10089434D01*
X81249212Y10029302D01*
X81042158Y10009000D01*
X81031807Y10009000D01*
X81023553Y10009058D01*
X81016958Y10009104D01*
X80810208Y10032295D01*
X80611900Y10095202D01*
X80429587Y10195429D01*
X80270214Y10329159D01*
X80139851Y10491298D01*
X80043464Y10675669D01*
X79984724Y10875252D01*
X79984722Y10875279D01*
X79984716Y10875298D01*
X79965865Y11082440D01*
X79987607Y11289300D01*
X79987611Y11289314D01*
X79987615Y11289349D01*
X80049136Y11488092D01*
X80148088Y11671100D01*
X80280702Y11831402D01*
X80441927Y11962894D01*
X80625621Y12060566D01*
X80824788Y12120698D01*
X81031842Y12141000D01*
X81042193Y12141000D01*
X81050447Y12140942D01*
X81050447Y12140942D01*
G37*
G36*
X89300558Y10353774D02*
X89302573Y10353760D01*
X89331666Y10350497D01*
X89359570Y10341645D01*
X89385224Y10327542D01*
X89407650Y10308725D01*
X89425994Y10285909D01*
X89439557Y10259966D01*
X89447822Y10231882D01*
X89447826Y10231840D01*
X89447827Y10231836D01*
X89450477Y10202730D01*
X89447422Y10173661D01*
X89447419Y10173651D01*
X89447415Y10173613D01*
X89438758Y10145648D01*
X89424835Y10119896D01*
X89406174Y10097339D01*
X89383488Y10078837D01*
X89357640Y10065093D01*
X89329614Y10056632D01*
X89300479Y10053775D01*
X88897017Y10053775D01*
X88897012Y10053776D01*
X88894997Y10053790D01*
X88865904Y10057053D01*
X88838000Y10065905D01*
X88812346Y10080008D01*
X88789920Y10098825D01*
X88771576Y10121641D01*
X88758013Y10147584D01*
X88749748Y10175668D01*
X88749744Y10175710D01*
X88749743Y10175714D01*
X88747093Y10204820D01*
X88750148Y10233889D01*
X88750151Y10233899D01*
X88750155Y10233937D01*
X88758812Y10261902D01*
X88772735Y10287654D01*
X88791396Y10310211D01*
X88814082Y10328713D01*
X88839930Y10342457D01*
X88867956Y10350918D01*
X88897091Y10353775D01*
X89300553Y10353775D01*
X89300558Y10353774D01*
X89300558Y10353774D01*
G37*
G36*
X92100558Y10353774D02*
X92102573Y10353760D01*
X92131666Y10350497D01*
X92159570Y10341645D01*
X92185224Y10327542D01*
X92207650Y10308725D01*
X92225994Y10285909D01*
X92239557Y10259966D01*
X92247822Y10231882D01*
X92247826Y10231840D01*
X92247827Y10231836D01*
X92250477Y10202730D01*
X92247422Y10173661D01*
X92247419Y10173651D01*
X92247415Y10173613D01*
X92238758Y10145648D01*
X92224835Y10119896D01*
X92206174Y10097339D01*
X92183488Y10078837D01*
X92157640Y10065093D01*
X92129614Y10056632D01*
X92100479Y10053775D01*
X91697017Y10053775D01*
X91697012Y10053776D01*
X91694997Y10053790D01*
X91665904Y10057053D01*
X91638000Y10065905D01*
X91612346Y10080008D01*
X91589920Y10098825D01*
X91571576Y10121641D01*
X91558013Y10147584D01*
X91549748Y10175668D01*
X91549744Y10175710D01*
X91549743Y10175714D01*
X91547093Y10204820D01*
X91550148Y10233889D01*
X91550151Y10233899D01*
X91550155Y10233937D01*
X91558812Y10261902D01*
X91572735Y10287654D01*
X91591396Y10310211D01*
X91614082Y10328713D01*
X91639930Y10342457D01*
X91667956Y10350918D01*
X91697091Y10353775D01*
X92100553Y10353775D01*
X92100558Y10353774D01*
X92100558Y10353774D01*
G37*
G36*
X130995195Y10081513D02*
X126795195Y10081513D01*
X126795195Y12031513D01*
X130995195Y12031513D01*
X130995195Y10081513D01*
X130995195Y10081513D01*
G37*
G36*
X98490049Y10092017D02*
X97790049Y10092017D01*
X97790049Y11292017D01*
X98490049Y11292017D01*
X98490049Y10092017D01*
X98490049Y10092017D01*
G37*
G36*
X100990049Y10092017D02*
X100290049Y10092017D01*
X100290049Y11292017D01*
X100990049Y11292017D01*
X100990049Y10092017D01*
X100990049Y10092017D01*
G37*
G36*
X99740049Y10092017D02*
X99040049Y10092017D01*
X99040049Y11292017D01*
X99740049Y11292017D01*
X99740049Y10092017D01*
X99740049Y10092017D01*
G37*
G36*
X97240049Y10092017D02*
X96540049Y10092017D01*
X96540049Y11292017D01*
X97240049Y11292017D01*
X97240049Y10092017D01*
X97240049Y10092017D01*
G37*
G36*
X16026259Y10649836D02*
X16074287Y10639977D01*
X16119481Y10620979D01*
X16160131Y10593561D01*
X16194677Y10558773D01*
X16221806Y10517938D01*
X16240490Y10472609D01*
X16249945Y10424859D01*
X16249945Y10424848D01*
X16250011Y10424514D01*
X16249229Y10368515D01*
X16249153Y10368181D01*
X16249153Y10368173D01*
X16238369Y10320702D01*
X16218428Y10275916D01*
X16190166Y10235851D01*
X16154663Y10202044D01*
X16113265Y10175771D01*
X16067555Y10158042D01*
X16019274Y10149528D01*
X15970257Y10150555D01*
X15922370Y10161083D01*
X15877443Y10180712D01*
X15837185Y10208692D01*
X15803125Y10243962D01*
X15776569Y10285169D01*
X15758518Y10330760D01*
X15749668Y10378977D01*
X15750354Y10428003D01*
X15760546Y10475957D01*
X15779862Y10521023D01*
X15807560Y10561476D01*
X15842591Y10595781D01*
X15883614Y10622626D01*
X15929073Y10640992D01*
X15977230Y10650178D01*
X16026259Y10649836D01*
X16026259Y10649836D01*
G37*
G36*
X86617000Y10279000D02*
X85617000Y10279000D01*
X85617000Y10879000D01*
X86617000Y10879000D01*
X86617000Y10279000D01*
X86617000Y10279000D01*
G37*
G36*
X84712000Y10279000D02*
X83712000Y10279000D01*
X83712000Y10879000D01*
X84712000Y10879000D01*
X84712000Y10279000D01*
X84712000Y10279000D01*
G37*
G36*
X125873195Y10433513D02*
X124773195Y10433513D01*
X124773195Y11783513D01*
X125873195Y11783513D01*
X125873195Y10433513D01*
X125873195Y10433513D01*
G37*
G36*
X123873195Y10433513D02*
X122773195Y10433513D01*
X122773195Y11783513D01*
X123873195Y11783513D01*
X123873195Y10433513D01*
X123873195Y10433513D01*
G37*
G36*
X89300558Y10803774D02*
X89302573Y10803760D01*
X89331666Y10800497D01*
X89359570Y10791645D01*
X89385224Y10777542D01*
X89407650Y10758725D01*
X89425994Y10735909D01*
X89439557Y10709966D01*
X89447822Y10681882D01*
X89447826Y10681840D01*
X89447827Y10681836D01*
X89450477Y10652730D01*
X89447422Y10623661D01*
X89447419Y10623651D01*
X89447415Y10623613D01*
X89438758Y10595648D01*
X89424835Y10569896D01*
X89406174Y10547339D01*
X89383488Y10528837D01*
X89357640Y10515093D01*
X89329614Y10506632D01*
X89300479Y10503775D01*
X88897017Y10503775D01*
X88897012Y10503776D01*
X88894997Y10503790D01*
X88865904Y10507053D01*
X88838000Y10515905D01*
X88812346Y10530008D01*
X88789920Y10548825D01*
X88771576Y10571641D01*
X88758013Y10597584D01*
X88749748Y10625668D01*
X88749744Y10625710D01*
X88749743Y10625714D01*
X88747093Y10654820D01*
X88750148Y10683889D01*
X88750151Y10683899D01*
X88750155Y10683937D01*
X88758812Y10711902D01*
X88772735Y10737654D01*
X88791396Y10760211D01*
X88814082Y10778713D01*
X88839930Y10792457D01*
X88867956Y10800918D01*
X88897091Y10803775D01*
X89300553Y10803775D01*
X89300558Y10803774D01*
X89300558Y10803774D01*
G37*
G36*
X92100558Y10803774D02*
X92102573Y10803760D01*
X92131666Y10800497D01*
X92159570Y10791645D01*
X92185224Y10777542D01*
X92207650Y10758725D01*
X92225994Y10735909D01*
X92239557Y10709966D01*
X92247822Y10681882D01*
X92247826Y10681840D01*
X92247827Y10681836D01*
X92250477Y10652730D01*
X92247422Y10623661D01*
X92247419Y10623651D01*
X92247415Y10623613D01*
X92238758Y10595648D01*
X92224835Y10569896D01*
X92206174Y10547339D01*
X92183488Y10528837D01*
X92157640Y10515093D01*
X92129614Y10506632D01*
X92100479Y10503775D01*
X91697017Y10503775D01*
X91697012Y10503776D01*
X91694997Y10503790D01*
X91665904Y10507053D01*
X91638000Y10515905D01*
X91612346Y10530008D01*
X91589920Y10548825D01*
X91571576Y10571641D01*
X91558013Y10597584D01*
X91549748Y10625668D01*
X91549744Y10625710D01*
X91549743Y10625714D01*
X91547093Y10654820D01*
X91550148Y10683889D01*
X91550151Y10683899D01*
X91550155Y10683937D01*
X91558812Y10711902D01*
X91572735Y10737654D01*
X91591396Y10760211D01*
X91614082Y10778713D01*
X91639930Y10792457D01*
X91667956Y10800918D01*
X91697091Y10803775D01*
X92100553Y10803775D01*
X92100558Y10803774D01*
X92100558Y10803774D01*
G37*
G36*
X102675049Y10592017D02*
X101825049Y10592017D01*
X101825049Y11492017D01*
X102675049Y11492017D01*
X102675049Y10592017D01*
X102675049Y10592017D01*
G37*
G36*
X2050789Y12918235D02*
X2271712Y12872886D01*
X2479614Y12785493D01*
X2666588Y12659377D01*
X2825499Y12499353D01*
X2950307Y12311503D01*
X3036245Y12102999D01*
X3079983Y11882107D01*
X3079983Y11882097D01*
X3080049Y11881763D01*
X3076452Y11624169D01*
X3076376Y11623835D01*
X3076376Y11623824D01*
X3026489Y11404247D01*
X2934759Y11198218D01*
X2804759Y11013931D01*
X2641434Y10858399D01*
X2451020Y10737559D01*
X2240754Y10656001D01*
X2018656Y10616840D01*
X1793179Y10621562D01*
X1572906Y10669992D01*
X1366246Y10760280D01*
X1181055Y10888992D01*
X1024389Y11051224D01*
X902221Y11240791D01*
X819199Y11450481D01*
X778486Y11672308D01*
X781636Y11897811D01*
X828524Y12118406D01*
X917370Y12325698D01*
X1044785Y12511783D01*
X1205919Y12669578D01*
X1394631Y12793068D01*
X1603736Y12877552D01*
X1825265Y12919810D01*
X2050789Y12918235D01*
X2050789Y12918235D01*
G37*
G36*
X93698785Y10718775D02*
X92848785Y10718775D01*
X92848785Y11618775D01*
X93698785Y11618775D01*
X93698785Y10718775D01*
X93698785Y10718775D01*
G37*
G36*
X6035034Y12768336D02*
X6227141Y12728902D01*
X6407925Y12652907D01*
X6570509Y12543244D01*
X6708697Y12404087D01*
X6817223Y12240744D01*
X6891954Y12059433D01*
X6929978Y11867399D01*
X6929978Y11867384D01*
X6930043Y11867055D01*
X6926916Y11643060D01*
X6926839Y11642722D01*
X6926839Y11642714D01*
X6883471Y11451825D01*
X6803705Y11272667D01*
X6690661Y11112417D01*
X6548639Y10977172D01*
X6383061Y10872094D01*
X6200221Y10801173D01*
X6007093Y10767121D01*
X5811025Y10771227D01*
X5619485Y10813340D01*
X5439779Y10891853D01*
X5278742Y11003775D01*
X5142511Y11144847D01*
X5036279Y11309687D01*
X4964085Y11492026D01*
X4928682Y11684920D01*
X4931421Y11881010D01*
X4972194Y12072832D01*
X5049451Y12253086D01*
X5160247Y12414899D01*
X5300364Y12552113D01*
X5464461Y12659495D01*
X5646292Y12732959D01*
X5838925Y12769706D01*
X6035034Y12768336D01*
X6035034Y12768336D01*
G37*
G36*
X92100558Y11253774D02*
X92102573Y11253760D01*
X92131666Y11250497D01*
X92159570Y11241645D01*
X92185224Y11227542D01*
X92207650Y11208725D01*
X92225994Y11185909D01*
X92239557Y11159966D01*
X92247822Y11131882D01*
X92247826Y11131840D01*
X92247827Y11131836D01*
X92250477Y11102730D01*
X92247422Y11073661D01*
X92247419Y11073651D01*
X92247415Y11073613D01*
X92238758Y11045648D01*
X92224835Y11019896D01*
X92206174Y10997339D01*
X92183488Y10978837D01*
X92157640Y10965093D01*
X92129614Y10956632D01*
X92100479Y10953775D01*
X91697017Y10953775D01*
X91697012Y10953776D01*
X91694997Y10953790D01*
X91665904Y10957053D01*
X91638000Y10965905D01*
X91612346Y10980008D01*
X91589920Y10998825D01*
X91571576Y11021641D01*
X91558013Y11047584D01*
X91549748Y11075668D01*
X91549744Y11075710D01*
X91549743Y11075714D01*
X91547093Y11104820D01*
X91550148Y11133889D01*
X91550151Y11133899D01*
X91550155Y11133937D01*
X91558812Y11161902D01*
X91572735Y11187654D01*
X91591396Y11210211D01*
X91614082Y11228713D01*
X91639930Y11242457D01*
X91667956Y11250918D01*
X91697091Y11253775D01*
X92100553Y11253775D01*
X92100558Y11253774D01*
X92100558Y11253774D01*
G37*
G36*
X89300558Y11253774D02*
X89302573Y11253760D01*
X89331666Y11250497D01*
X89359570Y11241645D01*
X89385224Y11227542D01*
X89407650Y11208725D01*
X89425994Y11185909D01*
X89439557Y11159966D01*
X89447822Y11131882D01*
X89447826Y11131840D01*
X89447827Y11131836D01*
X89450477Y11102730D01*
X89447422Y11073661D01*
X89447419Y11073651D01*
X89447415Y11073613D01*
X89438758Y11045648D01*
X89424835Y11019896D01*
X89406174Y10997339D01*
X89383488Y10978837D01*
X89357640Y10965093D01*
X89329614Y10956632D01*
X89300479Y10953775D01*
X88897017Y10953775D01*
X88897012Y10953776D01*
X88894997Y10953790D01*
X88865904Y10957053D01*
X88838000Y10965905D01*
X88812346Y10980008D01*
X88789920Y10998825D01*
X88771576Y11021641D01*
X88758013Y11047584D01*
X88749748Y11075668D01*
X88749744Y11075710D01*
X88749743Y11075714D01*
X88747093Y11104820D01*
X88750148Y11133889D01*
X88750151Y11133899D01*
X88750155Y11133937D01*
X88758812Y11161902D01*
X88772735Y11187654D01*
X88791396Y11210211D01*
X88814082Y11228713D01*
X88839930Y11242457D01*
X88867956Y11250918D01*
X88897091Y11253775D01*
X89300553Y11253775D01*
X89300558Y11253774D01*
X89300558Y11253774D01*
G37*
G36*
X109510299Y13921036D02*
X109788853Y13863857D01*
X110050991Y13753664D01*
X110286737Y13594652D01*
X110487109Y13392876D01*
X110644473Y13156026D01*
X110752830Y12893128D01*
X110807996Y12614524D01*
X110807996Y12614514D01*
X110808062Y12614180D01*
X110803527Y12289387D01*
X110803451Y12289053D01*
X110803451Y12289041D01*
X110740531Y12012095D01*
X110624870Y11752318D01*
X110460957Y11519956D01*
X110255027Y11323851D01*
X110014938Y11171487D01*
X109749821Y11068655D01*
X109469782Y11019276D01*
X109185486Y11025231D01*
X108907753Y11086294D01*
X108647180Y11200136D01*
X108413678Y11362424D01*
X108216143Y11566978D01*
X108062105Y11805997D01*
X107957425Y12070389D01*
X107906091Y12350083D01*
X107910062Y12634413D01*
X107969183Y12912556D01*
X108081206Y13173924D01*
X108241859Y13408553D01*
X108445028Y13607511D01*
X108682969Y13763215D01*
X108946624Y13869739D01*
X109225943Y13923022D01*
X109510299Y13921036D01*
X109510299Y13921036D01*
G37*
G36*
X113010299Y13921036D02*
X113288853Y13863857D01*
X113550991Y13753664D01*
X113786737Y13594652D01*
X113987109Y13392876D01*
X114144473Y13156026D01*
X114252830Y12893128D01*
X114307996Y12614524D01*
X114307996Y12614514D01*
X114308062Y12614180D01*
X114303527Y12289387D01*
X114303451Y12289053D01*
X114303451Y12289041D01*
X114240531Y12012095D01*
X114124870Y11752318D01*
X113960957Y11519956D01*
X113755027Y11323851D01*
X113514938Y11171487D01*
X113249821Y11068655D01*
X112969782Y11019276D01*
X112685486Y11025231D01*
X112407753Y11086294D01*
X112147180Y11200136D01*
X111913678Y11362424D01*
X111716143Y11566978D01*
X111562105Y11805997D01*
X111457425Y12070389D01*
X111406091Y12350083D01*
X111410062Y12634413D01*
X111469183Y12912556D01*
X111581206Y13173924D01*
X111741859Y13408553D01*
X111945028Y13607511D01*
X112182969Y13763215D01*
X112446624Y13869739D01*
X112725943Y13923022D01*
X113010299Y13921036D01*
X113010299Y13921036D01*
G37*
G36*
X107308000Y11022000D02*
X104408000Y11022000D01*
X104408000Y13922000D01*
X107308000Y13922000D01*
X107308000Y11022000D01*
X107308000Y11022000D01*
G37*
G36*
X38278000Y11144000D02*
X36928000Y11144000D01*
X36928000Y12244000D01*
X38278000Y12244000D01*
X38278000Y11144000D01*
X38278000Y11144000D01*
G37*
G36*
X12744782Y13073369D02*
X12927284Y13035907D01*
X13099029Y12963712D01*
X13253483Y12859532D01*
X13384762Y12727333D01*
X13487862Y12572156D01*
X13558856Y12399911D01*
X13594975Y12217496D01*
X13594975Y12217486D01*
X13595041Y12217152D01*
X13592070Y12004357D01*
X13591994Y12004023D01*
X13591994Y12004011D01*
X13550798Y11822684D01*
X13475019Y11652484D01*
X13367628Y11500246D01*
X13232707Y11371763D01*
X13075408Y11271939D01*
X12901710Y11204565D01*
X12718238Y11172215D01*
X12531974Y11176116D01*
X12350011Y11216123D01*
X12179289Y11290710D01*
X12026306Y11397036D01*
X11896885Y11531054D01*
X11795965Y11687652D01*
X11727381Y11860875D01*
X11693748Y12044124D01*
X11696350Y12230409D01*
X11735084Y12412640D01*
X11808479Y12583882D01*
X11913735Y12737604D01*
X12046846Y12867957D01*
X12202738Y12969970D01*
X12375477Y13039761D01*
X12558479Y13074670D01*
X12744782Y13073369D01*
X12744782Y13073369D01*
G37*
G36*
X18652782Y13167369D02*
X18835284Y13129907D01*
X19007029Y13057712D01*
X19161483Y12953532D01*
X19292762Y12821333D01*
X19395862Y12666156D01*
X19466856Y12493911D01*
X19502975Y12311496D01*
X19502975Y12311486D01*
X19503041Y12311152D01*
X19500070Y12098357D01*
X19499994Y12098023D01*
X19499994Y12098011D01*
X19458798Y11916684D01*
X19383019Y11746484D01*
X19275628Y11594246D01*
X19140707Y11465763D01*
X18983408Y11365939D01*
X18809710Y11298565D01*
X18626238Y11266215D01*
X18439974Y11270116D01*
X18258011Y11310123D01*
X18087289Y11384710D01*
X17934306Y11491036D01*
X17804885Y11625054D01*
X17703965Y11781652D01*
X17635381Y11954875D01*
X17601748Y12138124D01*
X17604350Y12324409D01*
X17643084Y12506640D01*
X17716479Y12677882D01*
X17821735Y12831604D01*
X17954846Y12961957D01*
X18110738Y13063970D01*
X18283477Y13133761D01*
X18466479Y13168670D01*
X18652782Y13167369D01*
X18652782Y13167369D01*
G37*
G36*
X134425730Y11296780D02*
X132296270Y11296780D01*
X132296270Y14048540D01*
X134425730Y14048540D01*
X134425730Y11296780D01*
X134425730Y11296780D01*
G37*
G36*
X16026259Y11849836D02*
X16074287Y11839977D01*
X16119481Y11820979D01*
X16160131Y11793561D01*
X16194677Y11758773D01*
X16221806Y11717938D01*
X16240490Y11672609D01*
X16249945Y11624859D01*
X16249945Y11624848D01*
X16250011Y11624514D01*
X16249229Y11568515D01*
X16249153Y11568181D01*
X16249153Y11568173D01*
X16238369Y11520702D01*
X16218428Y11475916D01*
X16190166Y11435851D01*
X16154663Y11402044D01*
X16113265Y11375771D01*
X16067555Y11358042D01*
X16019274Y11349528D01*
X15970257Y11350555D01*
X15922370Y11361083D01*
X15877443Y11380712D01*
X15837185Y11408692D01*
X15803125Y11443962D01*
X15776569Y11485169D01*
X15758518Y11530760D01*
X15749668Y11578977D01*
X15750354Y11628003D01*
X15760546Y11675957D01*
X15779862Y11721023D01*
X15807560Y11761476D01*
X15842591Y11795781D01*
X15883614Y11822626D01*
X15929073Y11840992D01*
X15977230Y11850178D01*
X16026259Y11849836D01*
X16026259Y11849836D01*
G37*
G36*
X92100558Y11703774D02*
X92102573Y11703760D01*
X92131666Y11700497D01*
X92159570Y11691645D01*
X92185224Y11677542D01*
X92207650Y11658725D01*
X92225994Y11635909D01*
X92239557Y11609966D01*
X92247822Y11581882D01*
X92247826Y11581840D01*
X92247827Y11581836D01*
X92250477Y11552730D01*
X92247422Y11523661D01*
X92247419Y11523651D01*
X92247415Y11523613D01*
X92238758Y11495648D01*
X92224835Y11469896D01*
X92206174Y11447339D01*
X92183488Y11428837D01*
X92157640Y11415093D01*
X92129614Y11406632D01*
X92100479Y11403775D01*
X91697017Y11403775D01*
X91697012Y11403776D01*
X91694997Y11403790D01*
X91665904Y11407053D01*
X91638000Y11415905D01*
X91612346Y11430008D01*
X91589920Y11448825D01*
X91571576Y11471641D01*
X91558013Y11497584D01*
X91549748Y11525668D01*
X91549744Y11525710D01*
X91549743Y11525714D01*
X91547093Y11554820D01*
X91550148Y11583889D01*
X91550151Y11583899D01*
X91550155Y11583937D01*
X91558812Y11611902D01*
X91572735Y11637654D01*
X91591396Y11660211D01*
X91614082Y11678713D01*
X91639930Y11692457D01*
X91667956Y11700918D01*
X91697091Y11703775D01*
X92100553Y11703775D01*
X92100558Y11703774D01*
X92100558Y11703774D01*
G37*
G36*
X89300558Y11703774D02*
X89302573Y11703760D01*
X89331666Y11700497D01*
X89359570Y11691645D01*
X89385224Y11677542D01*
X89407650Y11658725D01*
X89425994Y11635909D01*
X89439557Y11609966D01*
X89447822Y11581882D01*
X89447826Y11581840D01*
X89447827Y11581836D01*
X89450477Y11552730D01*
X89447422Y11523661D01*
X89447419Y11523651D01*
X89447415Y11523613D01*
X89438758Y11495648D01*
X89424835Y11469896D01*
X89406174Y11447339D01*
X89383488Y11428837D01*
X89357640Y11415093D01*
X89329614Y11406632D01*
X89300479Y11403775D01*
X88897017Y11403775D01*
X88897012Y11403776D01*
X88894997Y11403790D01*
X88865904Y11407053D01*
X88838000Y11415905D01*
X88812346Y11430008D01*
X88789920Y11448825D01*
X88771576Y11471641D01*
X88758013Y11497584D01*
X88749748Y11525668D01*
X88749744Y11525710D01*
X88749743Y11525714D01*
X88747093Y11554820D01*
X88750148Y11583889D01*
X88750151Y11583899D01*
X88750155Y11583937D01*
X88758812Y11611902D01*
X88772735Y11637654D01*
X88791396Y11660211D01*
X88814082Y11678713D01*
X88839930Y11692457D01*
X88867956Y11700918D01*
X88897091Y11703775D01*
X89300553Y11703775D01*
X89300558Y11703774D01*
X89300558Y11703774D01*
G37*
G36*
X33747000Y11412000D02*
X32847000Y11412000D01*
X32847000Y12262000D01*
X33747000Y12262000D01*
X33747000Y11412000D01*
X33747000Y11412000D01*
G37*
G36*
X35247000Y11412000D02*
X34347000Y11412000D01*
X34347000Y12262000D01*
X35247000Y12262000D01*
X35247000Y11412000D01*
X35247000Y11412000D01*
G37*
G36*
X89628899Y12402412D02*
X89628909Y12402409D01*
X89628947Y12402405D01*
X89656912Y12393748D01*
X89682664Y12379825D01*
X89705221Y12361164D01*
X89723723Y12338478D01*
X89737467Y12312630D01*
X89745928Y12284604D01*
X89748785Y12255469D01*
X89748785Y11852007D01*
X89748784Y11852002D01*
X89748770Y11849987D01*
X89745507Y11820894D01*
X89736655Y11792990D01*
X89722552Y11767336D01*
X89703735Y11744910D01*
X89680919Y11726566D01*
X89654976Y11713003D01*
X89626892Y11704738D01*
X89626850Y11704734D01*
X89626846Y11704733D01*
X89597740Y11702083D01*
X89568671Y11705138D01*
X89568661Y11705141D01*
X89568623Y11705145D01*
X89540658Y11713802D01*
X89514906Y11727725D01*
X89492349Y11746386D01*
X89473847Y11769072D01*
X89460103Y11794920D01*
X89451642Y11822946D01*
X89448785Y11852081D01*
X89448785Y12255543D01*
X89448786Y12255548D01*
X89448800Y12257563D01*
X89452063Y12286656D01*
X89460915Y12314560D01*
X89475018Y12340214D01*
X89493835Y12362640D01*
X89516651Y12380984D01*
X89542594Y12394547D01*
X89570678Y12402812D01*
X89570720Y12402816D01*
X89570724Y12402817D01*
X89599830Y12405467D01*
X89628899Y12402412D01*
X89628899Y12402412D01*
G37*
G36*
X90078899Y12402412D02*
X90078909Y12402409D01*
X90078947Y12402405D01*
X90106912Y12393748D01*
X90132664Y12379825D01*
X90155221Y12361164D01*
X90173723Y12338478D01*
X90187467Y12312630D01*
X90195928Y12284604D01*
X90198785Y12255469D01*
X90198785Y11852007D01*
X90198784Y11852002D01*
X90198770Y11849987D01*
X90195507Y11820894D01*
X90186655Y11792990D01*
X90172552Y11767336D01*
X90153735Y11744910D01*
X90130919Y11726566D01*
X90104976Y11713003D01*
X90076892Y11704738D01*
X90076850Y11704734D01*
X90076846Y11704733D01*
X90047740Y11702083D01*
X90018671Y11705138D01*
X90018661Y11705141D01*
X90018623Y11705145D01*
X89990658Y11713802D01*
X89964906Y11727725D01*
X89942349Y11746386D01*
X89923847Y11769072D01*
X89910103Y11794920D01*
X89901642Y11822946D01*
X89898785Y11852081D01*
X89898785Y12255543D01*
X89898786Y12255548D01*
X89898800Y12257563D01*
X89902063Y12286656D01*
X89910915Y12314560D01*
X89925018Y12340214D01*
X89943835Y12362640D01*
X89966651Y12380984D01*
X89992594Y12394547D01*
X90020678Y12402812D01*
X90020720Y12402816D01*
X90020724Y12402817D01*
X90049830Y12405467D01*
X90078899Y12402412D01*
X90078899Y12402412D01*
G37*
G36*
X90528899Y12402412D02*
X90528909Y12402409D01*
X90528947Y12402405D01*
X90556912Y12393748D01*
X90582664Y12379825D01*
X90605221Y12361164D01*
X90623723Y12338478D01*
X90637467Y12312630D01*
X90645928Y12284604D01*
X90648785Y12255469D01*
X90648785Y11852007D01*
X90648784Y11852002D01*
X90648770Y11849987D01*
X90645507Y11820894D01*
X90636655Y11792990D01*
X90622552Y11767336D01*
X90603735Y11744910D01*
X90580919Y11726566D01*
X90554976Y11713003D01*
X90526892Y11704738D01*
X90526850Y11704734D01*
X90526846Y11704733D01*
X90497740Y11702083D01*
X90468671Y11705138D01*
X90468661Y11705141D01*
X90468623Y11705145D01*
X90440658Y11713802D01*
X90414906Y11727725D01*
X90392349Y11746386D01*
X90373847Y11769072D01*
X90360103Y11794920D01*
X90351642Y11822946D01*
X90348785Y11852081D01*
X90348785Y12255543D01*
X90348786Y12255548D01*
X90348800Y12257563D01*
X90352063Y12286656D01*
X90360915Y12314560D01*
X90375018Y12340214D01*
X90393835Y12362640D01*
X90416651Y12380984D01*
X90442594Y12394547D01*
X90470678Y12402812D01*
X90470720Y12402816D01*
X90470724Y12402817D01*
X90499830Y12405467D01*
X90528899Y12402412D01*
X90528899Y12402412D01*
G37*
G36*
X91428899Y12402412D02*
X91428909Y12402409D01*
X91428947Y12402405D01*
X91456912Y12393748D01*
X91482664Y12379825D01*
X91505221Y12361164D01*
X91523723Y12338478D01*
X91537467Y12312630D01*
X91545928Y12284604D01*
X91548785Y12255469D01*
X91548785Y11852007D01*
X91548784Y11852002D01*
X91548770Y11849987D01*
X91545507Y11820894D01*
X91536655Y11792990D01*
X91522552Y11767336D01*
X91503735Y11744910D01*
X91480919Y11726566D01*
X91454976Y11713003D01*
X91426892Y11704738D01*
X91426850Y11704734D01*
X91426846Y11704733D01*
X91397740Y11702083D01*
X91368671Y11705138D01*
X91368661Y11705141D01*
X91368623Y11705145D01*
X91340658Y11713802D01*
X91314906Y11727725D01*
X91292349Y11746386D01*
X91273847Y11769072D01*
X91260103Y11794920D01*
X91251642Y11822946D01*
X91248785Y11852081D01*
X91248785Y12255543D01*
X91248786Y12255548D01*
X91248800Y12257563D01*
X91252063Y12286656D01*
X91260915Y12314560D01*
X91275018Y12340214D01*
X91293835Y12362640D01*
X91316651Y12380984D01*
X91342594Y12394547D01*
X91370678Y12402812D01*
X91370720Y12402816D01*
X91370724Y12402817D01*
X91399830Y12405467D01*
X91428899Y12402412D01*
X91428899Y12402412D01*
G37*
G36*
X90978899Y12402412D02*
X90978909Y12402409D01*
X90978947Y12402405D01*
X91006912Y12393748D01*
X91032664Y12379825D01*
X91055221Y12361164D01*
X91073723Y12338478D01*
X91087467Y12312630D01*
X91095928Y12284604D01*
X91098785Y12255469D01*
X91098785Y11852007D01*
X91098784Y11852002D01*
X91098770Y11849987D01*
X91095507Y11820894D01*
X91086655Y11792990D01*
X91072552Y11767336D01*
X91053735Y11744910D01*
X91030919Y11726566D01*
X91004976Y11713003D01*
X90976892Y11704738D01*
X90976850Y11704734D01*
X90976846Y11704733D01*
X90947740Y11702083D01*
X90918671Y11705138D01*
X90918661Y11705141D01*
X90918623Y11705145D01*
X90890658Y11713802D01*
X90864906Y11727725D01*
X90842349Y11746386D01*
X90823847Y11769072D01*
X90810103Y11794920D01*
X90801642Y11822946D01*
X90798785Y11852081D01*
X90798785Y12255543D01*
X90798786Y12255548D01*
X90798800Y12257563D01*
X90802063Y12286656D01*
X90810915Y12314560D01*
X90825018Y12340214D01*
X90843835Y12362640D01*
X90866651Y12380984D01*
X90892594Y12394547D01*
X90920678Y12402812D01*
X90920720Y12402816D01*
X90920724Y12402817D01*
X90949830Y12405467D01*
X90978899Y12402412D01*
X90978899Y12402412D01*
G37*
G36*
X86617000Y11779000D02*
X85617000Y11779000D01*
X85617000Y12379000D01*
X86617000Y12379000D01*
X86617000Y11779000D01*
X86617000Y11779000D01*
G37*
G36*
X84712000Y11779000D02*
X83712000Y11779000D01*
X83712000Y12379000D01*
X84712000Y12379000D01*
X84712000Y11779000D01*
X84712000Y11779000D01*
G37*
G36*
X116133000Y11780000D02*
X115283000Y11780000D01*
X115283000Y12680000D01*
X116133000Y12680000D01*
X116133000Y11780000D01*
X116133000Y11780000D01*
G37*
G36*
X118468000Y11793000D02*
X117568000Y11793000D01*
X117568000Y12643000D01*
X118468000Y12643000D01*
X118468000Y11793000D01*
X118468000Y11793000D01*
G37*
G36*
X119968000Y11793000D02*
X119068000Y11793000D01*
X119068000Y12643000D01*
X119968000Y12643000D01*
X119968000Y11793000D01*
X119968000Y11793000D01*
G37*
G36*
X102675049Y12092017D02*
X101825049Y12092017D01*
X101825049Y12992017D01*
X102675049Y12992017D01*
X102675049Y12092017D01*
X102675049Y12092017D01*
G37*
G36*
X100990049Y12292017D02*
X100290049Y12292017D01*
X100290049Y13492017D01*
X100990049Y13492017D01*
X100990049Y12292017D01*
X100990049Y12292017D01*
G37*
G36*
X99740049Y12292017D02*
X99040049Y12292017D01*
X99040049Y13492017D01*
X99740049Y13492017D01*
X99740049Y12292017D01*
X99740049Y12292017D01*
G37*
G36*
X98490049Y12292017D02*
X97790049Y12292017D01*
X97790049Y13492017D01*
X98490049Y13492017D01*
X98490049Y12292017D01*
X98490049Y12292017D01*
G37*
G36*
X97240049Y12292017D02*
X96540049Y12292017D01*
X96540049Y13492017D01*
X97240049Y13492017D01*
X97240049Y12292017D01*
X97240049Y12292017D01*
G37*
G36*
X10204782Y14343369D02*
X10387284Y14305907D01*
X10559029Y14233712D01*
X10713483Y14129532D01*
X10844762Y13997333D01*
X10947862Y13842156D01*
X11018856Y13669911D01*
X11054975Y13487496D01*
X11054975Y13487486D01*
X11055041Y13487152D01*
X11052070Y13274357D01*
X11051994Y13274023D01*
X11051994Y13274011D01*
X11010798Y13092684D01*
X10935019Y12922484D01*
X10827628Y12770246D01*
X10692707Y12641763D01*
X10535408Y12541939D01*
X10361710Y12474565D01*
X10178238Y12442215D01*
X9991974Y12446116D01*
X9810011Y12486123D01*
X9639289Y12560710D01*
X9486306Y12667036D01*
X9356885Y12801054D01*
X9255965Y12957652D01*
X9187381Y13130875D01*
X9153748Y13314124D01*
X9156350Y13500409D01*
X9195084Y13682640D01*
X9268479Y13853882D01*
X9373735Y14007604D01*
X9506846Y14137957D01*
X9662738Y14239970D01*
X9835477Y14309761D01*
X10018479Y14344670D01*
X10204782Y14343369D01*
X10204782Y14343369D01*
G37*
G36*
X21192782Y14437369D02*
X21375284Y14399907D01*
X21547029Y14327712D01*
X21701483Y14223532D01*
X21832762Y14091333D01*
X21935862Y13936156D01*
X22006856Y13763911D01*
X22042975Y13581496D01*
X22042975Y13581486D01*
X22043041Y13581152D01*
X22040070Y13368357D01*
X22039994Y13368023D01*
X22039994Y13368011D01*
X21998798Y13186684D01*
X21923019Y13016484D01*
X21815628Y12864246D01*
X21680707Y12735763D01*
X21523408Y12635939D01*
X21349710Y12568565D01*
X21166238Y12536215D01*
X20979974Y12540116D01*
X20798011Y12580123D01*
X20627289Y12654710D01*
X20474306Y12761036D01*
X20344885Y12895054D01*
X20243965Y13051652D01*
X20175381Y13224875D01*
X20141748Y13408124D01*
X20144350Y13594409D01*
X20183084Y13776640D01*
X20256479Y13947882D01*
X20361735Y14101604D01*
X20494846Y14231957D01*
X20650738Y14333970D01*
X20823477Y14403761D01*
X21006479Y14438670D01*
X21192782Y14437369D01*
X21192782Y14437369D01*
G37*
G36*
X16026259Y13149836D02*
X16074287Y13139977D01*
X16119481Y13120979D01*
X16160131Y13093561D01*
X16194677Y13058773D01*
X16221806Y13017938D01*
X16240490Y12972609D01*
X16249945Y12924859D01*
X16249945Y12924848D01*
X16250011Y12924514D01*
X16249229Y12868515D01*
X16249153Y12868181D01*
X16249153Y12868173D01*
X16238369Y12820702D01*
X16218428Y12775916D01*
X16190166Y12735851D01*
X16154663Y12702044D01*
X16113265Y12675771D01*
X16067555Y12658042D01*
X16019274Y12649528D01*
X15970257Y12650555D01*
X15922370Y12661083D01*
X15877443Y12680712D01*
X15837185Y12708692D01*
X15803125Y12743962D01*
X15776569Y12785169D01*
X15758518Y12830760D01*
X15749668Y12878977D01*
X15750354Y12928003D01*
X15760546Y12975957D01*
X15779862Y13021023D01*
X15807560Y13061476D01*
X15842591Y13095781D01*
X15883614Y13122626D01*
X15929073Y13140992D01*
X15977230Y13150178D01*
X16026259Y13149836D01*
X16026259Y13149836D01*
G37*
G36*
X121915195Y12719513D02*
X120815195Y12719513D01*
X120815195Y14069513D01*
X121915195Y14069513D01*
X121915195Y12719513D01*
X121915195Y12719513D01*
G37*
G36*
X123915195Y12719513D02*
X122815195Y12719513D01*
X122815195Y14069513D01*
X123915195Y14069513D01*
X123915195Y12719513D01*
X123915195Y12719513D01*
G37*
G36*
X34800000Y12976000D02*
X34350000Y12976000D01*
X34350000Y13876000D01*
X34800000Y13876000D01*
X34800000Y12976000D01*
X34800000Y12976000D01*
G37*
G36*
X34150000Y12976000D02*
X33700000Y12976000D01*
X33700000Y13876000D01*
X34150000Y13876000D01*
X34150000Y12976000D01*
X34150000Y12976000D01*
G37*
G36*
X33500000Y12976000D02*
X33050000Y12976000D01*
X33050000Y13876000D01*
X33500000Y13876000D01*
X33500000Y12976000D01*
X33500000Y12976000D01*
G37*
G36*
X32850000Y12976000D02*
X32400000Y12976000D01*
X32400000Y13876000D01*
X32850000Y13876000D01*
X32850000Y12976000D01*
X32850000Y12976000D01*
G37*
G36*
X116133000Y13280000D02*
X115283000Y13280000D01*
X115283000Y14180000D01*
X116133000Y14180000D01*
X116133000Y13280000D01*
X116133000Y13280000D01*
G37*
G36*
X25037000Y13337000D02*
X24187000Y13337000D01*
X24187000Y14237000D01*
X25037000Y14237000D01*
X25037000Y13337000D01*
X25037000Y13337000D01*
G37*
G36*
X95103736Y14166680D02*
X95103746Y14166677D01*
X95103784Y14166673D01*
X95131749Y14158016D01*
X95157501Y14144093D01*
X95180058Y14125432D01*
X95198560Y14102746D01*
X95212304Y14076898D01*
X95220765Y14048872D01*
X95223622Y14019737D01*
X95223622Y13666517D01*
X95223621Y13666512D01*
X95223607Y13664497D01*
X95220344Y13635404D01*
X95211492Y13607500D01*
X95197389Y13581846D01*
X95178572Y13559420D01*
X95155756Y13541076D01*
X95129813Y13527513D01*
X95101729Y13519248D01*
X95101687Y13519244D01*
X95101683Y13519243D01*
X95072577Y13516593D01*
X95043508Y13519648D01*
X95043498Y13519651D01*
X95043460Y13519655D01*
X95015495Y13528312D01*
X94989743Y13542235D01*
X94967186Y13560896D01*
X94948684Y13583582D01*
X94934940Y13609430D01*
X94926479Y13637456D01*
X94923622Y13666591D01*
X94923622Y13668792D01*
X94923383Y13671229D01*
X94920054Y13684899D01*
X94913048Y13697100D01*
X94902920Y13706867D01*
X94890473Y13713425D01*
X94876691Y13716256D01*
X94862666Y13715135D01*
X94849508Y13710151D01*
X94838260Y13701699D01*
X94829812Y13690448D01*
X94824833Y13677289D01*
X94823623Y13666690D01*
X94823622Y13666517D01*
X94823621Y13666512D01*
X94823607Y13664497D01*
X94820344Y13635404D01*
X94811492Y13607500D01*
X94797389Y13581846D01*
X94778572Y13559420D01*
X94755756Y13541076D01*
X94729813Y13527513D01*
X94701729Y13519248D01*
X94701687Y13519244D01*
X94701683Y13519243D01*
X94672577Y13516593D01*
X94643508Y13519648D01*
X94643498Y13519651D01*
X94643460Y13519655D01*
X94615495Y13528312D01*
X94589743Y13542235D01*
X94567186Y13560896D01*
X94548684Y13583582D01*
X94534940Y13609430D01*
X94526479Y13637456D01*
X94523622Y13666591D01*
X94523622Y13668792D01*
X94523383Y13671229D01*
X94520054Y13684899D01*
X94513048Y13697100D01*
X94502920Y13706867D01*
X94490473Y13713425D01*
X94476691Y13716256D01*
X94462666Y13715135D01*
X94449508Y13710151D01*
X94438260Y13701699D01*
X94429812Y13690448D01*
X94424833Y13677289D01*
X94423623Y13666690D01*
X94423622Y13666517D01*
X94423621Y13666512D01*
X94423607Y13664497D01*
X94420344Y13635404D01*
X94411492Y13607500D01*
X94397389Y13581846D01*
X94378572Y13559420D01*
X94355756Y13541076D01*
X94329813Y13527513D01*
X94301729Y13519248D01*
X94301687Y13519244D01*
X94301683Y13519243D01*
X94272577Y13516593D01*
X94243508Y13519648D01*
X94243498Y13519651D01*
X94243460Y13519655D01*
X94215495Y13528312D01*
X94189743Y13542235D01*
X94167186Y13560896D01*
X94148684Y13583582D01*
X94134940Y13609430D01*
X94126479Y13637456D01*
X94123622Y13666591D01*
X94123622Y13668792D01*
X94123383Y13671229D01*
X94120054Y13684899D01*
X94113048Y13697100D01*
X94102920Y13706867D01*
X94090473Y13713425D01*
X94076691Y13716256D01*
X94062666Y13715135D01*
X94049508Y13710151D01*
X94038260Y13701699D01*
X94029812Y13690448D01*
X94024833Y13677289D01*
X94023623Y13666690D01*
X94023622Y13666517D01*
X94023621Y13666512D01*
X94023607Y13664497D01*
X94020344Y13635404D01*
X94011492Y13607500D01*
X93997389Y13581846D01*
X93978572Y13559420D01*
X93955756Y13541076D01*
X93929813Y13527513D01*
X93901729Y13519248D01*
X93901687Y13519244D01*
X93901683Y13519243D01*
X93872577Y13516593D01*
X93843508Y13519648D01*
X93843498Y13519651D01*
X93843460Y13519655D01*
X93815495Y13528312D01*
X93789743Y13542235D01*
X93767186Y13560896D01*
X93748684Y13583582D01*
X93734940Y13609430D01*
X93726479Y13637456D01*
X93723622Y13666591D01*
X93723622Y13668792D01*
X93723383Y13671229D01*
X93720054Y13684899D01*
X93713048Y13697100D01*
X93702920Y13706867D01*
X93690473Y13713425D01*
X93676691Y13716256D01*
X93662666Y13715135D01*
X93649508Y13710151D01*
X93638260Y13701699D01*
X93629812Y13690448D01*
X93624833Y13677289D01*
X93623623Y13666690D01*
X93623622Y13666517D01*
X93623621Y13666512D01*
X93623607Y13664497D01*
X93620344Y13635404D01*
X93611492Y13607500D01*
X93597389Y13581846D01*
X93578572Y13559420D01*
X93555756Y13541076D01*
X93529813Y13527513D01*
X93501729Y13519248D01*
X93501687Y13519244D01*
X93501683Y13519243D01*
X93472577Y13516593D01*
X93443508Y13519648D01*
X93443498Y13519651D01*
X93443460Y13519655D01*
X93415495Y13528312D01*
X93389743Y13542235D01*
X93367186Y13560896D01*
X93348684Y13583582D01*
X93334940Y13609430D01*
X93326479Y13637456D01*
X93323622Y13666591D01*
X93323622Y13668792D01*
X93323383Y13671229D01*
X93320054Y13684899D01*
X93313048Y13697100D01*
X93302920Y13706867D01*
X93290473Y13713425D01*
X93276691Y13716256D01*
X93262666Y13715135D01*
X93249508Y13710151D01*
X93238260Y13701699D01*
X93229812Y13690448D01*
X93224833Y13677289D01*
X93223623Y13666690D01*
X93223622Y13666517D01*
X93223621Y13666512D01*
X93223607Y13664497D01*
X93220344Y13635404D01*
X93211492Y13607500D01*
X93197389Y13581846D01*
X93178572Y13559420D01*
X93155756Y13541076D01*
X93129813Y13527513D01*
X93101729Y13519248D01*
X93101687Y13519244D01*
X93101683Y13519243D01*
X93072577Y13516593D01*
X93043508Y13519648D01*
X93043498Y13519651D01*
X93043460Y13519655D01*
X93015495Y13528312D01*
X92989743Y13542235D01*
X92967186Y13560896D01*
X92948684Y13583582D01*
X92934940Y13609430D01*
X92926479Y13637456D01*
X92923622Y13666591D01*
X92923622Y14019811D01*
X92923623Y14019816D01*
X92923637Y14021831D01*
X92926900Y14050924D01*
X92935752Y14078828D01*
X92949855Y14104482D01*
X92968672Y14126908D01*
X92991488Y14145252D01*
X93017431Y14158815D01*
X93045515Y14167080D01*
X93045557Y14167084D01*
X93045561Y14167085D01*
X93074667Y14169735D01*
X93103736Y14166680D01*
X93103746Y14166677D01*
X93103784Y14166673D01*
X93131749Y14158016D01*
X93157501Y14144093D01*
X93180058Y14125432D01*
X93198560Y14102746D01*
X93212304Y14076898D01*
X93220765Y14048872D01*
X93223622Y14019737D01*
X93223622Y14017537D01*
X93223861Y14015099D01*
X93227190Y14001429D01*
X93234196Y13989228D01*
X93244324Y13979461D01*
X93256771Y13972903D01*
X93270553Y13970072D01*
X93284578Y13971193D01*
X93297736Y13976177D01*
X93308984Y13984629D01*
X93317432Y13995880D01*
X93322411Y14009039D01*
X93323621Y14019638D01*
X93323622Y14019811D01*
X93323623Y14019816D01*
X93323637Y14021831D01*
X93326900Y14050924D01*
X93335752Y14078828D01*
X93349855Y14104482D01*
X93368672Y14126908D01*
X93391488Y14145252D01*
X93417431Y14158815D01*
X93445515Y14167080D01*
X93445557Y14167084D01*
X93445561Y14167085D01*
X93474667Y14169735D01*
X93503736Y14166680D01*
X93503746Y14166677D01*
X93503784Y14166673D01*
X93531749Y14158016D01*
X93557501Y14144093D01*
X93580058Y14125432D01*
X93598560Y14102746D01*
X93612304Y14076898D01*
X93620765Y14048872D01*
X93623622Y14019737D01*
X93623622Y14017537D01*
X93623861Y14015099D01*
X93627190Y14001429D01*
X93634196Y13989228D01*
X93644324Y13979461D01*
X93656771Y13972903D01*
X93670553Y13970072D01*
X93684578Y13971193D01*
X93697736Y13976177D01*
X93708984Y13984629D01*
X93717432Y13995880D01*
X93722411Y14009039D01*
X93723621Y14019638D01*
X93723622Y14019811D01*
X93723623Y14019816D01*
X93723637Y14021831D01*
X93726900Y14050924D01*
X93735752Y14078828D01*
X93749855Y14104482D01*
X93768672Y14126908D01*
X93791488Y14145252D01*
X93817431Y14158815D01*
X93845515Y14167080D01*
X93845557Y14167084D01*
X93845561Y14167085D01*
X93874667Y14169735D01*
X93903736Y14166680D01*
X93903746Y14166677D01*
X93903784Y14166673D01*
X93931749Y14158016D01*
X93957501Y14144093D01*
X93980058Y14125432D01*
X93998560Y14102746D01*
X94012304Y14076898D01*
X94020765Y14048872D01*
X94023622Y14019737D01*
X94023622Y14017537D01*
X94023861Y14015099D01*
X94027190Y14001429D01*
X94034196Y13989228D01*
X94044324Y13979461D01*
X94056771Y13972903D01*
X94070553Y13970072D01*
X94084578Y13971193D01*
X94097736Y13976177D01*
X94108984Y13984629D01*
X94117432Y13995880D01*
X94122411Y14009039D01*
X94123621Y14019638D01*
X94123622Y14019811D01*
X94123623Y14019816D01*
X94123637Y14021831D01*
X94126900Y14050924D01*
X94135752Y14078828D01*
X94149855Y14104482D01*
X94168672Y14126908D01*
X94191488Y14145252D01*
X94217431Y14158815D01*
X94245515Y14167080D01*
X94245557Y14167084D01*
X94245561Y14167085D01*
X94274667Y14169735D01*
X94303736Y14166680D01*
X94303746Y14166677D01*
X94303784Y14166673D01*
X94331749Y14158016D01*
X94357501Y14144093D01*
X94380058Y14125432D01*
X94398560Y14102746D01*
X94412304Y14076898D01*
X94420765Y14048872D01*
X94423622Y14019737D01*
X94423622Y14017537D01*
X94423861Y14015099D01*
X94427190Y14001429D01*
X94434196Y13989228D01*
X94444324Y13979461D01*
X94456771Y13972903D01*
X94470553Y13970072D01*
X94484578Y13971193D01*
X94497736Y13976177D01*
X94508984Y13984629D01*
X94517432Y13995880D01*
X94522411Y14009039D01*
X94523621Y14019638D01*
X94523622Y14019811D01*
X94523623Y14019816D01*
X94523637Y14021831D01*
X94526900Y14050924D01*
X94535752Y14078828D01*
X94549855Y14104482D01*
X94568672Y14126908D01*
X94591488Y14145252D01*
X94617431Y14158815D01*
X94645515Y14167080D01*
X94645557Y14167084D01*
X94645561Y14167085D01*
X94674667Y14169735D01*
X94703736Y14166680D01*
X94703746Y14166677D01*
X94703784Y14166673D01*
X94731749Y14158016D01*
X94757501Y14144093D01*
X94780058Y14125432D01*
X94798560Y14102746D01*
X94812304Y14076898D01*
X94820765Y14048872D01*
X94823622Y14019737D01*
X94823622Y14017537D01*
X94823861Y14015099D01*
X94827190Y14001429D01*
X94834196Y13989228D01*
X94844324Y13979461D01*
X94856771Y13972903D01*
X94870553Y13970072D01*
X94884578Y13971193D01*
X94897736Y13976177D01*
X94908984Y13984629D01*
X94917432Y13995880D01*
X94922411Y14009039D01*
X94923621Y14019638D01*
X94923622Y14019811D01*
X94923623Y14019816D01*
X94923637Y14021831D01*
X94926900Y14050924D01*
X94935752Y14078828D01*
X94949855Y14104482D01*
X94968672Y14126908D01*
X94991488Y14145252D01*
X95017431Y14158815D01*
X95045515Y14167080D01*
X95045557Y14167084D01*
X95045561Y14167085D01*
X95074667Y14169735D01*
X95103736Y14166680D01*
X95103736Y14166680D01*
G37*
G36*
X13595000Y13714000D02*
X11695000Y13714000D01*
X11695000Y15614000D01*
X13595000Y15614000D01*
X13595000Y13714000D01*
X13595000Y13714000D01*
G37*
G36*
X130995195Y13741513D02*
X126795195Y13741513D01*
X126795195Y15691513D01*
X130995195Y15691513D01*
X130995195Y13741513D01*
X130995195Y13741513D01*
G37*
G36*
X19503000Y13808000D02*
X17603000Y13808000D01*
X17603000Y15708000D01*
X19503000Y15708000D01*
X19503000Y13808000D01*
X19503000Y13808000D01*
G37*
G36*
X16026259Y14349836D02*
X16074287Y14339977D01*
X16119481Y14320979D01*
X16160131Y14293561D01*
X16194677Y14258773D01*
X16221806Y14217938D01*
X16240490Y14172609D01*
X16249945Y14124859D01*
X16249945Y14124848D01*
X16250011Y14124514D01*
X16249229Y14068515D01*
X16249153Y14068181D01*
X16249153Y14068173D01*
X16238369Y14020702D01*
X16218428Y13975916D01*
X16190166Y13935851D01*
X16154663Y13902044D01*
X16113265Y13875771D01*
X16067555Y13858042D01*
X16019274Y13849528D01*
X15970257Y13850555D01*
X15922370Y13861083D01*
X15877443Y13880712D01*
X15837185Y13908692D01*
X15803125Y13943962D01*
X15776569Y13985169D01*
X15758518Y14030760D01*
X15749668Y14078977D01*
X15750354Y14128003D01*
X15760546Y14175957D01*
X15779862Y14221023D01*
X15807560Y14261476D01*
X15842591Y14295781D01*
X15883614Y14322626D01*
X15929073Y14340992D01*
X15977230Y14350178D01*
X16026259Y14349836D01*
X16026259Y14349836D01*
G37*
G36*
X82760032Y13891114D02*
X82160032Y13891114D01*
X82160032Y14891114D01*
X82760032Y14891114D01*
X82760032Y13891114D01*
X82760032Y13891114D01*
G37*
G36*
X81260032Y13891114D02*
X80660032Y13891114D01*
X80660032Y14891114D01*
X81260032Y14891114D01*
X81260032Y13891114D01*
X81260032Y13891114D01*
G37*
G36*
X91553622Y13943164D02*
X90703622Y13943164D01*
X90703622Y14843164D01*
X91553622Y14843164D01*
X91553622Y13943164D01*
X91553622Y13943164D01*
G37*
G36*
X139267837Y19048303D02*
X139757706Y18947747D01*
X140218709Y18753959D01*
X140633296Y18474317D01*
X140985672Y18119472D01*
X141262413Y17702945D01*
X141452978Y17240600D01*
X141550043Y16750384D01*
X141550043Y16750374D01*
X141550109Y16750040D01*
X141542133Y16178854D01*
X141542057Y16178520D01*
X141542057Y16178508D01*
X141431344Y15691202D01*
X141227942Y15234353D01*
X140939680Y14825715D01*
X140577531Y14480846D01*
X140155303Y14212892D01*
X139689064Y14032049D01*
X139196583Y13945212D01*
X138696611Y13955684D01*
X138208189Y14063071D01*
X137749938Y14263276D01*
X137339297Y14548679D01*
X136991909Y14908410D01*
X136721014Y15328757D01*
X136536921Y15793721D01*
X136446646Y16285592D01*
X136453629Y16785623D01*
X136557600Y17274773D01*
X136754605Y17734417D01*
X137037134Y18147040D01*
X137394429Y18496931D01*
X137812878Y18770756D01*
X138276545Y18958090D01*
X138767765Y19051795D01*
X139267837Y19048303D01*
X139267837Y19048303D01*
G37*
G36*
X78070032Y13958000D02*
X76870032Y13958000D01*
X76870032Y15558000D01*
X78070032Y15558000D01*
X78070032Y13958000D01*
X78070032Y13958000D01*
G37*
G36*
X79570032Y13958000D02*
X78370032Y13958000D01*
X78370032Y15558000D01*
X79570032Y15558000D01*
X79570032Y13958000D01*
X79570032Y13958000D01*
G37*
G36*
X34900000Y14126000D02*
X32300000Y14126000D01*
X32300000Y16726000D01*
X34900000Y16726000D01*
X34900000Y14126000D01*
X34900000Y14126000D01*
G37*
G36*
X102307000Y14155000D02*
X100407000Y14155000D01*
X100407000Y15055000D01*
X102307000Y15055000D01*
X102307000Y14155000D01*
X102307000Y14155000D01*
G37*
G36*
X99840049Y14161017D02*
X98940049Y14161017D01*
X98940049Y15011017D01*
X99840049Y15011017D01*
X99840049Y14161017D01*
X99840049Y14161017D01*
G37*
G36*
X98340049Y14161017D02*
X97440049Y14161017D01*
X97440049Y15011017D01*
X98340049Y15011017D01*
X98340049Y14161017D01*
X98340049Y14161017D01*
G37*
G36*
X92750274Y16493163D02*
X92752289Y16493149D01*
X92781382Y16489886D01*
X92809286Y16481034D01*
X92834940Y16466931D01*
X92857366Y16448114D01*
X92875710Y16425298D01*
X92889273Y16399355D01*
X92897538Y16371271D01*
X92897542Y16371229D01*
X92897543Y16371225D01*
X92900193Y16342119D01*
X92897138Y16313050D01*
X92897135Y16313040D01*
X92897131Y16313002D01*
X92888474Y16285037D01*
X92874551Y16259285D01*
X92855890Y16236728D01*
X92833204Y16218226D01*
X92807356Y16204482D01*
X92779330Y16196021D01*
X92750195Y16193164D01*
X92747995Y16193164D01*
X92745557Y16192925D01*
X92731887Y16189596D01*
X92719686Y16182590D01*
X92709919Y16172462D01*
X92703361Y16160015D01*
X92700530Y16146233D01*
X92701651Y16132208D01*
X92706635Y16119050D01*
X92715087Y16107802D01*
X92726338Y16099354D01*
X92739497Y16094375D01*
X92750096Y16093165D01*
X92750269Y16093164D01*
X92750274Y16093163D01*
X92752289Y16093149D01*
X92781382Y16089886D01*
X92809286Y16081034D01*
X92834940Y16066931D01*
X92857366Y16048114D01*
X92875710Y16025298D01*
X92889273Y15999355D01*
X92897538Y15971271D01*
X92897542Y15971229D01*
X92897543Y15971225D01*
X92900193Y15942119D01*
X92897138Y15913050D01*
X92897135Y15913040D01*
X92897131Y15913002D01*
X92888474Y15885037D01*
X92874551Y15859285D01*
X92855890Y15836728D01*
X92833204Y15818226D01*
X92807356Y15804482D01*
X92779330Y15796021D01*
X92750195Y15793164D01*
X92747995Y15793164D01*
X92745557Y15792925D01*
X92731887Y15789596D01*
X92719686Y15782590D01*
X92709919Y15772462D01*
X92703361Y15760015D01*
X92700530Y15746233D01*
X92701651Y15732208D01*
X92706635Y15719050D01*
X92715087Y15707802D01*
X92726338Y15699354D01*
X92739497Y15694375D01*
X92750096Y15693165D01*
X92750269Y15693164D01*
X92750274Y15693163D01*
X92752289Y15693149D01*
X92781382Y15689886D01*
X92809286Y15681034D01*
X92834940Y15666931D01*
X92857366Y15648114D01*
X92875710Y15625298D01*
X92889273Y15599355D01*
X92897538Y15571271D01*
X92897542Y15571229D01*
X92897543Y15571225D01*
X92900193Y15542119D01*
X92897138Y15513050D01*
X92897135Y15513040D01*
X92897131Y15513002D01*
X92888474Y15485037D01*
X92874551Y15459285D01*
X92855890Y15436728D01*
X92833204Y15418226D01*
X92807356Y15404482D01*
X92779330Y15396021D01*
X92750195Y15393164D01*
X92747995Y15393164D01*
X92745557Y15392925D01*
X92731887Y15389596D01*
X92719686Y15382590D01*
X92709919Y15372462D01*
X92703361Y15360015D01*
X92700530Y15346233D01*
X92701651Y15332208D01*
X92706635Y15319050D01*
X92715087Y15307802D01*
X92726338Y15299354D01*
X92739497Y15294375D01*
X92750096Y15293165D01*
X92750269Y15293164D01*
X92750274Y15293163D01*
X92752289Y15293149D01*
X92781382Y15289886D01*
X92809286Y15281034D01*
X92834940Y15266931D01*
X92857366Y15248114D01*
X92875710Y15225298D01*
X92889273Y15199355D01*
X92897538Y15171271D01*
X92897542Y15171229D01*
X92897543Y15171225D01*
X92900193Y15142119D01*
X92897138Y15113050D01*
X92897135Y15113040D01*
X92897131Y15113002D01*
X92888474Y15085037D01*
X92874551Y15059285D01*
X92855890Y15036728D01*
X92833204Y15018226D01*
X92807356Y15004482D01*
X92779330Y14996021D01*
X92750195Y14993164D01*
X92747995Y14993164D01*
X92745557Y14992925D01*
X92731887Y14989596D01*
X92719686Y14982590D01*
X92709919Y14972462D01*
X92703361Y14960015D01*
X92700530Y14946233D01*
X92701651Y14932208D01*
X92706635Y14919050D01*
X92715087Y14907802D01*
X92726338Y14899354D01*
X92739497Y14894375D01*
X92750096Y14893165D01*
X92750269Y14893164D01*
X92750274Y14893163D01*
X92752289Y14893149D01*
X92781382Y14889886D01*
X92809286Y14881034D01*
X92834940Y14866931D01*
X92857366Y14848114D01*
X92875710Y14825298D01*
X92889273Y14799355D01*
X92897538Y14771271D01*
X92897542Y14771229D01*
X92897543Y14771225D01*
X92900193Y14742119D01*
X92897138Y14713050D01*
X92897135Y14713040D01*
X92897131Y14713002D01*
X92888474Y14685037D01*
X92874551Y14659285D01*
X92855890Y14636728D01*
X92833204Y14618226D01*
X92807356Y14604482D01*
X92779330Y14596021D01*
X92750195Y14593164D01*
X92747995Y14593164D01*
X92745557Y14592925D01*
X92731887Y14589596D01*
X92719686Y14582590D01*
X92709919Y14572462D01*
X92703361Y14560015D01*
X92700530Y14546233D01*
X92701651Y14532208D01*
X92706635Y14519050D01*
X92715087Y14507802D01*
X92726338Y14499354D01*
X92739497Y14494375D01*
X92750096Y14493165D01*
X92750269Y14493164D01*
X92750274Y14493163D01*
X92752289Y14493149D01*
X92781382Y14489886D01*
X92809286Y14481034D01*
X92834940Y14466931D01*
X92857366Y14448114D01*
X92875710Y14425298D01*
X92889273Y14399355D01*
X92897538Y14371271D01*
X92897542Y14371229D01*
X92897543Y14371225D01*
X92900193Y14342119D01*
X92897138Y14313050D01*
X92897135Y14313040D01*
X92897131Y14313002D01*
X92888474Y14285037D01*
X92874551Y14259285D01*
X92855890Y14236728D01*
X92833204Y14218226D01*
X92807356Y14204482D01*
X92779330Y14196021D01*
X92750195Y14193164D01*
X92396975Y14193164D01*
X92396970Y14193165D01*
X92394955Y14193179D01*
X92365862Y14196442D01*
X92337958Y14205294D01*
X92312304Y14219397D01*
X92289878Y14238214D01*
X92271534Y14261030D01*
X92257971Y14286973D01*
X92249706Y14315057D01*
X92249702Y14315099D01*
X92249701Y14315103D01*
X92247051Y14344209D01*
X92250106Y14373278D01*
X92250109Y14373288D01*
X92250113Y14373326D01*
X92258770Y14401291D01*
X92272693Y14427043D01*
X92291354Y14449600D01*
X92314040Y14468102D01*
X92339888Y14481846D01*
X92367914Y14490307D01*
X92397049Y14493164D01*
X92399249Y14493164D01*
X92401687Y14493403D01*
X92415357Y14496732D01*
X92427558Y14503738D01*
X92437325Y14513866D01*
X92443883Y14526313D01*
X92446714Y14540095D01*
X92445593Y14554120D01*
X92440609Y14567278D01*
X92432157Y14578526D01*
X92420906Y14586974D01*
X92407747Y14591953D01*
X92397148Y14593163D01*
X92396975Y14593164D01*
X92396970Y14593165D01*
X92394955Y14593179D01*
X92365862Y14596442D01*
X92337958Y14605294D01*
X92312304Y14619397D01*
X92289878Y14638214D01*
X92271534Y14661030D01*
X92257971Y14686973D01*
X92249706Y14715057D01*
X92249702Y14715099D01*
X92249701Y14715103D01*
X92247051Y14744209D01*
X92250106Y14773278D01*
X92250109Y14773288D01*
X92250113Y14773326D01*
X92258770Y14801291D01*
X92272693Y14827043D01*
X92291354Y14849600D01*
X92314040Y14868102D01*
X92339888Y14881846D01*
X92367914Y14890307D01*
X92397049Y14893164D01*
X92399249Y14893164D01*
X92401687Y14893403D01*
X92415357Y14896732D01*
X92427558Y14903738D01*
X92437325Y14913866D01*
X92443883Y14926313D01*
X92446714Y14940095D01*
X92445593Y14954120D01*
X92440609Y14967278D01*
X92432157Y14978526D01*
X92420906Y14986974D01*
X92407747Y14991953D01*
X92397148Y14993163D01*
X92396975Y14993164D01*
X92396970Y14993165D01*
X92394955Y14993179D01*
X92365862Y14996442D01*
X92337958Y15005294D01*
X92312304Y15019397D01*
X92289878Y15038214D01*
X92271534Y15061030D01*
X92257971Y15086973D01*
X92249706Y15115057D01*
X92249702Y15115099D01*
X92249701Y15115103D01*
X92247051Y15144209D01*
X92250106Y15173278D01*
X92250109Y15173288D01*
X92250113Y15173326D01*
X92258770Y15201291D01*
X92272693Y15227043D01*
X92291354Y15249600D01*
X92314040Y15268102D01*
X92339888Y15281846D01*
X92367914Y15290307D01*
X92397049Y15293164D01*
X92399249Y15293164D01*
X92401687Y15293403D01*
X92415357Y15296732D01*
X92427558Y15303738D01*
X92437325Y15313866D01*
X92443883Y15326313D01*
X92446714Y15340095D01*
X92445593Y15354120D01*
X92440609Y15367278D01*
X92432157Y15378526D01*
X92420906Y15386974D01*
X92407747Y15391953D01*
X92397148Y15393163D01*
X92396975Y15393164D01*
X92396970Y15393165D01*
X92394955Y15393179D01*
X92365862Y15396442D01*
X92337958Y15405294D01*
X92312304Y15419397D01*
X92289878Y15438214D01*
X92271534Y15461030D01*
X92257971Y15486973D01*
X92249706Y15515057D01*
X92249702Y15515099D01*
X92249701Y15515103D01*
X92247051Y15544209D01*
X92250106Y15573278D01*
X92250109Y15573288D01*
X92250113Y15573326D01*
X92258770Y15601291D01*
X92272693Y15627043D01*
X92291354Y15649600D01*
X92314040Y15668102D01*
X92339888Y15681846D01*
X92367914Y15690307D01*
X92397049Y15693164D01*
X92399249Y15693164D01*
X92401687Y15693403D01*
X92415357Y15696732D01*
X92427558Y15703738D01*
X92437325Y15713866D01*
X92443883Y15726313D01*
X92446714Y15740095D01*
X92445593Y15754120D01*
X92440609Y15767278D01*
X92432157Y15778526D01*
X92420906Y15786974D01*
X92407747Y15791953D01*
X92397148Y15793163D01*
X92396975Y15793164D01*
X92396970Y15793165D01*
X92394955Y15793179D01*
X92365862Y15796442D01*
X92337958Y15805294D01*
X92312304Y15819397D01*
X92289878Y15838214D01*
X92271534Y15861030D01*
X92257971Y15886973D01*
X92249706Y15915057D01*
X92249702Y15915099D01*
X92249701Y15915103D01*
X92247051Y15944209D01*
X92250106Y15973278D01*
X92250109Y15973288D01*
X92250113Y15973326D01*
X92258770Y16001291D01*
X92272693Y16027043D01*
X92291354Y16049600D01*
X92314040Y16068102D01*
X92339888Y16081846D01*
X92367914Y16090307D01*
X92397049Y16093164D01*
X92399249Y16093164D01*
X92401687Y16093403D01*
X92415357Y16096732D01*
X92427558Y16103738D01*
X92437325Y16113866D01*
X92443883Y16126313D01*
X92446714Y16140095D01*
X92445593Y16154120D01*
X92440609Y16167278D01*
X92432157Y16178526D01*
X92420906Y16186974D01*
X92407747Y16191953D01*
X92397148Y16193163D01*
X92396975Y16193164D01*
X92396970Y16193165D01*
X92394955Y16193179D01*
X92365862Y16196442D01*
X92337958Y16205294D01*
X92312304Y16219397D01*
X92289878Y16238214D01*
X92271534Y16261030D01*
X92257971Y16286973D01*
X92249706Y16315057D01*
X92249702Y16315099D01*
X92249701Y16315103D01*
X92247051Y16344209D01*
X92250106Y16373278D01*
X92250109Y16373288D01*
X92250113Y16373326D01*
X92258770Y16401291D01*
X92272693Y16427043D01*
X92291354Y16449600D01*
X92314040Y16468102D01*
X92339888Y16481846D01*
X92367914Y16490307D01*
X92397049Y16493164D01*
X92750269Y16493164D01*
X92750274Y16493163D01*
X92750274Y16493163D01*
G37*
G36*
X95750274Y16493163D02*
X95752289Y16493149D01*
X95781382Y16489886D01*
X95809286Y16481034D01*
X95834940Y16466931D01*
X95857366Y16448114D01*
X95875710Y16425298D01*
X95889273Y16399355D01*
X95897538Y16371271D01*
X95897542Y16371229D01*
X95897543Y16371225D01*
X95900193Y16342119D01*
X95897138Y16313050D01*
X95897135Y16313040D01*
X95897131Y16313002D01*
X95888474Y16285037D01*
X95874551Y16259285D01*
X95855890Y16236728D01*
X95833204Y16218226D01*
X95807356Y16204482D01*
X95779330Y16196021D01*
X95750195Y16193164D01*
X95747995Y16193164D01*
X95745557Y16192925D01*
X95731887Y16189596D01*
X95719686Y16182590D01*
X95709919Y16172462D01*
X95703361Y16160015D01*
X95700530Y16146233D01*
X95701651Y16132208D01*
X95706635Y16119050D01*
X95715087Y16107802D01*
X95726338Y16099354D01*
X95739497Y16094375D01*
X95750096Y16093165D01*
X95750269Y16093164D01*
X95750274Y16093163D01*
X95752289Y16093149D01*
X95781382Y16089886D01*
X95809286Y16081034D01*
X95834940Y16066931D01*
X95857366Y16048114D01*
X95875710Y16025298D01*
X95889273Y15999355D01*
X95897538Y15971271D01*
X95897542Y15971229D01*
X95897543Y15971225D01*
X95900193Y15942119D01*
X95897138Y15913050D01*
X95897135Y15913040D01*
X95897131Y15913002D01*
X95888474Y15885037D01*
X95874551Y15859285D01*
X95855890Y15836728D01*
X95833204Y15818226D01*
X95807356Y15804482D01*
X95779330Y15796021D01*
X95750195Y15793164D01*
X95747995Y15793164D01*
X95745557Y15792925D01*
X95731887Y15789596D01*
X95719686Y15782590D01*
X95709919Y15772462D01*
X95703361Y15760015D01*
X95700530Y15746233D01*
X95701651Y15732208D01*
X95706635Y15719050D01*
X95715087Y15707802D01*
X95726338Y15699354D01*
X95739497Y15694375D01*
X95750096Y15693165D01*
X95750269Y15693164D01*
X95750274Y15693163D01*
X95752289Y15693149D01*
X95781382Y15689886D01*
X95809286Y15681034D01*
X95834940Y15666931D01*
X95857366Y15648114D01*
X95875710Y15625298D01*
X95889273Y15599355D01*
X95897538Y15571271D01*
X95897542Y15571229D01*
X95897543Y15571225D01*
X95900193Y15542119D01*
X95897138Y15513050D01*
X95897135Y15513040D01*
X95897131Y15513002D01*
X95888474Y15485037D01*
X95874551Y15459285D01*
X95855890Y15436728D01*
X95833204Y15418226D01*
X95807356Y15404482D01*
X95779330Y15396021D01*
X95750195Y15393164D01*
X95747995Y15393164D01*
X95745557Y15392925D01*
X95731887Y15389596D01*
X95719686Y15382590D01*
X95709919Y15372462D01*
X95703361Y15360015D01*
X95700530Y15346233D01*
X95701651Y15332208D01*
X95706635Y15319050D01*
X95715087Y15307802D01*
X95726338Y15299354D01*
X95739497Y15294375D01*
X95750096Y15293165D01*
X95750269Y15293164D01*
X95750274Y15293163D01*
X95752289Y15293149D01*
X95781382Y15289886D01*
X95809286Y15281034D01*
X95834940Y15266931D01*
X95857366Y15248114D01*
X95875710Y15225298D01*
X95889273Y15199355D01*
X95897538Y15171271D01*
X95897542Y15171229D01*
X95897543Y15171225D01*
X95900193Y15142119D01*
X95897138Y15113050D01*
X95897135Y15113040D01*
X95897131Y15113002D01*
X95888474Y15085037D01*
X95874551Y15059285D01*
X95855890Y15036728D01*
X95833204Y15018226D01*
X95807356Y15004482D01*
X95779330Y14996021D01*
X95750195Y14993164D01*
X95747995Y14993164D01*
X95745557Y14992925D01*
X95731887Y14989596D01*
X95719686Y14982590D01*
X95709919Y14972462D01*
X95703361Y14960015D01*
X95700530Y14946233D01*
X95701651Y14932208D01*
X95706635Y14919050D01*
X95715087Y14907802D01*
X95726338Y14899354D01*
X95739497Y14894375D01*
X95750096Y14893165D01*
X95750269Y14893164D01*
X95750274Y14893163D01*
X95752289Y14893149D01*
X95781382Y14889886D01*
X95809286Y14881034D01*
X95834940Y14866931D01*
X95857366Y14848114D01*
X95875710Y14825298D01*
X95889273Y14799355D01*
X95897538Y14771271D01*
X95897542Y14771229D01*
X95897543Y14771225D01*
X95900193Y14742119D01*
X95897138Y14713050D01*
X95897135Y14713040D01*
X95897131Y14713002D01*
X95888474Y14685037D01*
X95874551Y14659285D01*
X95855890Y14636728D01*
X95833204Y14618226D01*
X95807356Y14604482D01*
X95779330Y14596021D01*
X95750195Y14593164D01*
X95747995Y14593164D01*
X95745557Y14592925D01*
X95731887Y14589596D01*
X95719686Y14582590D01*
X95709919Y14572462D01*
X95703361Y14560015D01*
X95700530Y14546233D01*
X95701651Y14532208D01*
X95706635Y14519050D01*
X95715087Y14507802D01*
X95726338Y14499354D01*
X95739497Y14494375D01*
X95750096Y14493165D01*
X95750269Y14493164D01*
X95750274Y14493163D01*
X95752289Y14493149D01*
X95781382Y14489886D01*
X95809286Y14481034D01*
X95834940Y14466931D01*
X95857366Y14448114D01*
X95875710Y14425298D01*
X95889273Y14399355D01*
X95897538Y14371271D01*
X95897542Y14371229D01*
X95897543Y14371225D01*
X95900193Y14342119D01*
X95897138Y14313050D01*
X95897135Y14313040D01*
X95897131Y14313002D01*
X95888474Y14285037D01*
X95874551Y14259285D01*
X95855890Y14236728D01*
X95833204Y14218226D01*
X95807356Y14204482D01*
X95779330Y14196021D01*
X95750195Y14193164D01*
X95396975Y14193164D01*
X95396970Y14193165D01*
X95394955Y14193179D01*
X95365862Y14196442D01*
X95337958Y14205294D01*
X95312304Y14219397D01*
X95289878Y14238214D01*
X95271534Y14261030D01*
X95257971Y14286973D01*
X95249706Y14315057D01*
X95249702Y14315099D01*
X95249701Y14315103D01*
X95247051Y14344209D01*
X95250106Y14373278D01*
X95250109Y14373288D01*
X95250113Y14373326D01*
X95258770Y14401291D01*
X95272693Y14427043D01*
X95291354Y14449600D01*
X95314040Y14468102D01*
X95339888Y14481846D01*
X95367914Y14490307D01*
X95397049Y14493164D01*
X95399249Y14493164D01*
X95401687Y14493403D01*
X95415357Y14496732D01*
X95427558Y14503738D01*
X95437325Y14513866D01*
X95443883Y14526313D01*
X95446714Y14540095D01*
X95445593Y14554120D01*
X95440609Y14567278D01*
X95432157Y14578526D01*
X95420906Y14586974D01*
X95407747Y14591953D01*
X95397148Y14593163D01*
X95396975Y14593164D01*
X95396970Y14593165D01*
X95394955Y14593179D01*
X95365862Y14596442D01*
X95337958Y14605294D01*
X95312304Y14619397D01*
X95289878Y14638214D01*
X95271534Y14661030D01*
X95257971Y14686973D01*
X95249706Y14715057D01*
X95249702Y14715099D01*
X95249701Y14715103D01*
X95247051Y14744209D01*
X95250106Y14773278D01*
X95250109Y14773288D01*
X95250113Y14773326D01*
X95258770Y14801291D01*
X95272693Y14827043D01*
X95291354Y14849600D01*
X95314040Y14868102D01*
X95339888Y14881846D01*
X95367914Y14890307D01*
X95397049Y14893164D01*
X95399249Y14893164D01*
X95401687Y14893403D01*
X95415357Y14896732D01*
X95427558Y14903738D01*
X95437325Y14913866D01*
X95443883Y14926313D01*
X95446714Y14940095D01*
X95445593Y14954120D01*
X95440609Y14967278D01*
X95432157Y14978526D01*
X95420906Y14986974D01*
X95407747Y14991953D01*
X95397148Y14993163D01*
X95396975Y14993164D01*
X95396970Y14993165D01*
X95394955Y14993179D01*
X95365862Y14996442D01*
X95337958Y15005294D01*
X95312304Y15019397D01*
X95289878Y15038214D01*
X95271534Y15061030D01*
X95257971Y15086973D01*
X95249706Y15115057D01*
X95249702Y15115099D01*
X95249701Y15115103D01*
X95247051Y15144209D01*
X95250106Y15173278D01*
X95250109Y15173288D01*
X95250113Y15173326D01*
X95258770Y15201291D01*
X95272693Y15227043D01*
X95291354Y15249600D01*
X95314040Y15268102D01*
X95339888Y15281846D01*
X95367914Y15290307D01*
X95397049Y15293164D01*
X95399249Y15293164D01*
X95401687Y15293403D01*
X95415357Y15296732D01*
X95427558Y15303738D01*
X95437325Y15313866D01*
X95443883Y15326313D01*
X95446714Y15340095D01*
X95445593Y15354120D01*
X95440609Y15367278D01*
X95432157Y15378526D01*
X95420906Y15386974D01*
X95407747Y15391953D01*
X95397148Y15393163D01*
X95396975Y15393164D01*
X95396970Y15393165D01*
X95394955Y15393179D01*
X95365862Y15396442D01*
X95337958Y15405294D01*
X95312304Y15419397D01*
X95289878Y15438214D01*
X95271534Y15461030D01*
X95257971Y15486973D01*
X95249706Y15515057D01*
X95249702Y15515099D01*
X95249701Y15515103D01*
X95247051Y15544209D01*
X95250106Y15573278D01*
X95250109Y15573288D01*
X95250113Y15573326D01*
X95258770Y15601291D01*
X95272693Y15627043D01*
X95291354Y15649600D01*
X95314040Y15668102D01*
X95339888Y15681846D01*
X95367914Y15690307D01*
X95397049Y15693164D01*
X95399249Y15693164D01*
X95401687Y15693403D01*
X95415357Y15696732D01*
X95427558Y15703738D01*
X95437325Y15713866D01*
X95443883Y15726313D01*
X95446714Y15740095D01*
X95445593Y15754120D01*
X95440609Y15767278D01*
X95432157Y15778526D01*
X95420906Y15786974D01*
X95407747Y15791953D01*
X95397148Y15793163D01*
X95396975Y15793164D01*
X95396970Y15793165D01*
X95394955Y15793179D01*
X95365862Y15796442D01*
X95337958Y15805294D01*
X95312304Y15819397D01*
X95289878Y15838214D01*
X95271534Y15861030D01*
X95257971Y15886973D01*
X95249706Y15915057D01*
X95249702Y15915099D01*
X95249701Y15915103D01*
X95247051Y15944209D01*
X95250106Y15973278D01*
X95250109Y15973288D01*
X95250113Y15973326D01*
X95258770Y16001291D01*
X95272693Y16027043D01*
X95291354Y16049600D01*
X95314040Y16068102D01*
X95339888Y16081846D01*
X95367914Y16090307D01*
X95397049Y16093164D01*
X95399249Y16093164D01*
X95401687Y16093403D01*
X95415357Y16096732D01*
X95427558Y16103738D01*
X95437325Y16113866D01*
X95443883Y16126313D01*
X95446714Y16140095D01*
X95445593Y16154120D01*
X95440609Y16167278D01*
X95432157Y16178526D01*
X95420906Y16186974D01*
X95407747Y16191953D01*
X95397148Y16193163D01*
X95396975Y16193164D01*
X95396970Y16193165D01*
X95394955Y16193179D01*
X95365862Y16196442D01*
X95337958Y16205294D01*
X95312304Y16219397D01*
X95289878Y16238214D01*
X95271534Y16261030D01*
X95257971Y16286973D01*
X95249706Y16315057D01*
X95249702Y16315099D01*
X95249701Y16315103D01*
X95247051Y16344209D01*
X95250106Y16373278D01*
X95250109Y16373288D01*
X95250113Y16373326D01*
X95258770Y16401291D01*
X95272693Y16427043D01*
X95291354Y16449600D01*
X95314040Y16468102D01*
X95339888Y16481846D01*
X95367914Y16490307D01*
X95397049Y16493164D01*
X95750269Y16493164D01*
X95750274Y16493163D01*
X95750274Y16493163D01*
G37*
G36*
X84850032Y14223114D02*
X83650032Y14223114D01*
X83650032Y14723114D01*
X84850032Y14723114D01*
X84850032Y14223114D01*
X84850032Y14223114D01*
G37*
G36*
X89150032Y14223114D02*
X87950032Y14223114D01*
X87950032Y14723114D01*
X89150032Y14723114D01*
X89150032Y14223114D01*
X89150032Y14223114D01*
G37*
G36*
X32050000Y14226000D02*
X31150000Y14226000D01*
X31150000Y14676000D01*
X32050000Y14676000D01*
X32050000Y14226000D01*
X32050000Y14226000D01*
G37*
G36*
X36050000Y14226000D02*
X35150000Y14226000D01*
X35150000Y14676000D01*
X36050000Y14676000D01*
X36050000Y14226000D01*
X36050000Y14226000D01*
G37*
G36*
X26702000Y14672000D02*
X26102000Y14672000D01*
X26102000Y15672000D01*
X26702000Y15672000D01*
X26702000Y14672000D01*
X26702000Y14672000D01*
G37*
G36*
X28202000Y14672000D02*
X27602000Y14672000D01*
X27602000Y15672000D01*
X28202000Y15672000D01*
X28202000Y14672000D01*
X28202000Y14672000D01*
G37*
G36*
X113010299Y17699036D02*
X113288853Y17641857D01*
X113550991Y17531664D01*
X113786737Y17372652D01*
X113987109Y17170876D01*
X114144473Y16934026D01*
X114252830Y16671128D01*
X114307996Y16392524D01*
X114307996Y16392514D01*
X114308062Y16392180D01*
X114303527Y16067387D01*
X114303451Y16067053D01*
X114303451Y16067041D01*
X114240531Y15790095D01*
X114124870Y15530318D01*
X113960957Y15297956D01*
X113755027Y15101851D01*
X113514938Y14949487D01*
X113249821Y14846655D01*
X112969782Y14797276D01*
X112685486Y14803231D01*
X112407753Y14864294D01*
X112147180Y14978136D01*
X111913678Y15140424D01*
X111716143Y15344978D01*
X111562105Y15583997D01*
X111457425Y15848389D01*
X111406091Y16128083D01*
X111410062Y16412413D01*
X111469183Y16690556D01*
X111581206Y16951924D01*
X111741859Y17186553D01*
X111945028Y17385511D01*
X112182969Y17541215D01*
X112446624Y17647739D01*
X112725943Y17701022D01*
X113010299Y17699036D01*
X113010299Y17699036D01*
G37*
G36*
X109510299Y17699036D02*
X109788853Y17641857D01*
X110050991Y17531664D01*
X110286737Y17372652D01*
X110487109Y17170876D01*
X110644473Y16934026D01*
X110752830Y16671128D01*
X110807996Y16392524D01*
X110807996Y16392514D01*
X110808062Y16392180D01*
X110803527Y16067387D01*
X110803451Y16067053D01*
X110803451Y16067041D01*
X110740531Y15790095D01*
X110624870Y15530318D01*
X110460957Y15297956D01*
X110255027Y15101851D01*
X110014938Y14949487D01*
X109749821Y14846655D01*
X109469782Y14797276D01*
X109185486Y14803231D01*
X108907753Y14864294D01*
X108647180Y14978136D01*
X108413678Y15140424D01*
X108216143Y15344978D01*
X108062105Y15583997D01*
X107957425Y15848389D01*
X107906091Y16128083D01*
X107910062Y16412413D01*
X107969183Y16690556D01*
X108081206Y16951924D01*
X108241859Y17186553D01*
X108445028Y17385511D01*
X108682969Y17541215D01*
X108946624Y17647739D01*
X109225943Y17701022D01*
X109510299Y17699036D01*
X109510299Y17699036D01*
G37*
G36*
X107308000Y14800000D02*
X104408000Y14800000D01*
X104408000Y17700000D01*
X107308000Y17700000D01*
X107308000Y14800000D01*
X107308000Y14800000D01*
G37*
G36*
X25037000Y14837000D02*
X24187000Y14837000D01*
X24187000Y15737000D01*
X25037000Y15737000D01*
X25037000Y14837000D01*
X25037000Y14837000D01*
G37*
G36*
X89150032Y14873114D02*
X87950032Y14873114D01*
X87950032Y15373114D01*
X89150032Y15373114D01*
X89150032Y14873114D01*
X89150032Y14873114D01*
G37*
G36*
X84850032Y14873114D02*
X83650032Y14873114D01*
X83650032Y15373114D01*
X84850032Y15373114D01*
X84850032Y14873114D01*
X84850032Y14873114D01*
G37*
G36*
X32050000Y14876000D02*
X31150000Y14876000D01*
X31150000Y15326000D01*
X32050000Y15326000D01*
X32050000Y14876000D01*
X32050000Y14876000D01*
G37*
G36*
X36050000Y14876000D02*
X35150000Y14876000D01*
X35150000Y15326000D01*
X36050000Y15326000D01*
X36050000Y14876000D01*
X36050000Y14876000D01*
G37*
G36*
X124517504Y14975900D02*
X123917504Y14975900D01*
X123917504Y16875900D01*
X124517504Y16875900D01*
X124517504Y14975900D01*
X124517504Y14975900D01*
G37*
G36*
X122717504Y14975900D02*
X122117504Y14975900D01*
X122117504Y16875900D01*
X122717504Y16875900D01*
X122717504Y14975900D01*
X122717504Y14975900D01*
G37*
G36*
X16026259Y15549836D02*
X16074287Y15539977D01*
X16119481Y15520979D01*
X16160131Y15493561D01*
X16194677Y15458773D01*
X16221806Y15417938D01*
X16240490Y15372609D01*
X16249945Y15324859D01*
X16249945Y15324848D01*
X16250011Y15324514D01*
X16249229Y15268515D01*
X16249153Y15268181D01*
X16249153Y15268173D01*
X16238369Y15220702D01*
X16218428Y15175916D01*
X16190166Y15135851D01*
X16154663Y15102044D01*
X16113265Y15075771D01*
X16067555Y15058042D01*
X16019274Y15049528D01*
X15970257Y15050555D01*
X15922370Y15061083D01*
X15877443Y15080712D01*
X15837185Y15108692D01*
X15803125Y15143962D01*
X15776569Y15185169D01*
X15758518Y15230760D01*
X15749668Y15278977D01*
X15750354Y15328003D01*
X15760546Y15375957D01*
X15779862Y15421023D01*
X15807560Y15461476D01*
X15842591Y15495781D01*
X15883614Y15522626D01*
X15929073Y15540992D01*
X15977230Y15550178D01*
X16026259Y15549836D01*
X16026259Y15549836D01*
G37*
G36*
X103814000Y15082000D02*
X102964000Y15082000D01*
X102964000Y15982000D01*
X103814000Y15982000D01*
X103814000Y15082000D01*
X103814000Y15082000D01*
G37*
G36*
X123667504Y15275900D02*
X122967504Y15275900D01*
X122967504Y16575900D01*
X123667504Y16575900D01*
X123667504Y15275900D01*
X123667504Y15275900D01*
G37*
G36*
X91553622Y15443164D02*
X90703622Y15443164D01*
X90703622Y16343164D01*
X91553622Y16343164D01*
X91553622Y15443164D01*
X91553622Y15443164D01*
G37*
G36*
X50460000Y15466000D02*
X49760000Y15466000D01*
X49760000Y17066000D01*
X50460000Y17066000D01*
X50460000Y15466000D01*
X50460000Y15466000D01*
G37*
G36*
X49190000Y15466000D02*
X48490000Y15466000D01*
X48490000Y17066000D01*
X49190000Y17066000D01*
X49190000Y15466000D01*
X49190000Y15466000D01*
G37*
G36*
X47920000Y15466000D02*
X47220000Y15466000D01*
X47220000Y17066000D01*
X47920000Y17066000D01*
X47920000Y15466000D01*
X47920000Y15466000D01*
G37*
G36*
X46650000Y15466000D02*
X45950000Y15466000D01*
X45950000Y17066000D01*
X46650000Y17066000D01*
X46650000Y15466000D01*
X46650000Y15466000D01*
G37*
G36*
X41570000Y15466000D02*
X40870000Y15466000D01*
X40870000Y17066000D01*
X41570000Y17066000D01*
X41570000Y15466000D01*
X41570000Y15466000D01*
G37*
G36*
X45380000Y15466000D02*
X44680000Y15466000D01*
X44680000Y17066000D01*
X45380000Y17066000D01*
X45380000Y15466000D01*
X45380000Y15466000D01*
G37*
G36*
X44110000Y15466000D02*
X43410000Y15466000D01*
X43410000Y17066000D01*
X44110000Y17066000D01*
X44110000Y15466000D01*
X44110000Y15466000D01*
G37*
G36*
X42840000Y15466000D02*
X42140000Y15466000D01*
X42140000Y17066000D01*
X42840000Y17066000D01*
X42840000Y15466000D01*
X42840000Y15466000D01*
G37*
G36*
X134425730Y15467460D02*
X132296270Y15467460D01*
X132296270Y18219220D01*
X134425730Y18219220D01*
X134425730Y15467460D01*
X134425730Y15467460D01*
G37*
G36*
X89150032Y15523114D02*
X87950032Y15523114D01*
X87950032Y16023114D01*
X89150032Y16023114D01*
X89150032Y15523114D01*
X89150032Y15523114D01*
G37*
G36*
X84850032Y15523114D02*
X83650032Y15523114D01*
X83650032Y16023114D01*
X84850032Y16023114D01*
X84850032Y15523114D01*
X84850032Y15523114D01*
G37*
G36*
X36050000Y15526000D02*
X35150000Y15526000D01*
X35150000Y15976000D01*
X36050000Y15976000D01*
X36050000Y15526000D01*
X36050000Y15526000D01*
G37*
G36*
X32050000Y15526000D02*
X31150000Y15526000D01*
X31150000Y15976000D01*
X32050000Y15976000D01*
X32050000Y15526000D01*
X32050000Y15526000D01*
G37*
G36*
X14209027Y17288469D02*
X14362713Y17256922D01*
X14507340Y17196126D01*
X14637407Y17108395D01*
X14747958Y16997069D01*
X14834779Y16866395D01*
X14894563Y16721347D01*
X14924969Y16567788D01*
X14924969Y16567773D01*
X14925034Y16567444D01*
X14922532Y16388248D01*
X14922456Y16387914D01*
X14922456Y16387903D01*
X14887776Y16235259D01*
X14823964Y16091934D01*
X14733529Y15963734D01*
X14619910Y15855537D01*
X14487449Y15771474D01*
X14341177Y15714738D01*
X14186675Y15687496D01*
X14029821Y15690781D01*
X13876588Y15724472D01*
X13732825Y15787280D01*
X13603991Y15876822D01*
X13495008Y15989678D01*
X13410023Y16121549D01*
X13352268Y16267421D01*
X13323946Y16421737D01*
X13326137Y16578609D01*
X13358754Y16732064D01*
X13420561Y16876269D01*
X13509197Y17005719D01*
X13621292Y17115491D01*
X13752567Y17201395D01*
X13898035Y17260168D01*
X14052140Y17289565D01*
X14209027Y17288469D01*
X14209027Y17288469D01*
G37*
G36*
X17157027Y17382469D02*
X17310713Y17350922D01*
X17455340Y17290126D01*
X17585407Y17202395D01*
X17695958Y17091069D01*
X17782779Y16960395D01*
X17842563Y16815347D01*
X17872969Y16661788D01*
X17872969Y16661773D01*
X17873034Y16661444D01*
X17870532Y16482248D01*
X17870456Y16481914D01*
X17870456Y16481903D01*
X17835776Y16329259D01*
X17771964Y16185934D01*
X17681529Y16057734D01*
X17567910Y15949537D01*
X17435449Y15865474D01*
X17289177Y15808738D01*
X17134675Y15781496D01*
X16977821Y15784781D01*
X16824588Y15818472D01*
X16680825Y15881280D01*
X16551991Y15970822D01*
X16443008Y16083678D01*
X16358023Y16215549D01*
X16300268Y16361421D01*
X16271946Y16515737D01*
X16274136Y16672604D01*
X16278948Y16695242D01*
X16279907Y16709279D01*
X16276918Y16723027D01*
X16270217Y16735399D01*
X16260335Y16745414D01*
X16248054Y16752279D01*
X16234347Y16755451D01*
X16220299Y16754679D01*
X16207021Y16750023D01*
X16195567Y16741853D01*
X16191404Y16737030D01*
X16154663Y16702044D01*
X16113265Y16675771D01*
X16067555Y16658042D01*
X16019274Y16649528D01*
X15970257Y16650555D01*
X15922370Y16661083D01*
X15877443Y16680712D01*
X15837185Y16708692D01*
X15803125Y16743962D01*
X15776569Y16785169D01*
X15758518Y16830760D01*
X15749668Y16878977D01*
X15750354Y16928003D01*
X15760546Y16975957D01*
X15779862Y17021023D01*
X15807560Y17061476D01*
X15842591Y17095781D01*
X15883614Y17122626D01*
X15929073Y17140992D01*
X15977230Y17150178D01*
X16026259Y17149836D01*
X16074287Y17139977D01*
X16119481Y17120979D01*
X16160131Y17093561D01*
X16194677Y17058773D01*
X16221806Y17017938D01*
X16240490Y16972609D01*
X16249903Y16925069D01*
X16254551Y16911789D01*
X16262714Y16900329D01*
X16273746Y16891598D01*
X16286774Y16886285D01*
X16300767Y16884813D01*
X16314615Y16887297D01*
X16327223Y16893541D01*
X16337593Y16903050D01*
X16344908Y16915083D01*
X16368561Y16970269D01*
X16457197Y17099719D01*
X16569292Y17209491D01*
X16700567Y17295395D01*
X16846035Y17354168D01*
X17000140Y17383565D01*
X17157027Y17382469D01*
X17157027Y17382469D01*
G37*
G36*
X82760032Y15796114D02*
X82160032Y15796114D01*
X82160032Y16796114D01*
X82760032Y16796114D01*
X82760032Y15796114D01*
X82760032Y15796114D01*
G37*
G36*
X81260032Y15796114D02*
X80660032Y15796114D01*
X80660032Y16796114D01*
X81260032Y16796114D01*
X81260032Y15796114D01*
X81260032Y15796114D01*
G37*
G36*
X16026259Y16349836D02*
X16074287Y16339977D01*
X16119481Y16320979D01*
X16160131Y16293561D01*
X16194677Y16258773D01*
X16221806Y16217938D01*
X16240490Y16172609D01*
X16249945Y16124859D01*
X16249945Y16124848D01*
X16250011Y16124514D01*
X16249229Y16068515D01*
X16249153Y16068181D01*
X16249153Y16068173D01*
X16238369Y16020702D01*
X16218428Y15975916D01*
X16190166Y15935851D01*
X16154663Y15902044D01*
X16113265Y15875771D01*
X16067555Y15858042D01*
X16019274Y15849528D01*
X15970257Y15850555D01*
X15922370Y15861083D01*
X15877443Y15880712D01*
X15837185Y15908692D01*
X15803125Y15943962D01*
X15776569Y15985169D01*
X15758518Y16030760D01*
X15749668Y16078977D01*
X15750354Y16128003D01*
X15760546Y16175957D01*
X15779862Y16221023D01*
X15807560Y16261476D01*
X15842591Y16295781D01*
X15883614Y16322626D01*
X15929073Y16340992D01*
X15977230Y16350178D01*
X16026259Y16349836D01*
X16026259Y16349836D01*
G37*
G36*
X98809000Y15982000D02*
X97809000Y15982000D01*
X97809000Y16582000D01*
X98809000Y16582000D01*
X98809000Y15982000D01*
X98809000Y15982000D01*
G37*
G36*
X84850032Y16173114D02*
X83650032Y16173114D01*
X83650032Y16673114D01*
X84850032Y16673114D01*
X84850032Y16173114D01*
X84850032Y16173114D01*
G37*
G36*
X89150032Y16173114D02*
X87950032Y16173114D01*
X87950032Y16673114D01*
X89150032Y16673114D01*
X89150032Y16173114D01*
X89150032Y16173114D01*
G37*
G36*
X32050000Y16176000D02*
X31150000Y16176000D01*
X31150000Y16626000D01*
X32050000Y16626000D01*
X32050000Y16176000D01*
X32050000Y16176000D01*
G37*
G36*
X36050000Y16176000D02*
X35150000Y16176000D01*
X35150000Y16626000D01*
X36050000Y16626000D01*
X36050000Y16176000D01*
X36050000Y16176000D01*
G37*
G36*
X25037000Y16512000D02*
X24187000Y16512000D01*
X24187000Y17412000D01*
X25037000Y17412000D01*
X25037000Y16512000D01*
X25037000Y16512000D01*
G37*
G36*
X95103736Y17166680D02*
X95103746Y17166677D01*
X95103784Y17166673D01*
X95131749Y17158016D01*
X95157501Y17144093D01*
X95180058Y17125432D01*
X95198560Y17102746D01*
X95212304Y17076898D01*
X95220765Y17048872D01*
X95223622Y17019737D01*
X95223622Y16666517D01*
X95223621Y16666512D01*
X95223607Y16664497D01*
X95220344Y16635404D01*
X95211492Y16607500D01*
X95197389Y16581846D01*
X95178572Y16559420D01*
X95155756Y16541076D01*
X95129813Y16527513D01*
X95101729Y16519248D01*
X95101687Y16519244D01*
X95101683Y16519243D01*
X95072577Y16516593D01*
X95043508Y16519648D01*
X95043498Y16519651D01*
X95043460Y16519655D01*
X95015495Y16528312D01*
X94989743Y16542235D01*
X94967186Y16560896D01*
X94948684Y16583582D01*
X94934940Y16609430D01*
X94926479Y16637456D01*
X94923622Y16666591D01*
X94923622Y16668792D01*
X94923383Y16671227D01*
X94920054Y16684897D01*
X94913048Y16697098D01*
X94902920Y16706864D01*
X94890472Y16713422D01*
X94876690Y16716253D01*
X94862665Y16715132D01*
X94849508Y16710148D01*
X94838260Y16701696D01*
X94829812Y16690445D01*
X94824833Y16677286D01*
X94823623Y16666688D01*
X94823622Y16666517D01*
X94823621Y16666512D01*
X94823607Y16664497D01*
X94820344Y16635404D01*
X94811492Y16607500D01*
X94797389Y16581846D01*
X94778572Y16559420D01*
X94755756Y16541076D01*
X94729813Y16527513D01*
X94701729Y16519248D01*
X94701687Y16519244D01*
X94701683Y16519243D01*
X94672577Y16516593D01*
X94643508Y16519648D01*
X94643498Y16519651D01*
X94643460Y16519655D01*
X94615495Y16528312D01*
X94589743Y16542235D01*
X94567186Y16560896D01*
X94548684Y16583582D01*
X94534940Y16609430D01*
X94526479Y16637456D01*
X94523622Y16666591D01*
X94523622Y16668792D01*
X94523383Y16671227D01*
X94520054Y16684897D01*
X94513048Y16697098D01*
X94502920Y16706864D01*
X94490472Y16713422D01*
X94476690Y16716253D01*
X94462665Y16715132D01*
X94449508Y16710148D01*
X94438260Y16701696D01*
X94429812Y16690445D01*
X94424833Y16677286D01*
X94423623Y16666688D01*
X94423622Y16666517D01*
X94423621Y16666512D01*
X94423607Y16664497D01*
X94420344Y16635404D01*
X94411492Y16607500D01*
X94397389Y16581846D01*
X94378572Y16559420D01*
X94355756Y16541076D01*
X94329813Y16527513D01*
X94301729Y16519248D01*
X94301687Y16519244D01*
X94301683Y16519243D01*
X94272577Y16516593D01*
X94243508Y16519648D01*
X94243498Y16519651D01*
X94243460Y16519655D01*
X94215495Y16528312D01*
X94189743Y16542235D01*
X94167186Y16560896D01*
X94148684Y16583582D01*
X94134940Y16609430D01*
X94126479Y16637456D01*
X94123622Y16666591D01*
X94123622Y16668792D01*
X94123383Y16671227D01*
X94120054Y16684897D01*
X94113048Y16697098D01*
X94102920Y16706864D01*
X94090472Y16713422D01*
X94076690Y16716253D01*
X94062665Y16715132D01*
X94049508Y16710148D01*
X94038260Y16701696D01*
X94029812Y16690445D01*
X94024833Y16677286D01*
X94023623Y16666688D01*
X94023622Y16666517D01*
X94023621Y16666512D01*
X94023607Y16664497D01*
X94020344Y16635404D01*
X94011492Y16607500D01*
X93997389Y16581846D01*
X93978572Y16559420D01*
X93955756Y16541076D01*
X93929813Y16527513D01*
X93901729Y16519248D01*
X93901687Y16519244D01*
X93901683Y16519243D01*
X93872577Y16516593D01*
X93843508Y16519648D01*
X93843498Y16519651D01*
X93843460Y16519655D01*
X93815495Y16528312D01*
X93789743Y16542235D01*
X93767186Y16560896D01*
X93748684Y16583582D01*
X93734940Y16609430D01*
X93726479Y16637456D01*
X93723622Y16666591D01*
X93723622Y16668792D01*
X93723383Y16671227D01*
X93720054Y16684897D01*
X93713048Y16697098D01*
X93702920Y16706864D01*
X93690472Y16713422D01*
X93676690Y16716253D01*
X93662665Y16715132D01*
X93649508Y16710148D01*
X93638260Y16701696D01*
X93629812Y16690445D01*
X93624833Y16677286D01*
X93623623Y16666688D01*
X93623622Y16666517D01*
X93623621Y16666512D01*
X93623607Y16664497D01*
X93620344Y16635404D01*
X93611492Y16607500D01*
X93597389Y16581846D01*
X93578572Y16559420D01*
X93555756Y16541076D01*
X93529813Y16527513D01*
X93501729Y16519248D01*
X93501687Y16519244D01*
X93501683Y16519243D01*
X93472577Y16516593D01*
X93443508Y16519648D01*
X93443498Y16519651D01*
X93443460Y16519655D01*
X93415495Y16528312D01*
X93389743Y16542235D01*
X93367186Y16560896D01*
X93348684Y16583582D01*
X93334940Y16609430D01*
X93326479Y16637456D01*
X93323622Y16666591D01*
X93323622Y16668792D01*
X93323383Y16671227D01*
X93320054Y16684897D01*
X93313048Y16697098D01*
X93302920Y16706864D01*
X93290472Y16713422D01*
X93276690Y16716253D01*
X93262665Y16715132D01*
X93249508Y16710148D01*
X93238260Y16701696D01*
X93229812Y16690445D01*
X93224833Y16677286D01*
X93223623Y16666688D01*
X93223622Y16666517D01*
X93223621Y16666512D01*
X93223607Y16664497D01*
X93220344Y16635404D01*
X93211492Y16607500D01*
X93197389Y16581846D01*
X93178572Y16559420D01*
X93155756Y16541076D01*
X93129813Y16527513D01*
X93101729Y16519248D01*
X93101687Y16519244D01*
X93101683Y16519243D01*
X93072577Y16516593D01*
X93043508Y16519648D01*
X93043498Y16519651D01*
X93043460Y16519655D01*
X93015495Y16528312D01*
X92989743Y16542235D01*
X92967186Y16560896D01*
X92948684Y16583582D01*
X92934940Y16609430D01*
X92926479Y16637456D01*
X92923622Y16666591D01*
X92923622Y17019811D01*
X92923623Y17019816D01*
X92923637Y17021831D01*
X92926900Y17050924D01*
X92935752Y17078828D01*
X92949855Y17104482D01*
X92968672Y17126908D01*
X92991488Y17145252D01*
X93017431Y17158815D01*
X93045515Y17167080D01*
X93045557Y17167084D01*
X93045561Y17167085D01*
X93074667Y17169735D01*
X93103736Y17166680D01*
X93103746Y17166677D01*
X93103784Y17166673D01*
X93131749Y17158016D01*
X93157501Y17144093D01*
X93180058Y17125432D01*
X93198560Y17102746D01*
X93212304Y17076898D01*
X93220765Y17048872D01*
X93223622Y17019737D01*
X93223622Y17017537D01*
X93223861Y17015099D01*
X93227190Y17001429D01*
X93234196Y16989228D01*
X93244324Y16979461D01*
X93256771Y16972903D01*
X93270553Y16970072D01*
X93284578Y16971193D01*
X93297736Y16976177D01*
X93308984Y16984629D01*
X93317432Y16995880D01*
X93322411Y17009039D01*
X93323621Y17019638D01*
X93323622Y17019811D01*
X93323623Y17019816D01*
X93323637Y17021831D01*
X93326900Y17050924D01*
X93335752Y17078828D01*
X93349855Y17104482D01*
X93368672Y17126908D01*
X93391488Y17145252D01*
X93417431Y17158815D01*
X93445515Y17167080D01*
X93445557Y17167084D01*
X93445561Y17167085D01*
X93474667Y17169735D01*
X93503736Y17166680D01*
X93503746Y17166677D01*
X93503784Y17166673D01*
X93531749Y17158016D01*
X93557501Y17144093D01*
X93580058Y17125432D01*
X93598560Y17102746D01*
X93612304Y17076898D01*
X93620765Y17048872D01*
X93623622Y17019737D01*
X93623622Y17017537D01*
X93623861Y17015099D01*
X93627190Y17001429D01*
X93634196Y16989228D01*
X93644324Y16979461D01*
X93656771Y16972903D01*
X93670553Y16970072D01*
X93684578Y16971193D01*
X93697736Y16976177D01*
X93708984Y16984629D01*
X93717432Y16995880D01*
X93722411Y17009039D01*
X93723621Y17019638D01*
X93723622Y17019811D01*
X93723623Y17019816D01*
X93723637Y17021831D01*
X93726900Y17050924D01*
X93735752Y17078828D01*
X93749855Y17104482D01*
X93768672Y17126908D01*
X93791488Y17145252D01*
X93817431Y17158815D01*
X93845515Y17167080D01*
X93845557Y17167084D01*
X93845561Y17167085D01*
X93874667Y17169735D01*
X93903736Y17166680D01*
X93903746Y17166677D01*
X93903784Y17166673D01*
X93931749Y17158016D01*
X93957501Y17144093D01*
X93980058Y17125432D01*
X93998560Y17102746D01*
X94012304Y17076898D01*
X94020765Y17048872D01*
X94023622Y17019737D01*
X94023622Y17017537D01*
X94023861Y17015099D01*
X94027190Y17001429D01*
X94034196Y16989228D01*
X94044324Y16979461D01*
X94056771Y16972903D01*
X94070553Y16970072D01*
X94084578Y16971193D01*
X94097736Y16976177D01*
X94108984Y16984629D01*
X94117432Y16995880D01*
X94122411Y17009039D01*
X94123621Y17019638D01*
X94123622Y17019811D01*
X94123623Y17019816D01*
X94123637Y17021831D01*
X94126900Y17050924D01*
X94135752Y17078828D01*
X94149855Y17104482D01*
X94168672Y17126908D01*
X94191488Y17145252D01*
X94217431Y17158815D01*
X94245515Y17167080D01*
X94245557Y17167084D01*
X94245561Y17167085D01*
X94274667Y17169735D01*
X94303736Y17166680D01*
X94303746Y17166677D01*
X94303784Y17166673D01*
X94331749Y17158016D01*
X94357501Y17144093D01*
X94380058Y17125432D01*
X94398560Y17102746D01*
X94412304Y17076898D01*
X94420765Y17048872D01*
X94423622Y17019737D01*
X94423622Y17017537D01*
X94423861Y17015099D01*
X94427190Y17001429D01*
X94434196Y16989228D01*
X94444324Y16979461D01*
X94456771Y16972903D01*
X94470553Y16970072D01*
X94484578Y16971193D01*
X94497736Y16976177D01*
X94508984Y16984629D01*
X94517432Y16995880D01*
X94522411Y17009039D01*
X94523621Y17019638D01*
X94523622Y17019811D01*
X94523623Y17019816D01*
X94523637Y17021831D01*
X94526900Y17050924D01*
X94535752Y17078828D01*
X94549855Y17104482D01*
X94568672Y17126908D01*
X94591488Y17145252D01*
X94617431Y17158815D01*
X94645515Y17167080D01*
X94645557Y17167084D01*
X94645561Y17167085D01*
X94674667Y17169735D01*
X94703736Y17166680D01*
X94703746Y17166677D01*
X94703784Y17166673D01*
X94731749Y17158016D01*
X94757501Y17144093D01*
X94780058Y17125432D01*
X94798560Y17102746D01*
X94812304Y17076898D01*
X94820765Y17048872D01*
X94823622Y17019737D01*
X94823622Y17017537D01*
X94823861Y17015099D01*
X94827190Y17001429D01*
X94834196Y16989228D01*
X94844324Y16979461D01*
X94856771Y16972903D01*
X94870553Y16970072D01*
X94884578Y16971193D01*
X94897736Y16976177D01*
X94908984Y16984629D01*
X94917432Y16995880D01*
X94922411Y17009039D01*
X94923621Y17019638D01*
X94923622Y17019811D01*
X94923623Y17019816D01*
X94923637Y17021831D01*
X94926900Y17050924D01*
X94935752Y17078828D01*
X94949855Y17104482D01*
X94968672Y17126908D01*
X94991488Y17145252D01*
X95017431Y17158815D01*
X95045515Y17167080D01*
X95045557Y17167084D01*
X95045561Y17167085D01*
X95074667Y17169735D01*
X95103736Y17166680D01*
X95103736Y17166680D01*
G37*
G36*
X28202000Y16577000D02*
X27602000Y16577000D01*
X27602000Y17577000D01*
X28202000Y17577000D01*
X28202000Y16577000D01*
X28202000Y16577000D01*
G37*
G36*
X26702000Y16577000D02*
X26102000Y16577000D01*
X26102000Y17577000D01*
X26702000Y17577000D01*
X26702000Y16577000D01*
X26702000Y16577000D01*
G37*
G36*
X103814000Y16582000D02*
X102964000Y16582000D01*
X102964000Y17482000D01*
X103814000Y17482000D01*
X103814000Y16582000D01*
X103814000Y16582000D01*
G37*
G36*
X79570032Y16958000D02*
X78370032Y16958000D01*
X78370032Y18558000D01*
X79570032Y18558000D01*
X79570032Y16958000D01*
X79570032Y16958000D01*
G37*
G36*
X78070032Y16958000D02*
X76870032Y16958000D01*
X76870032Y18558000D01*
X78070032Y18558000D01*
X78070032Y16958000D01*
X78070032Y16958000D01*
G37*
G36*
X34800000Y16976000D02*
X34350000Y16976000D01*
X34350000Y17876000D01*
X34800000Y17876000D01*
X34800000Y16976000D01*
X34800000Y16976000D01*
G37*
G36*
X33500000Y16976000D02*
X33050000Y16976000D01*
X33050000Y17876000D01*
X33500000Y17876000D01*
X33500000Y16976000D01*
X33500000Y16976000D01*
G37*
G36*
X34150000Y16976000D02*
X33700000Y16976000D01*
X33700000Y17876000D01*
X34150000Y17876000D01*
X34150000Y16976000D01*
X34150000Y16976000D01*
G37*
G36*
X32850000Y16976000D02*
X32400000Y16976000D01*
X32400000Y17876000D01*
X32850000Y17876000D01*
X32850000Y16976000D01*
X32850000Y16976000D01*
G37*
G36*
X129605034Y18999336D02*
X129797141Y18959902D01*
X129977925Y18883907D01*
X130140509Y18774244D01*
X130278697Y18635087D01*
X130387223Y18471744D01*
X130461954Y18290433D01*
X130499978Y18098399D01*
X130499978Y18098384D01*
X130500043Y18098055D01*
X130496916Y17874060D01*
X130496839Y17873722D01*
X130496839Y17873714D01*
X130453471Y17682825D01*
X130373705Y17503667D01*
X130260661Y17343417D01*
X130118639Y17208172D01*
X129953061Y17103094D01*
X129770221Y17032173D01*
X129577093Y16998121D01*
X129381025Y17002227D01*
X129189485Y17044340D01*
X129009779Y17122853D01*
X128848742Y17234775D01*
X128712511Y17375847D01*
X128606279Y17540687D01*
X128534085Y17723026D01*
X128498682Y17915920D01*
X128501421Y18112010D01*
X128542194Y18303832D01*
X128619451Y18484086D01*
X128730247Y18645899D01*
X128870364Y18783113D01*
X129034461Y18890495D01*
X129216292Y18963959D01*
X129408925Y19000706D01*
X129605034Y18999336D01*
X129605034Y18999336D01*
G37*
G36*
X30105034Y18999336D02*
X30297141Y18959902D01*
X30477925Y18883907D01*
X30640509Y18774244D01*
X30778697Y18635087D01*
X30887223Y18471744D01*
X30961954Y18290433D01*
X30999978Y18098399D01*
X30999978Y18098384D01*
X31000043Y18098055D01*
X30996916Y17874060D01*
X30996839Y17873722D01*
X30996839Y17873714D01*
X30953471Y17682825D01*
X30873705Y17503667D01*
X30760661Y17343417D01*
X30618639Y17208172D01*
X30453061Y17103094D01*
X30270221Y17032173D01*
X30077093Y16998121D01*
X29881025Y17002227D01*
X29689485Y17044340D01*
X29509779Y17122853D01*
X29348742Y17234775D01*
X29212511Y17375847D01*
X29106279Y17540687D01*
X29034085Y17723026D01*
X28998682Y17915920D01*
X29001421Y18112010D01*
X29042194Y18303832D01*
X29119451Y18484086D01*
X29230247Y18645899D01*
X29370364Y18783113D01*
X29534461Y18890495D01*
X29716292Y18963959D01*
X29908925Y19000706D01*
X30105034Y18999336D01*
X30105034Y18999336D01*
G37*
G36*
X39311000Y17000000D02*
X38411000Y17000000D01*
X38411000Y17850000D01*
X39311000Y17850000D01*
X39311000Y17000000D01*
X39311000Y17000000D01*
G37*
G36*
X37811000Y17000000D02*
X36911000Y17000000D01*
X36911000Y17850000D01*
X37811000Y17850000D01*
X37811000Y17000000D01*
X37811000Y17000000D01*
G37*
G36*
X102307000Y17255000D02*
X100407000Y17255000D01*
X100407000Y18155000D01*
X102307000Y18155000D01*
X102307000Y17255000D01*
X102307000Y17255000D01*
G37*
G36*
X16026259Y17949836D02*
X16074287Y17939977D01*
X16119481Y17920979D01*
X16160131Y17893561D01*
X16194677Y17858773D01*
X16221806Y17817938D01*
X16240490Y17772609D01*
X16249945Y17724859D01*
X16249945Y17724848D01*
X16250011Y17724514D01*
X16249229Y17668515D01*
X16249153Y17668181D01*
X16249153Y17668173D01*
X16238369Y17620702D01*
X16218428Y17575916D01*
X16190166Y17535851D01*
X16154663Y17502044D01*
X16113265Y17475771D01*
X16067555Y17458042D01*
X16019274Y17449528D01*
X15970257Y17450555D01*
X15922370Y17461083D01*
X15877443Y17480712D01*
X15837185Y17508692D01*
X15803125Y17543962D01*
X15776569Y17585169D01*
X15758518Y17630760D01*
X15749668Y17678977D01*
X15750354Y17728003D01*
X15760546Y17775957D01*
X15779862Y17821023D01*
X15807560Y17861476D01*
X15842591Y17895781D01*
X15883614Y17922626D01*
X15929073Y17940992D01*
X15977230Y17950178D01*
X16026259Y17949836D01*
X16026259Y17949836D01*
G37*
G36*
X98809000Y17482000D02*
X97809000Y17482000D01*
X97809000Y18082000D01*
X98809000Y18082000D01*
X98809000Y17482000D01*
X98809000Y17482000D01*
G37*
G36*
X82760032Y17701114D02*
X82160032Y17701114D01*
X82160032Y18701114D01*
X82760032Y18701114D01*
X82760032Y17701114D01*
X82760032Y17701114D01*
G37*
G36*
X81260032Y17701114D02*
X80660032Y17701114D01*
X80660032Y18701114D01*
X81260032Y18701114D01*
X81260032Y17701114D01*
X81260032Y17701114D01*
G37*
G36*
X122750000Y17762000D02*
X121850000Y17762000D01*
X121850000Y18612000D01*
X122750000Y18612000D01*
X122750000Y17762000D01*
X122750000Y17762000D01*
G37*
G36*
X121250000Y17762000D02*
X120350000Y17762000D01*
X120350000Y18612000D01*
X121250000Y18612000D01*
X121250000Y17762000D01*
X121250000Y17762000D01*
G37*
G36*
X124785195Y17795513D02*
X123885195Y17795513D01*
X123885195Y18645513D01*
X124785195Y18645513D01*
X124785195Y17795513D01*
X124785195Y17795513D01*
G37*
G36*
X126285195Y17795513D02*
X125385195Y17795513D01*
X125385195Y18645513D01*
X126285195Y18645513D01*
X126285195Y17795513D01*
X126285195Y17795513D01*
G37*
G36*
X45710000Y17889000D02*
X44810000Y17889000D01*
X44810000Y18739000D01*
X45710000Y18739000D01*
X45710000Y17889000D01*
X45710000Y17889000D01*
G37*
G36*
X44210000Y17889000D02*
X43310000Y17889000D01*
X43310000Y18739000D01*
X44210000Y18739000D01*
X44210000Y17889000D01*
X44210000Y17889000D01*
G37*
G36*
X97002244Y17893164D02*
X96102244Y17893164D01*
X96102244Y18743164D01*
X97002244Y18743164D01*
X97002244Y17893164D01*
X97002244Y17893164D01*
G37*
G36*
X95502244Y17893164D02*
X94602244Y17893164D01*
X94602244Y18743164D01*
X95502244Y18743164D01*
X95502244Y17893164D01*
X95502244Y17893164D01*
G37*
G36*
X93597244Y17893164D02*
X92697244Y17893164D01*
X92697244Y18743164D01*
X93597244Y18743164D01*
X93597244Y17893164D01*
X93597244Y17893164D01*
G37*
G36*
X92097244Y17893164D02*
X91197244Y17893164D01*
X91197244Y18743164D01*
X92097244Y18743164D01*
X92097244Y17893164D01*
X92097244Y17893164D01*
G37*
G36*
X87125032Y17903114D02*
X86225032Y17903114D01*
X86225032Y18753114D01*
X87125032Y18753114D01*
X87125032Y17903114D01*
X87125032Y17903114D01*
G37*
G36*
X88625032Y17903114D02*
X87725032Y17903114D01*
X87725032Y18753114D01*
X88625032Y18753114D01*
X88625032Y17903114D01*
X88625032Y17903114D01*
G37*
G36*
X25037000Y18012000D02*
X24187000Y18012000D01*
X24187000Y18912000D01*
X25037000Y18912000D01*
X25037000Y18012000D01*
X25037000Y18012000D01*
G37*
G36*
X16026259Y18749836D02*
X16074287Y18739977D01*
X16119481Y18720979D01*
X16160131Y18693561D01*
X16194677Y18658773D01*
X16221806Y18617938D01*
X16240490Y18572609D01*
X16249945Y18524859D01*
X16249945Y18524848D01*
X16250011Y18524514D01*
X16249229Y18468515D01*
X16249153Y18468181D01*
X16249153Y18468173D01*
X16238369Y18420702D01*
X16218428Y18375916D01*
X16190166Y18335851D01*
X16154663Y18302044D01*
X16113265Y18275771D01*
X16067555Y18258042D01*
X16019274Y18249528D01*
X15970257Y18250555D01*
X15922370Y18261083D01*
X15877443Y18280712D01*
X15837185Y18308692D01*
X15803125Y18343962D01*
X15776569Y18385169D01*
X15758518Y18430760D01*
X15749668Y18478977D01*
X15750354Y18528003D01*
X15760546Y18575957D01*
X15779862Y18621023D01*
X15807560Y18661476D01*
X15842591Y18695781D01*
X15883614Y18722626D01*
X15929073Y18740992D01*
X15977230Y18750178D01*
X16026259Y18749836D01*
X16026259Y18749836D01*
G37*
G36*
X59130651Y20441329D02*
X59130664Y20441325D01*
X59130701Y20441321D01*
X59251885Y20403808D01*
X59363475Y20343471D01*
X59461221Y20262609D01*
X59541399Y20164302D01*
X59600955Y20052293D01*
X59637621Y19930849D01*
X59650000Y19804597D01*
X59650000Y19195403D01*
X59649937Y19186328D01*
X59635796Y19060260D01*
X59597438Y18939341D01*
X59536324Y18828174D01*
X59454781Y18730996D01*
X59355916Y18651506D01*
X59243494Y18592733D01*
X59121798Y18556916D01*
X59121764Y18556913D01*
X59121751Y18556909D01*
X58995464Y18545416D01*
X58869349Y18558671D01*
X58869336Y18558675D01*
X58869299Y18558679D01*
X58748115Y18596192D01*
X58636525Y18656529D01*
X58538779Y18737391D01*
X58458601Y18835698D01*
X58399045Y18947707D01*
X58362379Y19069151D01*
X58350000Y19195403D01*
X58350000Y19804597D01*
X58350063Y19813672D01*
X58364204Y19939740D01*
X58402562Y20060659D01*
X58463676Y20171826D01*
X58545219Y20269004D01*
X58644084Y20348494D01*
X58756506Y20407267D01*
X58878202Y20443084D01*
X58878236Y20443087D01*
X58878249Y20443091D01*
X59004536Y20454584D01*
X59130651Y20441329D01*
X59130651Y20441329D01*
G37*
G36*
X61130651Y20441329D02*
X61130664Y20441325D01*
X61130701Y20441321D01*
X61251885Y20403808D01*
X61363475Y20343471D01*
X61461221Y20262609D01*
X61541399Y20164302D01*
X61600955Y20052293D01*
X61637621Y19930849D01*
X61650000Y19804597D01*
X61650000Y19195403D01*
X61649937Y19186328D01*
X61635796Y19060260D01*
X61597438Y18939341D01*
X61536324Y18828174D01*
X61454781Y18730996D01*
X61355916Y18651506D01*
X61243494Y18592733D01*
X61121798Y18556916D01*
X61121764Y18556913D01*
X61121751Y18556909D01*
X60995464Y18545416D01*
X60869349Y18558671D01*
X60869336Y18558675D01*
X60869299Y18558679D01*
X60748115Y18596192D01*
X60636525Y18656529D01*
X60538779Y18737391D01*
X60458601Y18835698D01*
X60399045Y18947707D01*
X60362379Y19069151D01*
X60350000Y19195403D01*
X60350000Y19804597D01*
X60350063Y19813672D01*
X60364204Y19939740D01*
X60402562Y20060659D01*
X60463676Y20171826D01*
X60545219Y20269004D01*
X60644084Y20348494D01*
X60756506Y20407267D01*
X60878202Y20443084D01*
X60878236Y20443087D01*
X60878249Y20443091D01*
X61004536Y20454584D01*
X61130651Y20441329D01*
X61130651Y20441329D01*
G37*
G36*
X63130651Y20441329D02*
X63130664Y20441325D01*
X63130701Y20441321D01*
X63251885Y20403808D01*
X63363475Y20343471D01*
X63461221Y20262609D01*
X63541399Y20164302D01*
X63600955Y20052293D01*
X63637621Y19930849D01*
X63650000Y19804597D01*
X63650000Y19195403D01*
X63649937Y19186328D01*
X63635796Y19060260D01*
X63597438Y18939341D01*
X63536324Y18828174D01*
X63454781Y18730996D01*
X63355916Y18651506D01*
X63243494Y18592733D01*
X63121798Y18556916D01*
X63121764Y18556913D01*
X63121751Y18556909D01*
X62995464Y18545416D01*
X62869349Y18558671D01*
X62869336Y18558675D01*
X62869299Y18558679D01*
X62748115Y18596192D01*
X62636525Y18656529D01*
X62538779Y18737391D01*
X62458601Y18835698D01*
X62399045Y18947707D01*
X62362379Y19069151D01*
X62350000Y19195403D01*
X62350000Y19804597D01*
X62350063Y19813672D01*
X62364204Y19939740D01*
X62402562Y20060659D01*
X62463676Y20171826D01*
X62545219Y20269004D01*
X62644084Y20348494D01*
X62756506Y20407267D01*
X62878202Y20443084D01*
X62878236Y20443087D01*
X62878249Y20443091D01*
X63004536Y20454584D01*
X63130651Y20441329D01*
X63130651Y20441329D01*
G37*
G36*
X65130651Y20441329D02*
X65130664Y20441325D01*
X65130701Y20441321D01*
X65251885Y20403808D01*
X65363475Y20343471D01*
X65461221Y20262609D01*
X65541399Y20164302D01*
X65600955Y20052293D01*
X65637621Y19930849D01*
X65650000Y19804597D01*
X65650000Y19195403D01*
X65649937Y19186328D01*
X65635796Y19060260D01*
X65597438Y18939341D01*
X65536324Y18828174D01*
X65454781Y18730996D01*
X65355916Y18651506D01*
X65243494Y18592733D01*
X65121798Y18556916D01*
X65121764Y18556913D01*
X65121751Y18556909D01*
X64995464Y18545416D01*
X64869349Y18558671D01*
X64869336Y18558675D01*
X64869299Y18558679D01*
X64748115Y18596192D01*
X64636525Y18656529D01*
X64538779Y18737391D01*
X64458601Y18835698D01*
X64399045Y18947707D01*
X64362379Y19069151D01*
X64350000Y19195403D01*
X64350000Y19804597D01*
X64350063Y19813672D01*
X64364204Y19939740D01*
X64402562Y20060659D01*
X64463676Y20171826D01*
X64545219Y20269004D01*
X64644084Y20348494D01*
X64756506Y20407267D01*
X64878202Y20443084D01*
X64878236Y20443087D01*
X64878249Y20443091D01*
X65004536Y20454584D01*
X65130651Y20441329D01*
X65130651Y20441329D01*
G37*
G36*
X67130651Y20441329D02*
X67130664Y20441325D01*
X67130701Y20441321D01*
X67251885Y20403808D01*
X67363475Y20343471D01*
X67461221Y20262609D01*
X67541399Y20164302D01*
X67600955Y20052293D01*
X67637621Y19930849D01*
X67650000Y19804597D01*
X67650000Y19195403D01*
X67649937Y19186328D01*
X67635796Y19060260D01*
X67597438Y18939341D01*
X67536324Y18828174D01*
X67454781Y18730996D01*
X67355916Y18651506D01*
X67243494Y18592733D01*
X67121798Y18556916D01*
X67121764Y18556913D01*
X67121751Y18556909D01*
X66995464Y18545416D01*
X66869349Y18558671D01*
X66869336Y18558675D01*
X66869299Y18558679D01*
X66748115Y18596192D01*
X66636525Y18656529D01*
X66538779Y18737391D01*
X66458601Y18835698D01*
X66399045Y18947707D01*
X66362379Y19069151D01*
X66350000Y19195403D01*
X66350000Y19804597D01*
X66350063Y19813672D01*
X66364204Y19939740D01*
X66402562Y20060659D01*
X66463676Y20171826D01*
X66545219Y20269004D01*
X66644084Y20348494D01*
X66756506Y20407267D01*
X66878202Y20443084D01*
X66878236Y20443087D01*
X66878249Y20443091D01*
X67004536Y20454584D01*
X67130651Y20441329D01*
X67130651Y20441329D01*
G37*
G36*
X69130651Y20441329D02*
X69130664Y20441325D01*
X69130701Y20441321D01*
X69251885Y20403808D01*
X69363475Y20343471D01*
X69461221Y20262609D01*
X69541399Y20164302D01*
X69600955Y20052293D01*
X69637621Y19930849D01*
X69650000Y19804597D01*
X69650000Y19195403D01*
X69649937Y19186328D01*
X69635796Y19060260D01*
X69597438Y18939341D01*
X69536324Y18828174D01*
X69454781Y18730996D01*
X69355916Y18651506D01*
X69243494Y18592733D01*
X69121798Y18556916D01*
X69121764Y18556913D01*
X69121751Y18556909D01*
X68995464Y18545416D01*
X68869349Y18558671D01*
X68869336Y18558675D01*
X68869299Y18558679D01*
X68748115Y18596192D01*
X68636525Y18656529D01*
X68538779Y18737391D01*
X68458601Y18835698D01*
X68399045Y18947707D01*
X68362379Y19069151D01*
X68350000Y19195403D01*
X68350000Y19804597D01*
X68350063Y19813672D01*
X68364204Y19939740D01*
X68402562Y20060659D01*
X68463676Y20171826D01*
X68545219Y20269004D01*
X68644084Y20348494D01*
X68756506Y20407267D01*
X68878202Y20443084D01*
X68878236Y20443087D01*
X68878249Y20443091D01*
X69004536Y20454584D01*
X69130651Y20441329D01*
X69130651Y20441329D01*
G37*
G36*
X71130651Y20441329D02*
X71130664Y20441325D01*
X71130701Y20441321D01*
X71251885Y20403808D01*
X71363475Y20343471D01*
X71461221Y20262609D01*
X71541399Y20164302D01*
X71600955Y20052293D01*
X71637621Y19930849D01*
X71650000Y19804597D01*
X71650000Y19195403D01*
X71649937Y19186328D01*
X71635796Y19060260D01*
X71597438Y18939341D01*
X71536324Y18828174D01*
X71454781Y18730996D01*
X71355916Y18651506D01*
X71243494Y18592733D01*
X71121798Y18556916D01*
X71121764Y18556913D01*
X71121751Y18556909D01*
X70995464Y18545416D01*
X70869349Y18558671D01*
X70869336Y18558675D01*
X70869299Y18558679D01*
X70748115Y18596192D01*
X70636525Y18656529D01*
X70538779Y18737391D01*
X70458601Y18835698D01*
X70399045Y18947707D01*
X70362379Y19069151D01*
X70350000Y19195403D01*
X70350000Y19804597D01*
X70350063Y19813672D01*
X70364204Y19939740D01*
X70402562Y20060659D01*
X70463676Y20171826D01*
X70545219Y20269004D01*
X70644084Y20348494D01*
X70756506Y20407267D01*
X70878202Y20443084D01*
X70878236Y20443087D01*
X70878249Y20443091D01*
X71004536Y20454584D01*
X71130651Y20441329D01*
X71130651Y20441329D01*
G37*
G36*
X73130651Y20441329D02*
X73130664Y20441325D01*
X73130701Y20441321D01*
X73251885Y20403808D01*
X73363475Y20343471D01*
X73461221Y20262609D01*
X73541399Y20164302D01*
X73600955Y20052293D01*
X73637621Y19930849D01*
X73650000Y19804597D01*
X73650000Y19195403D01*
X73649937Y19186328D01*
X73635796Y19060260D01*
X73597438Y18939341D01*
X73536324Y18828174D01*
X73454781Y18730996D01*
X73355916Y18651506D01*
X73243494Y18592733D01*
X73121798Y18556916D01*
X73121764Y18556913D01*
X73121751Y18556909D01*
X72995464Y18545416D01*
X72869349Y18558671D01*
X72869336Y18558675D01*
X72869299Y18558679D01*
X72748115Y18596192D01*
X72636525Y18656529D01*
X72538779Y18737391D01*
X72458601Y18835698D01*
X72399045Y18947707D01*
X72362379Y19069151D01*
X72350000Y19195403D01*
X72350000Y19804597D01*
X72350063Y19813672D01*
X72364204Y19939740D01*
X72402562Y20060659D01*
X72463676Y20171826D01*
X72545219Y20269004D01*
X72644084Y20348494D01*
X72756506Y20407267D01*
X72878202Y20443084D01*
X72878236Y20443087D01*
X72878249Y20443091D01*
X73004536Y20454584D01*
X73130651Y20441329D01*
X73130651Y20441329D01*
G37*
G36*
X16026259Y19549836D02*
X16074287Y19539977D01*
X16119481Y19520979D01*
X16160131Y19493561D01*
X16194677Y19458773D01*
X16221806Y19417938D01*
X16240490Y19372609D01*
X16249945Y19324859D01*
X16249945Y19324848D01*
X16250011Y19324514D01*
X16249229Y19268515D01*
X16249153Y19268181D01*
X16249153Y19268173D01*
X16238369Y19220702D01*
X16218428Y19175916D01*
X16190166Y19135851D01*
X16154663Y19102044D01*
X16113265Y19075771D01*
X16067555Y19058042D01*
X16019274Y19049528D01*
X15970257Y19050555D01*
X15922370Y19061083D01*
X15877443Y19080712D01*
X15837185Y19108692D01*
X15803125Y19143962D01*
X15776569Y19185169D01*
X15758518Y19230760D01*
X15749668Y19278977D01*
X15750354Y19328003D01*
X15760546Y19375957D01*
X15779862Y19421023D01*
X15807560Y19461476D01*
X15842591Y19495781D01*
X15883614Y19522626D01*
X15929073Y19540992D01*
X15977230Y19550178D01*
X16026259Y19549836D01*
X16026259Y19549836D01*
G37*
G36*
X2050789Y22818235D02*
X2271712Y22772886D01*
X2479614Y22685493D01*
X2666588Y22559377D01*
X2825499Y22399353D01*
X2950307Y22211503D01*
X3036245Y22002999D01*
X3079983Y21782107D01*
X3079983Y21782097D01*
X3080049Y21781763D01*
X3076452Y21524169D01*
X3076376Y21523835D01*
X3076376Y21523824D01*
X3026489Y21304247D01*
X2934759Y21098218D01*
X2804759Y20913931D01*
X2641434Y20758399D01*
X2451020Y20637559D01*
X2240754Y20556001D01*
X2018656Y20516840D01*
X1793179Y20521562D01*
X1572906Y20569992D01*
X1366246Y20660280D01*
X1181055Y20788992D01*
X1024389Y20951224D01*
X902221Y21140791D01*
X819199Y21350481D01*
X778486Y21572308D01*
X781636Y21797811D01*
X828524Y22018406D01*
X917370Y22225698D01*
X1044785Y22411783D01*
X1205919Y22569578D01*
X1394631Y22693068D01*
X1603736Y22777552D01*
X1825265Y22819810D01*
X2050789Y22818235D01*
X2050789Y22818235D01*
G37*
G36*
X6035034Y22668336D02*
X6227141Y22628902D01*
X6407925Y22552907D01*
X6570509Y22443244D01*
X6708697Y22304087D01*
X6817223Y22140744D01*
X6891954Y21959433D01*
X6929978Y21767399D01*
X6929978Y21767384D01*
X6930043Y21767055D01*
X6926916Y21543060D01*
X6926839Y21542722D01*
X6926839Y21542714D01*
X6883471Y21351825D01*
X6803705Y21172667D01*
X6690661Y21012417D01*
X6548639Y20877172D01*
X6383061Y20772094D01*
X6200221Y20701173D01*
X6007093Y20667121D01*
X5811025Y20671227D01*
X5619485Y20713340D01*
X5439779Y20791853D01*
X5278742Y20903775D01*
X5142511Y21044847D01*
X5036279Y21209687D01*
X4964085Y21392026D01*
X4928682Y21584920D01*
X4931421Y21781010D01*
X4972194Y21972832D01*
X5049451Y22153086D01*
X5160247Y22314899D01*
X5300364Y22452113D01*
X5464461Y22559495D01*
X5646292Y22632959D01*
X5838925Y22669706D01*
X6035034Y22668336D01*
X6035034Y22668336D01*
G37*
M02*
