G04 #@! TF.FileFunction,Legend,Bot*
%FSLAX46Y46*%
G04 Gerber Fmt 4.6, Leading zero omitted, Abs format (unit mm)*
G04 Created by KiCad (PCBNEW 4.0.0-rc2-1-stable) date Mardi 07 juin 2016 13:35:49*
%MOMM*%
G01*
G04 APERTURE LIST*
%ADD10C,0.100000*%
%ADD11C,0.300000*%
%ADD12C,0.200000*%
%ADD13C,0.500000*%
%ADD14C,0.150000*%
%ADD15C,0.254000*%
G04 APERTURE END LIST*
D10*
D11*
X50869048Y8428571D02*
X49440476Y8428571D01*
X50297619Y9285714D02*
X50869048Y6714286D01*
X49630952Y7571429D02*
X51059524Y7571429D01*
X50202381Y6714286D02*
X49630952Y9285714D01*
X7190571Y4510572D02*
X7190571Y4224858D01*
X7262000Y4082000D01*
X7404857Y3939143D01*
X7690571Y3867715D01*
X8190571Y3867715D01*
X8476286Y3939143D01*
X8619143Y4082000D01*
X8690571Y4224858D01*
X8690571Y4510572D01*
X8619143Y4653429D01*
X8476286Y4796286D01*
X8190571Y4867715D01*
X7690571Y4867715D01*
X7404857Y4796286D01*
X7262000Y4653429D01*
X7190571Y4510572D01*
X8690571Y3224857D02*
X7190571Y3224857D01*
X8690571Y2367714D01*
X7190571Y2367714D01*
X96649999Y16595429D02*
X95649999Y16595429D01*
X96649999Y15095429D01*
X95649999Y15095429D01*
D12*
X94753000Y14504000D02*
X95515000Y13869000D01*
X94753000Y13869000D02*
X95515000Y14631000D01*
X95672815Y14250000D02*
G75*
G03X95672815Y14250000I-538815J0D01*
G01*
D11*
X93737000Y10983714D02*
X93737000Y10269429D01*
X94237000Y11769429D02*
X93737000Y10983714D01*
X93237000Y11769429D01*
D12*
X95100000Y11050000D02*
X94750000Y11700000D01*
X95100000Y11050000D02*
X95450000Y11700000D01*
X95100000Y13700000D02*
X95100000Y11050000D01*
D11*
X91950999Y15071429D02*
X90950999Y13571429D01*
X90950999Y15071429D02*
X91950999Y13571429D01*
D12*
X91959000Y14250000D02*
X92594000Y13869000D01*
X91959000Y14250000D02*
X92594000Y14631000D01*
X94500000Y14250000D02*
X91959000Y14250000D01*
X54985714Y13407143D02*
X54871429Y13407143D01*
X54757143Y13350000D01*
X54700000Y13292857D01*
X54642857Y13178571D01*
X54585714Y12950000D01*
X54585714Y12664286D01*
X54642857Y12435714D01*
X54700000Y12321429D01*
X54757143Y12264286D01*
X54871429Y12207143D01*
X54985714Y12207143D01*
X55100000Y12264286D01*
X55157143Y12321429D01*
X55214286Y12435714D01*
X55271429Y12664286D01*
X55271429Y12950000D01*
X55214286Y13178571D01*
X55157143Y13292857D01*
X55100000Y13350000D01*
X54985714Y13407143D01*
X53557143Y13407143D02*
X53785714Y13407143D01*
X53900000Y13350000D01*
X53957143Y13292857D01*
X54071429Y13121429D01*
X54128572Y12892857D01*
X54128572Y12435714D01*
X54071429Y12321429D01*
X54014286Y12264286D01*
X53900000Y12207143D01*
X53671429Y12207143D01*
X53557143Y12264286D01*
X53500000Y12321429D01*
X53442857Y12435714D01*
X53442857Y12721429D01*
X53500000Y12835714D01*
X53557143Y12892857D01*
X53671429Y12950000D01*
X53900000Y12950000D01*
X54014286Y12892857D01*
X54071429Y12835714D01*
X54128572Y12721429D01*
X52071429Y13464286D02*
X53100000Y11921429D01*
X51728572Y13292857D02*
X51671429Y13350000D01*
X51557143Y13407143D01*
X51271429Y13407143D01*
X51157143Y13350000D01*
X51100000Y13292857D01*
X51042857Y13178571D01*
X51042857Y13064286D01*
X51100000Y12892857D01*
X51785714Y12207143D01*
X51042857Y12207143D01*
X50300000Y13407143D02*
X50185715Y13407143D01*
X50071429Y13350000D01*
X50014286Y13292857D01*
X49957143Y13178571D01*
X49900000Y12950000D01*
X49900000Y12664286D01*
X49957143Y12435714D01*
X50014286Y12321429D01*
X50071429Y12264286D01*
X50185715Y12207143D01*
X50300000Y12207143D01*
X50414286Y12264286D01*
X50471429Y12321429D01*
X50528572Y12435714D01*
X50585715Y12664286D01*
X50585715Y12950000D01*
X50528572Y13178571D01*
X50471429Y13292857D01*
X50414286Y13350000D01*
X50300000Y13407143D01*
X48757143Y12207143D02*
X49442858Y12207143D01*
X49100000Y12207143D02*
X49100000Y13407143D01*
X49214286Y13235714D01*
X49328572Y13121429D01*
X49442858Y13064286D01*
X47728572Y13407143D02*
X47957143Y13407143D01*
X48071429Y13350000D01*
X48128572Y13292857D01*
X48242858Y13121429D01*
X48300001Y12892857D01*
X48300001Y12435714D01*
X48242858Y12321429D01*
X48185715Y12264286D01*
X48071429Y12207143D01*
X47842858Y12207143D01*
X47728572Y12264286D01*
X47671429Y12321429D01*
X47614286Y12435714D01*
X47614286Y12721429D01*
X47671429Y12835714D01*
X47728572Y12892857D01*
X47842858Y12950000D01*
X48071429Y12950000D01*
X48185715Y12892857D01*
X48242858Y12835714D01*
X48300001Y12721429D01*
X46185715Y12664286D02*
X45271429Y12664286D01*
X43957143Y13407143D02*
X43271429Y13407143D01*
X43614286Y12207143D02*
X43614286Y13407143D01*
X42700000Y12207143D02*
X42814286Y12264286D01*
X42871429Y12321429D01*
X42928572Y12435714D01*
X42928572Y12778571D01*
X42871429Y12892857D01*
X42814286Y12950000D01*
X42700000Y13007143D01*
X42528572Y13007143D01*
X42414286Y12950000D01*
X42357143Y12892857D01*
X42300000Y12778571D01*
X42300000Y12435714D01*
X42357143Y12321429D01*
X42414286Y12264286D01*
X42528572Y12207143D01*
X42700000Y12207143D01*
X41785715Y12207143D02*
X41785715Y13007143D01*
X41785715Y12892857D02*
X41728572Y12950000D01*
X41614286Y13007143D01*
X41442858Y13007143D01*
X41328572Y12950000D01*
X41271429Y12835714D01*
X41271429Y12207143D01*
X41271429Y12835714D02*
X41214286Y12950000D01*
X41100000Y13007143D01*
X40928572Y13007143D01*
X40814286Y12950000D01*
X40757143Y12835714D01*
X40757143Y12207143D01*
X39271429Y12207143D02*
X39271429Y13407143D01*
X38871429Y12550000D01*
X38471429Y13407143D01*
X38471429Y12207143D01*
X37385714Y12207143D02*
X37385714Y12835714D01*
X37442857Y12950000D01*
X37557143Y13007143D01*
X37785714Y13007143D01*
X37900000Y12950000D01*
X37385714Y12264286D02*
X37500000Y12207143D01*
X37785714Y12207143D01*
X37900000Y12264286D01*
X37957143Y12378571D01*
X37957143Y12492857D01*
X37900000Y12607143D01*
X37785714Y12664286D01*
X37500000Y12664286D01*
X37385714Y12721429D01*
X36300000Y13007143D02*
X36300000Y12035714D01*
X36357143Y11921429D01*
X36414286Y11864286D01*
X36528571Y11807143D01*
X36700000Y11807143D01*
X36814286Y11864286D01*
X36300000Y12264286D02*
X36414286Y12207143D01*
X36642857Y12207143D01*
X36757143Y12264286D01*
X36814286Y12321429D01*
X36871429Y12435714D01*
X36871429Y12778571D01*
X36814286Y12892857D01*
X36757143Y12950000D01*
X36642857Y13007143D01*
X36414286Y13007143D01*
X36300000Y12950000D01*
X35728572Y13007143D02*
X35728572Y12207143D01*
X35728572Y12892857D02*
X35671429Y12950000D01*
X35557143Y13007143D01*
X35385715Y13007143D01*
X35271429Y12950000D01*
X35214286Y12835714D01*
X35214286Y12207143D01*
X34642858Y12207143D02*
X34642858Y13007143D01*
X34642858Y13407143D02*
X34700001Y13350000D01*
X34642858Y13292857D01*
X34585715Y13350000D01*
X34642858Y13407143D01*
X34642858Y13292857D01*
X33614286Y12264286D02*
X33728572Y12207143D01*
X33957143Y12207143D01*
X34071429Y12264286D01*
X34128572Y12378571D01*
X34128572Y12835714D01*
X34071429Y12950000D01*
X33957143Y13007143D01*
X33728572Y13007143D01*
X33614286Y12950000D01*
X33557143Y12835714D01*
X33557143Y12721429D01*
X34128572Y12607143D01*
X33042858Y12207143D02*
X33042858Y13007143D01*
X33042858Y12778571D02*
X32985715Y12892857D01*
X32928572Y12950000D01*
X32814286Y13007143D01*
X32700001Y13007143D01*
D11*
X55321429Y14185714D02*
X55321429Y15985714D01*
X54721429Y14700000D01*
X54121429Y15985714D01*
X54121429Y14185714D01*
X52492857Y14185714D02*
X52492857Y15128571D01*
X52578571Y15300000D01*
X52750000Y15385714D01*
X53092857Y15385714D01*
X53264286Y15300000D01*
X52492857Y14271429D02*
X52664286Y14185714D01*
X53092857Y14185714D01*
X53264286Y14271429D01*
X53350000Y14442857D01*
X53350000Y14614286D01*
X53264286Y14785714D01*
X53092857Y14871429D01*
X52664286Y14871429D01*
X52492857Y14957143D01*
X51721429Y14271429D02*
X51550000Y14185714D01*
X51207143Y14185714D01*
X51035715Y14271429D01*
X50950000Y14442857D01*
X50950000Y14528571D01*
X51035715Y14700000D01*
X51207143Y14785714D01*
X51464286Y14785714D01*
X51635715Y14871429D01*
X51721429Y15042857D01*
X51721429Y15128571D01*
X51635715Y15300000D01*
X51464286Y15385714D01*
X51207143Y15385714D01*
X51035715Y15300000D01*
X50264286Y14271429D02*
X50092857Y14185714D01*
X49750000Y14185714D01*
X49578572Y14271429D01*
X49492857Y14442857D01*
X49492857Y14528571D01*
X49578572Y14700000D01*
X49750000Y14785714D01*
X50007143Y14785714D01*
X50178572Y14871429D01*
X50264286Y15042857D01*
X50264286Y15128571D01*
X50178572Y15300000D01*
X50007143Y15385714D01*
X49750000Y15385714D01*
X49578572Y15300000D01*
X47950000Y15385714D02*
X47950000Y14185714D01*
X48721429Y15385714D02*
X48721429Y14442857D01*
X48635714Y14271429D01*
X48464286Y14185714D01*
X48207143Y14185714D01*
X48035714Y14271429D01*
X47950000Y14357143D01*
X46407143Y14271429D02*
X46578572Y14185714D01*
X46921429Y14185714D01*
X47092858Y14271429D01*
X47178572Y14442857D01*
X47178572Y15128571D01*
X47092858Y15300000D01*
X46921429Y15385714D01*
X46578572Y15385714D01*
X46407143Y15300000D01*
X46321429Y15128571D01*
X46321429Y14957143D01*
X47178572Y14785714D01*
X43578572Y15128571D02*
X43321429Y15042857D01*
X43235714Y14957143D01*
X43150000Y14785714D01*
X43150000Y14528571D01*
X43235714Y14357143D01*
X43321429Y14271429D01*
X43492857Y14185714D01*
X44178572Y14185714D01*
X44178572Y15985714D01*
X43578572Y15985714D01*
X43407143Y15900000D01*
X43321429Y15814286D01*
X43235714Y15642857D01*
X43235714Y15471429D01*
X43321429Y15300000D01*
X43407143Y15214286D01*
X43578572Y15128571D01*
X44178572Y15128571D01*
X41692857Y14271429D02*
X41864286Y14185714D01*
X42207143Y14185714D01*
X42378572Y14271429D01*
X42464286Y14442857D01*
X42464286Y15128571D01*
X42378572Y15300000D01*
X42207143Y15385714D01*
X41864286Y15385714D01*
X41692857Y15300000D01*
X41607143Y15128571D01*
X41607143Y14957143D01*
X42464286Y14785714D01*
X40835715Y15385714D02*
X40835715Y14185714D01*
X40835715Y15214286D02*
X40750000Y15300000D01*
X40578572Y15385714D01*
X40321429Y15385714D01*
X40150000Y15300000D01*
X40064286Y15128571D01*
X40064286Y14185714D01*
X39464286Y15385714D02*
X38778572Y15385714D01*
X39207144Y15985714D02*
X39207144Y14442857D01*
X39121429Y14271429D01*
X38950001Y14185714D01*
X38778572Y14185714D01*
X37921430Y14185714D02*
X38092858Y14271429D01*
X38178573Y14357143D01*
X38264287Y14528571D01*
X38264287Y15042857D01*
X38178573Y15214286D01*
X38092858Y15300000D01*
X37921430Y15385714D01*
X37664287Y15385714D01*
X37492858Y15300000D01*
X37407144Y15214286D01*
X37321430Y15042857D01*
X37321430Y14528571D01*
X37407144Y14357143D01*
X37492858Y14271429D01*
X37664287Y14185714D01*
X37921430Y14185714D01*
X35350001Y15385714D02*
X34921430Y14185714D01*
X34492858Y15385714D01*
X33035715Y15385714D02*
X33035715Y14185714D01*
X33464286Y16071429D02*
X33892858Y14785714D01*
X32778572Y14785714D01*
X32092858Y14357143D02*
X32007143Y14271429D01*
X32092858Y14185714D01*
X32178572Y14271429D01*
X32092858Y14357143D01*
X32092858Y14185714D01*
X31321429Y15814286D02*
X31235715Y15900000D01*
X31064286Y15985714D01*
X30635715Y15985714D01*
X30464286Y15900000D01*
X30378572Y15814286D01*
X30292857Y15642857D01*
X30292857Y15471429D01*
X30378572Y15214286D01*
X31407143Y14185714D01*
X30292857Y14185714D01*
X84267000Y14309429D02*
X84267000Y13095143D01*
X84195572Y12952286D01*
X84124143Y12880857D01*
X83981286Y12809429D01*
X83695572Y12809429D01*
X83552714Y12880857D01*
X83481286Y12952286D01*
X83409857Y13095143D01*
X83409857Y14309429D01*
X82767000Y12880857D02*
X82624143Y12809429D01*
X82338428Y12809429D01*
X82195571Y12880857D01*
X82124143Y13023714D01*
X82124143Y13095143D01*
X82195571Y13238000D01*
X82338428Y13309429D01*
X82552714Y13309429D01*
X82695571Y13380857D01*
X82767000Y13523714D01*
X82767000Y13595143D01*
X82695571Y13738000D01*
X82552714Y13809429D01*
X82338428Y13809429D01*
X82195571Y13738000D01*
X80909857Y12880857D02*
X81052714Y12809429D01*
X81338428Y12809429D01*
X81481285Y12880857D01*
X81552714Y13023714D01*
X81552714Y13595143D01*
X81481285Y13738000D01*
X81338428Y13809429D01*
X81052714Y13809429D01*
X80909857Y13738000D01*
X80838428Y13595143D01*
X80838428Y13452286D01*
X81552714Y13309429D01*
X80195571Y12809429D02*
X80195571Y13809429D01*
X80195571Y13523714D02*
X80124143Y13666571D01*
X80052714Y13738000D01*
X79909857Y13809429D01*
X79767000Y13809429D01*
X78124143Y12809429D02*
X78124143Y14309429D01*
X78124143Y13738000D02*
X77981286Y13809429D01*
X77695572Y13809429D01*
X77552715Y13738000D01*
X77481286Y13666571D01*
X77409857Y13523714D01*
X77409857Y13095143D01*
X77481286Y12952286D01*
X77552715Y12880857D01*
X77695572Y12809429D01*
X77981286Y12809429D01*
X78124143Y12880857D01*
X76981286Y13809429D02*
X76409857Y13809429D01*
X76767000Y14309429D02*
X76767000Y13023714D01*
X76695572Y12880857D01*
X76552714Y12809429D01*
X76409857Y12809429D01*
X75909857Y13809429D02*
X75909857Y12809429D01*
X75909857Y13666571D02*
X75838429Y13738000D01*
X75695571Y13809429D01*
X75481286Y13809429D01*
X75338429Y13738000D01*
X75267000Y13595143D01*
X75267000Y12809429D01*
D12*
X79767000Y12345000D02*
X79767000Y9805000D01*
X77100000Y9805000D02*
X77100000Y12345000D01*
X82307000Y9805000D02*
X77100000Y9805000D01*
X82307000Y12345000D02*
X82307000Y9805000D01*
X77100000Y12345000D02*
X82307000Y12345000D01*
D11*
X95252143Y6689429D02*
X94395000Y6689429D01*
X94823571Y5189429D02*
X94823571Y6689429D01*
X93680714Y5189429D02*
X93823572Y5260857D01*
X93895000Y5332286D01*
X93966429Y5475143D01*
X93966429Y5903714D01*
X93895000Y6046571D01*
X93823572Y6118000D01*
X93680714Y6189429D01*
X93466429Y6189429D01*
X93323572Y6118000D01*
X93252143Y6046571D01*
X93180714Y5903714D01*
X93180714Y5475143D01*
X93252143Y5332286D01*
X93323572Y5260857D01*
X93466429Y5189429D01*
X93680714Y5189429D01*
X91895000Y6189429D02*
X91895000Y5189429D01*
X92537857Y6189429D02*
X92537857Y5403714D01*
X92466429Y5260857D01*
X92323571Y5189429D01*
X92109286Y5189429D01*
X91966429Y5260857D01*
X91895000Y5332286D01*
X90537857Y5260857D02*
X90680714Y5189429D01*
X90966428Y5189429D01*
X91109286Y5260857D01*
X91180714Y5332286D01*
X91252143Y5475143D01*
X91252143Y5903714D01*
X91180714Y6046571D01*
X91109286Y6118000D01*
X90966428Y6189429D01*
X90680714Y6189429D01*
X90537857Y6118000D01*
X89895000Y5189429D02*
X89895000Y6689429D01*
X89252143Y5189429D02*
X89252143Y5975143D01*
X89323572Y6118000D01*
X89466429Y6189429D01*
X89680714Y6189429D01*
X89823572Y6118000D01*
X89895000Y6046571D01*
X87466429Y5260857D02*
X87323572Y5189429D01*
X87037857Y5189429D01*
X86895000Y5260857D01*
X86823572Y5403714D01*
X86823572Y5475143D01*
X86895000Y5618000D01*
X87037857Y5689429D01*
X87252143Y5689429D01*
X87395000Y5760857D01*
X87466429Y5903714D01*
X87466429Y5975143D01*
X87395000Y6118000D01*
X87252143Y6189429D01*
X87037857Y6189429D01*
X86895000Y6118000D01*
X85609286Y5260857D02*
X85752143Y5189429D01*
X86037857Y5189429D01*
X86180714Y5260857D01*
X86252143Y5403714D01*
X86252143Y5975143D01*
X86180714Y6118000D01*
X86037857Y6189429D01*
X85752143Y6189429D01*
X85609286Y6118000D01*
X85537857Y5975143D01*
X85537857Y5832286D01*
X86252143Y5689429D01*
X84895000Y6189429D02*
X84895000Y5189429D01*
X84895000Y6046571D02*
X84823572Y6118000D01*
X84680714Y6189429D01*
X84466429Y6189429D01*
X84323572Y6118000D01*
X84252143Y5975143D01*
X84252143Y5189429D01*
X83609286Y5260857D02*
X83466429Y5189429D01*
X83180714Y5189429D01*
X83037857Y5260857D01*
X82966429Y5403714D01*
X82966429Y5475143D01*
X83037857Y5618000D01*
X83180714Y5689429D01*
X83395000Y5689429D01*
X83537857Y5760857D01*
X83609286Y5903714D01*
X83609286Y5975143D01*
X83537857Y6118000D01*
X83395000Y6189429D01*
X83180714Y6189429D01*
X83037857Y6118000D01*
X82109285Y5189429D02*
X82252143Y5260857D01*
X82323571Y5332286D01*
X82395000Y5475143D01*
X82395000Y5903714D01*
X82323571Y6046571D01*
X82252143Y6118000D01*
X82109285Y6189429D01*
X81895000Y6189429D01*
X81752143Y6118000D01*
X81680714Y6046571D01*
X81609285Y5903714D01*
X81609285Y5475143D01*
X81680714Y5332286D01*
X81752143Y5260857D01*
X81895000Y5189429D01*
X82109285Y5189429D01*
X80966428Y5189429D02*
X80966428Y6189429D01*
X80966428Y5903714D02*
X80895000Y6046571D01*
X80823571Y6118000D01*
X80680714Y6189429D01*
X80537857Y6189429D01*
D12*
X94245000Y4852000D02*
X94245000Y3582000D01*
X96912000Y4852000D02*
X96912000Y3582000D01*
X79005000Y4852000D02*
X96912000Y4852000D01*
X79005000Y3582000D02*
X79005000Y4852000D01*
D11*
X114921429Y12928571D02*
X114850000Y12857142D01*
X114778571Y12714285D01*
X114778571Y12357142D01*
X114850000Y12214285D01*
X114921429Y12142856D01*
X115064286Y12071428D01*
X115207143Y12071428D01*
X115421429Y12142856D01*
X116278571Y12999999D01*
X116278571Y12071428D01*
X116278571Y15371428D02*
X116278571Y16228571D01*
X116278571Y15799999D02*
X114778571Y15799999D01*
X114992857Y15942856D01*
X115135714Y16085714D01*
X115207143Y16228571D01*
X106720476Y19123810D02*
X104420476Y19123810D01*
X104420476Y18647619D01*
X104530000Y18361905D01*
X104749048Y18171429D01*
X104968095Y18076190D01*
X105406190Y17980952D01*
X105734762Y17980952D01*
X106172857Y18076190D01*
X106391905Y18171429D01*
X106610952Y18361905D01*
X106720476Y18647619D01*
X106720476Y19123810D01*
X109364286Y19361905D02*
X109364286Y17838095D01*
X110240476Y18600000D02*
X108488095Y18600000D01*
X112884286Y19361905D02*
X112884286Y17838095D01*
X113321428Y9071429D02*
X114035714Y9071429D01*
X114035714Y10571429D01*
X112821428Y9857143D02*
X112321428Y9857143D01*
X112107142Y9071429D02*
X112821428Y9071429D01*
X112821428Y10571429D01*
X112107142Y10571429D01*
X111464285Y9071429D02*
X111464285Y10571429D01*
X111107142Y10571429D01*
X110892857Y10500000D01*
X110749999Y10357143D01*
X110678571Y10214286D01*
X110607142Y9928571D01*
X110607142Y9714286D01*
X110678571Y9428571D01*
X110749999Y9285714D01*
X110892857Y9142857D01*
X111107142Y9071429D01*
X111464285Y9071429D01*
X108892857Y9142857D02*
X108750000Y9071429D01*
X108464285Y9071429D01*
X108321428Y9142857D01*
X108250000Y9285714D01*
X108250000Y9357143D01*
X108321428Y9500000D01*
X108464285Y9571429D01*
X108678571Y9571429D01*
X108821428Y9642857D01*
X108892857Y9785714D01*
X108892857Y9857143D01*
X108821428Y10000000D01*
X108678571Y10071429D01*
X108464285Y10071429D01*
X108321428Y10000000D01*
X107821428Y10071429D02*
X107249999Y10071429D01*
X107607142Y10571429D02*
X107607142Y9285714D01*
X107535714Y9142857D01*
X107392856Y9071429D01*
X107249999Y9071429D01*
X106749999Y9071429D02*
X106749999Y10071429D01*
X106749999Y9785714D02*
X106678571Y9928571D01*
X106607142Y10000000D01*
X106464285Y10071429D01*
X106321428Y10071429D01*
X105821428Y9071429D02*
X105821428Y10071429D01*
X105821428Y10571429D02*
X105892857Y10500000D01*
X105821428Y10428571D01*
X105750000Y10500000D01*
X105821428Y10571429D01*
X105821428Y10428571D01*
X105107142Y10071429D02*
X105107142Y8571429D01*
X105107142Y10000000D02*
X104964285Y10071429D01*
X104678571Y10071429D01*
X104535714Y10000000D01*
X104464285Y9928571D01*
X104392856Y9785714D01*
X104392856Y9357143D01*
X104464285Y9214286D01*
X104535714Y9142857D01*
X104678571Y9071429D01*
X104964285Y9071429D01*
X105107142Y9142857D01*
D12*
X107400000Y13900000D02*
X107400000Y11000000D01*
X114400000Y11000000D02*
X114400000Y13900000D01*
X104300000Y11000000D02*
X114400000Y11000000D01*
X104300000Y13900000D02*
X104300000Y11000000D01*
X114400000Y13900000D02*
X104300000Y13900000D01*
X107400000Y17700000D02*
X107400000Y14800000D01*
X104300000Y14800000D02*
X114400000Y14800000D01*
X104300000Y17700000D02*
X104300000Y14800000D01*
X114400000Y17700000D02*
X104300000Y17700000D01*
X114400000Y14800000D02*
X114400000Y17700000D01*
D11*
X132180857Y14491714D02*
X132252286Y14277428D01*
X132323714Y14206000D01*
X132466571Y14134571D01*
X132680857Y14134571D01*
X132823714Y14206000D01*
X132895143Y14277428D01*
X132966571Y14420286D01*
X132966571Y14991714D01*
X131466571Y14991714D01*
X131466571Y14491714D01*
X131538000Y14348857D01*
X131609429Y14277428D01*
X131752286Y14206000D01*
X131895143Y14206000D01*
X132038000Y14277428D01*
X132109429Y14348857D01*
X132180857Y14491714D01*
X132180857Y14991714D01*
X132966571Y12848857D02*
X132180857Y12848857D01*
X132038000Y12920286D01*
X131966571Y13063143D01*
X131966571Y13348857D01*
X132038000Y13491714D01*
X132895143Y12848857D02*
X132966571Y12991714D01*
X132966571Y13348857D01*
X132895143Y13491714D01*
X132752286Y13563143D01*
X132609429Y13563143D01*
X132466571Y13491714D01*
X132395143Y13348857D01*
X132395143Y12991714D01*
X132323714Y12848857D01*
X131966571Y12348857D02*
X131966571Y11777428D01*
X131466571Y12134571D02*
X132752286Y12134571D01*
X132895143Y12063143D01*
X132966571Y11920285D01*
X132966571Y11777428D01*
X131966571Y11491714D02*
X131966571Y10920285D01*
X131466571Y11277428D02*
X132752286Y11277428D01*
X132895143Y11206000D01*
X132966571Y11063142D01*
X132966571Y10920285D01*
X132966571Y9277428D02*
X131966571Y9277428D01*
X131466571Y9277428D02*
X131538000Y9348857D01*
X131609429Y9277428D01*
X131538000Y9206000D01*
X131466571Y9277428D01*
X131609429Y9277428D01*
X131966571Y8563142D02*
X132966571Y8563142D01*
X132109429Y8563142D02*
X132038000Y8491714D01*
X131966571Y8348856D01*
X131966571Y8134571D01*
X132038000Y7991714D01*
X132180857Y7920285D01*
X132966571Y7920285D01*
X135366571Y15991714D02*
X135366571Y16706000D01*
X133866571Y16706000D01*
X135366571Y15491714D02*
X134366571Y15491714D01*
X133866571Y15491714D02*
X133938000Y15563143D01*
X134009429Y15491714D01*
X133938000Y15420286D01*
X133866571Y15491714D01*
X134009429Y15491714D01*
X134795143Y14777428D02*
X134795143Y13634571D01*
X135366571Y12920285D02*
X133866571Y12920285D01*
X135366571Y11991713D02*
X135295143Y12134571D01*
X135223714Y12205999D01*
X135080857Y12277428D01*
X134652286Y12277428D01*
X134509429Y12205999D01*
X134438000Y12134571D01*
X134366571Y11991713D01*
X134366571Y11777428D01*
X134438000Y11634571D01*
X134509429Y11563142D01*
X134652286Y11491713D01*
X135080857Y11491713D01*
X135223714Y11563142D01*
X135295143Y11634571D01*
X135366571Y11777428D01*
X135366571Y11991713D01*
X134366571Y10848856D02*
X135366571Y10848856D01*
X134509429Y10848856D02*
X134438000Y10777428D01*
X134366571Y10634570D01*
X134366571Y10420285D01*
X134438000Y10277428D01*
X134580857Y10205999D01*
X135366571Y10205999D01*
X135366571Y7563142D02*
X135366571Y8420285D01*
X135366571Y7991713D02*
X133866571Y7991713D01*
X134080857Y8134570D01*
X134223714Y8277428D01*
X134295143Y8420285D01*
X135295143Y6991714D02*
X135366571Y6777428D01*
X135366571Y6420285D01*
X135295143Y6277428D01*
X135223714Y6205999D01*
X135080857Y6134571D01*
X134938000Y6134571D01*
X134795143Y6205999D01*
X134723714Y6277428D01*
X134652286Y6420285D01*
X134580857Y6705999D01*
X134509429Y6848857D01*
X134438000Y6920285D01*
X134295143Y6991714D01*
X134152286Y6991714D01*
X134009429Y6920285D01*
X133938000Y6848857D01*
X133866571Y6705999D01*
X133866571Y6348857D01*
X133938000Y6134571D01*
D13*
X141452381Y13071429D02*
X139547619Y13071429D01*
X140500000Y12119048D02*
X140500000Y14023810D01*
X140571429Y9047619D02*
X140571429Y10952381D01*
D11*
X11174952Y4772714D02*
X11174952Y6201286D01*
X11174952Y5487000D02*
X8674952Y5487000D01*
X9032095Y5725095D01*
X9270190Y5963190D01*
X9389238Y6201286D01*
D10*
G36*
X57110666Y12886051D02*
X57130147Y12349690D01*
X57190490Y11840971D01*
X57292884Y11355814D01*
X57438514Y10890137D01*
X57628566Y10439859D01*
X57864229Y10000898D01*
X57890199Y9959657D01*
X57890199Y12631145D01*
X57905175Y12938923D01*
X57942357Y13331328D01*
X58013843Y13712278D01*
X58117163Y14071579D01*
X58249849Y14399039D01*
X58268035Y14436536D01*
X58443422Y14741815D01*
X58646981Y15006204D01*
X58877695Y15228791D01*
X59134547Y15408660D01*
X59416519Y15544898D01*
X59554767Y15592782D01*
X59761676Y15641365D01*
X59998501Y15672246D01*
X60247003Y15683895D01*
X60488943Y15674781D01*
X60509933Y15672875D01*
X60927302Y15607898D01*
X61345112Y15493503D01*
X61760889Y15330989D01*
X62172155Y15121655D01*
X62576435Y14866799D01*
X62971253Y14567721D01*
X63354131Y14225718D01*
X63450696Y14130652D01*
X63608562Y13968854D01*
X63759233Y13806927D01*
X63906384Y13640100D01*
X64053690Y13463607D01*
X64204826Y13272677D01*
X64363467Y13062542D01*
X64533289Y12828433D01*
X64717966Y12565582D01*
X64921173Y12269219D01*
X65146586Y11934575D01*
X65169369Y11900500D01*
X65418658Y11528842D01*
X65643267Y11197122D01*
X65845473Y10902223D01*
X66027558Y10641030D01*
X66191799Y10410424D01*
X66340475Y10207289D01*
X66475866Y10028508D01*
X66600251Y9870963D01*
X66715908Y9731537D01*
X66825117Y9607114D01*
X66923024Y9501994D01*
X67069819Y9354713D01*
X67244644Y9188470D01*
X67434819Y9014686D01*
X67627661Y8844783D01*
X67810490Y8690184D01*
X67940013Y8585987D01*
X68037698Y8507503D01*
X68117520Y8439083D01*
X68172509Y8387038D01*
X68195694Y8357676D01*
X68195680Y8354579D01*
X68167345Y8326977D01*
X68105150Y8276373D01*
X68017064Y8208597D01*
X67911054Y8129479D01*
X67795088Y8044848D01*
X67677132Y7960533D01*
X67565153Y7882364D01*
X67467120Y7816169D01*
X67407210Y7777684D01*
X66971114Y7536077D01*
X66507694Y7333761D01*
X66024752Y7173331D01*
X65530092Y7057383D01*
X65035000Y6988824D01*
X64843217Y6975841D01*
X64618997Y6967639D01*
X64375614Y6964128D01*
X64126341Y6965219D01*
X63884452Y6970823D01*
X63663222Y6980849D01*
X63475924Y6995209D01*
X63434800Y6999599D01*
X62856362Y7091083D01*
X62292421Y7230945D01*
X61744685Y7418663D01*
X61214858Y7653719D01*
X61105300Y7709425D01*
X60651162Y7968702D01*
X60222016Y8259870D01*
X59820714Y8579558D01*
X59450108Y8924392D01*
X59113051Y9290999D01*
X58812393Y9676007D01*
X58550986Y10076043D01*
X58331683Y10487733D01*
X58157335Y10907705D01*
X58030793Y11332585D01*
X58026478Y11350869D01*
X58003613Y11453728D01*
X57987420Y11536308D01*
X57979982Y11587390D01*
X57980547Y11598214D01*
X58006476Y11593180D01*
X58069050Y11572067D01*
X58158090Y11538494D01*
X58236047Y11507342D01*
X58738498Y11326547D01*
X59239567Y11194601D01*
X59737446Y11111384D01*
X60230326Y11076773D01*
X60716398Y11090649D01*
X61193853Y11152890D01*
X61660883Y11263375D01*
X62115678Y11421982D01*
X62556431Y11628592D01*
X62881793Y11818213D01*
X63052686Y11926728D01*
X62996093Y12019587D01*
X62939500Y12112446D01*
X62698200Y12000167D01*
X62454752Y11897233D01*
X62181565Y11799318D01*
X61899662Y11713444D01*
X61659547Y11653075D01*
X61567750Y11634249D01*
X61478436Y11620164D01*
X61381826Y11610139D01*
X61268141Y11603495D01*
X61127601Y11599552D01*
X60950427Y11597628D01*
X60856700Y11597242D01*
X60663979Y11597281D01*
X60511877Y11599062D01*
X60390223Y11603290D01*
X60288846Y11610668D01*
X60197577Y11621903D01*
X60106245Y11637699D01*
X60021573Y11655107D01*
X59619636Y11761307D01*
X59208381Y11907189D01*
X58801243Y12087012D01*
X58411654Y12295039D01*
X58166950Y12447461D01*
X57890199Y12631145D01*
X57890199Y9959657D01*
X58022621Y9749362D01*
X58354377Y9294956D01*
X58727310Y8867277D01*
X59137754Y8469190D01*
X59582042Y8103553D01*
X60056507Y7773230D01*
X60557484Y7481082D01*
X61081305Y7229970D01*
X61428200Y7091616D01*
X61971454Y6917345D01*
X62538565Y6784454D01*
X63123467Y6693270D01*
X63720098Y6644121D01*
X64322393Y6637333D01*
X64924288Y6673232D01*
X65519718Y6752147D01*
X65985318Y6845997D01*
X66380353Y6958194D01*
X66788560Y7111610D01*
X67200951Y7301752D01*
X67608539Y7524126D01*
X68002336Y7774240D01*
X68346979Y8026751D01*
X68507969Y8153269D01*
X68886035Y7902418D01*
X69261449Y7661789D01*
X69642421Y7433685D01*
X70020222Y7222829D01*
X70386122Y7033948D01*
X70731393Y6871764D01*
X70993396Y6761854D01*
X71175453Y6693958D01*
X71349458Y6635879D01*
X71509379Y6589013D01*
X71649184Y6554753D01*
X71762841Y6534495D01*
X71844316Y6529634D01*
X71887579Y6541565D01*
X71893000Y6553800D01*
X71873225Y6577872D01*
X71863986Y6579200D01*
X71817889Y6590507D01*
X71736055Y6621649D01*
X71627521Y6668462D01*
X71501322Y6726779D01*
X71366495Y6792435D01*
X71232076Y6861265D01*
X71116957Y6923576D01*
X70890272Y7055613D01*
X70638222Y7211719D01*
X70374246Y7383182D01*
X70111785Y7561289D01*
X69885491Y7721869D01*
X69744742Y7825407D01*
X69599129Y7934693D01*
X69454339Y8045236D01*
X69316055Y8152546D01*
X69189964Y8252130D01*
X69081749Y8339499D01*
X68997096Y8410161D01*
X68941690Y8459625D01*
X68921216Y8483400D01*
X68921200Y8483647D01*
X68938846Y8507509D01*
X68987633Y8559508D01*
X69061341Y8633364D01*
X69153746Y8722795D01*
X69223093Y8788369D01*
X69483743Y9041416D01*
X69770763Y9336615D01*
X70083441Y9673138D01*
X70421067Y10050156D01*
X70782928Y10466842D01*
X71168312Y10922368D01*
X71576510Y11415905D01*
X72006808Y11946627D01*
X72458496Y12513704D01*
X72820100Y12974193D01*
X73378900Y13689957D01*
X73409389Y13163529D01*
X73423640Y12931593D01*
X73441995Y12655585D01*
X73464009Y12340982D01*
X73489239Y11993264D01*
X73517239Y11617909D01*
X73547565Y11220394D01*
X73579773Y10806199D01*
X73613417Y10380801D01*
X73648055Y9949678D01*
X73683240Y9518310D01*
X73718529Y9092173D01*
X73753478Y8676748D01*
X73787641Y8277510D01*
X73820574Y7899940D01*
X73851833Y7549515D01*
X73880973Y7231714D01*
X73907550Y6952015D01*
X73931119Y6715895D01*
X73937429Y6655400D01*
X73973626Y6312500D01*
X73962145Y6960200D01*
X73959222Y7109138D01*
X73954997Y7301598D01*
X73949650Y7530326D01*
X73943364Y7788068D01*
X73936321Y8067568D01*
X73928702Y8361570D01*
X73920688Y8662821D01*
X73912461Y8964065D01*
X73907777Y9131900D01*
X73901578Y9374377D01*
X73895759Y9645550D01*
X73890336Y9941473D01*
X73885328Y10258197D01*
X73880753Y10591776D01*
X73876627Y10938263D01*
X73872969Y11293710D01*
X73869797Y11654169D01*
X73867127Y12015695D01*
X73864979Y12374339D01*
X73863369Y12726154D01*
X73862315Y13067193D01*
X73861834Y13393509D01*
X73861945Y13701154D01*
X73862665Y13986182D01*
X73864012Y14244644D01*
X73866004Y14472594D01*
X73868657Y14666085D01*
X73871990Y14821169D01*
X73876021Y14933899D01*
X73880767Y15000327D01*
X73881481Y15005650D01*
X73888811Y15079641D01*
X73886523Y15128063D01*
X73879516Y15139000D01*
X73853890Y15118555D01*
X73799156Y15057776D01*
X73715969Y14957499D01*
X73604980Y14818561D01*
X73466843Y14641798D01*
X73302211Y14428047D01*
X73111737Y14178144D01*
X72896073Y13892925D01*
X72655874Y13573227D01*
X72630086Y13538800D01*
X72216842Y12989714D01*
X71829231Y12480425D01*
X71465096Y12008210D01*
X71122276Y11570344D01*
X70798613Y11164101D01*
X70491947Y10786757D01*
X70200120Y10435588D01*
X69920973Y10107868D01*
X69812437Y9982800D01*
X69709077Y9866257D01*
X69590639Y9735902D01*
X69461820Y9596598D01*
X69327312Y9453206D01*
X69191810Y9310588D01*
X69060010Y9173607D01*
X68936605Y9047123D01*
X68826290Y8936000D01*
X68733760Y8845099D01*
X68663708Y8779281D01*
X68620830Y8743409D01*
X68610688Y8738200D01*
X68581570Y8755167D01*
X68522273Y8802410D01*
X68438692Y8874439D01*
X68336727Y8965768D01*
X68222274Y9070908D01*
X68101231Y9184371D01*
X67979496Y9300669D01*
X67862967Y9414314D01*
X67757542Y9519819D01*
X67669117Y9611695D01*
X67650798Y9631414D01*
X67514139Y9782299D01*
X67385880Y9929748D01*
X67262838Y10078324D01*
X67141825Y10232594D01*
X67019658Y10397122D01*
X66893149Y10576473D01*
X66759115Y10775213D01*
X66614369Y10997905D01*
X66455727Y11249116D01*
X66280002Y11533411D01*
X66084009Y11855353D01*
X65987704Y12014800D01*
X65693702Y12495417D01*
X65416775Y12932621D01*
X65154130Y13329754D01*
X64902972Y13690157D01*
X64660509Y14017172D01*
X64423947Y14314139D01*
X64190494Y14584400D01*
X63957357Y14831297D01*
X63721741Y15058170D01*
X63480854Y15268361D01*
X63231903Y15465211D01*
X62972095Y15652062D01*
X62914100Y15691553D01*
X62484237Y15953742D01*
X62037464Y16172686D01*
X61578993Y16346298D01*
X61114033Y16472494D01*
X60831300Y16525016D01*
X60619732Y16548484D01*
X60383440Y16559615D01*
X60136462Y16558881D01*
X59892837Y16546752D01*
X59666601Y16523699D01*
X59471793Y16490193D01*
X59419727Y16477691D01*
X59051733Y16356708D01*
X58711941Y16193652D01*
X58401277Y15989311D01*
X58120671Y15744469D01*
X57871051Y15459913D01*
X57653344Y15136429D01*
X57506004Y14857001D01*
X57365928Y14522707D01*
X57258115Y14179407D01*
X57180924Y13818916D01*
X57132713Y13433049D01*
X57111839Y13013618D01*
X57110666Y12886051D01*
X57110666Y12886051D01*
X57110666Y12886051D01*
G37*
X57110666Y12886051D02*
X57130147Y12349690D01*
X57190490Y11840971D01*
X57292884Y11355814D01*
X57438514Y10890137D01*
X57628566Y10439859D01*
X57864229Y10000898D01*
X57890199Y9959657D01*
X57890199Y12631145D01*
X57905175Y12938923D01*
X57942357Y13331328D01*
X58013843Y13712278D01*
X58117163Y14071579D01*
X58249849Y14399039D01*
X58268035Y14436536D01*
X58443422Y14741815D01*
X58646981Y15006204D01*
X58877695Y15228791D01*
X59134547Y15408660D01*
X59416519Y15544898D01*
X59554767Y15592782D01*
X59761676Y15641365D01*
X59998501Y15672246D01*
X60247003Y15683895D01*
X60488943Y15674781D01*
X60509933Y15672875D01*
X60927302Y15607898D01*
X61345112Y15493503D01*
X61760889Y15330989D01*
X62172155Y15121655D01*
X62576435Y14866799D01*
X62971253Y14567721D01*
X63354131Y14225718D01*
X63450696Y14130652D01*
X63608562Y13968854D01*
X63759233Y13806927D01*
X63906384Y13640100D01*
X64053690Y13463607D01*
X64204826Y13272677D01*
X64363467Y13062542D01*
X64533289Y12828433D01*
X64717966Y12565582D01*
X64921173Y12269219D01*
X65146586Y11934575D01*
X65169369Y11900500D01*
X65418658Y11528842D01*
X65643267Y11197122D01*
X65845473Y10902223D01*
X66027558Y10641030D01*
X66191799Y10410424D01*
X66340475Y10207289D01*
X66475866Y10028508D01*
X66600251Y9870963D01*
X66715908Y9731537D01*
X66825117Y9607114D01*
X66923024Y9501994D01*
X67069819Y9354713D01*
X67244644Y9188470D01*
X67434819Y9014686D01*
X67627661Y8844783D01*
X67810490Y8690184D01*
X67940013Y8585987D01*
X68037698Y8507503D01*
X68117520Y8439083D01*
X68172509Y8387038D01*
X68195694Y8357676D01*
X68195680Y8354579D01*
X68167345Y8326977D01*
X68105150Y8276373D01*
X68017064Y8208597D01*
X67911054Y8129479D01*
X67795088Y8044848D01*
X67677132Y7960533D01*
X67565153Y7882364D01*
X67467120Y7816169D01*
X67407210Y7777684D01*
X66971114Y7536077D01*
X66507694Y7333761D01*
X66024752Y7173331D01*
X65530092Y7057383D01*
X65035000Y6988824D01*
X64843217Y6975841D01*
X64618997Y6967639D01*
X64375614Y6964128D01*
X64126341Y6965219D01*
X63884452Y6970823D01*
X63663222Y6980849D01*
X63475924Y6995209D01*
X63434800Y6999599D01*
X62856362Y7091083D01*
X62292421Y7230945D01*
X61744685Y7418663D01*
X61214858Y7653719D01*
X61105300Y7709425D01*
X60651162Y7968702D01*
X60222016Y8259870D01*
X59820714Y8579558D01*
X59450108Y8924392D01*
X59113051Y9290999D01*
X58812393Y9676007D01*
X58550986Y10076043D01*
X58331683Y10487733D01*
X58157335Y10907705D01*
X58030793Y11332585D01*
X58026478Y11350869D01*
X58003613Y11453728D01*
X57987420Y11536308D01*
X57979982Y11587390D01*
X57980547Y11598214D01*
X58006476Y11593180D01*
X58069050Y11572067D01*
X58158090Y11538494D01*
X58236047Y11507342D01*
X58738498Y11326547D01*
X59239567Y11194601D01*
X59737446Y11111384D01*
X60230326Y11076773D01*
X60716398Y11090649D01*
X61193853Y11152890D01*
X61660883Y11263375D01*
X62115678Y11421982D01*
X62556431Y11628592D01*
X62881793Y11818213D01*
X63052686Y11926728D01*
X62996093Y12019587D01*
X62939500Y12112446D01*
X62698200Y12000167D01*
X62454752Y11897233D01*
X62181565Y11799318D01*
X61899662Y11713444D01*
X61659547Y11653075D01*
X61567750Y11634249D01*
X61478436Y11620164D01*
X61381826Y11610139D01*
X61268141Y11603495D01*
X61127601Y11599552D01*
X60950427Y11597628D01*
X60856700Y11597242D01*
X60663979Y11597281D01*
X60511877Y11599062D01*
X60390223Y11603290D01*
X60288846Y11610668D01*
X60197577Y11621903D01*
X60106245Y11637699D01*
X60021573Y11655107D01*
X59619636Y11761307D01*
X59208381Y11907189D01*
X58801243Y12087012D01*
X58411654Y12295039D01*
X58166950Y12447461D01*
X57890199Y12631145D01*
X57890199Y9959657D01*
X58022621Y9749362D01*
X58354377Y9294956D01*
X58727310Y8867277D01*
X59137754Y8469190D01*
X59582042Y8103553D01*
X60056507Y7773230D01*
X60557484Y7481082D01*
X61081305Y7229970D01*
X61428200Y7091616D01*
X61971454Y6917345D01*
X62538565Y6784454D01*
X63123467Y6693270D01*
X63720098Y6644121D01*
X64322393Y6637333D01*
X64924288Y6673232D01*
X65519718Y6752147D01*
X65985318Y6845997D01*
X66380353Y6958194D01*
X66788560Y7111610D01*
X67200951Y7301752D01*
X67608539Y7524126D01*
X68002336Y7774240D01*
X68346979Y8026751D01*
X68507969Y8153269D01*
X68886035Y7902418D01*
X69261449Y7661789D01*
X69642421Y7433685D01*
X70020222Y7222829D01*
X70386122Y7033948D01*
X70731393Y6871764D01*
X70993396Y6761854D01*
X71175453Y6693958D01*
X71349458Y6635879D01*
X71509379Y6589013D01*
X71649184Y6554753D01*
X71762841Y6534495D01*
X71844316Y6529634D01*
X71887579Y6541565D01*
X71893000Y6553800D01*
X71873225Y6577872D01*
X71863986Y6579200D01*
X71817889Y6590507D01*
X71736055Y6621649D01*
X71627521Y6668462D01*
X71501322Y6726779D01*
X71366495Y6792435D01*
X71232076Y6861265D01*
X71116957Y6923576D01*
X70890272Y7055613D01*
X70638222Y7211719D01*
X70374246Y7383182D01*
X70111785Y7561289D01*
X69885491Y7721869D01*
X69744742Y7825407D01*
X69599129Y7934693D01*
X69454339Y8045236D01*
X69316055Y8152546D01*
X69189964Y8252130D01*
X69081749Y8339499D01*
X68997096Y8410161D01*
X68941690Y8459625D01*
X68921216Y8483400D01*
X68921200Y8483647D01*
X68938846Y8507509D01*
X68987633Y8559508D01*
X69061341Y8633364D01*
X69153746Y8722795D01*
X69223093Y8788369D01*
X69483743Y9041416D01*
X69770763Y9336615D01*
X70083441Y9673138D01*
X70421067Y10050156D01*
X70782928Y10466842D01*
X71168312Y10922368D01*
X71576510Y11415905D01*
X72006808Y11946627D01*
X72458496Y12513704D01*
X72820100Y12974193D01*
X73378900Y13689957D01*
X73409389Y13163529D01*
X73423640Y12931593D01*
X73441995Y12655585D01*
X73464009Y12340982D01*
X73489239Y11993264D01*
X73517239Y11617909D01*
X73547565Y11220394D01*
X73579773Y10806199D01*
X73613417Y10380801D01*
X73648055Y9949678D01*
X73683240Y9518310D01*
X73718529Y9092173D01*
X73753478Y8676748D01*
X73787641Y8277510D01*
X73820574Y7899940D01*
X73851833Y7549515D01*
X73880973Y7231714D01*
X73907550Y6952015D01*
X73931119Y6715895D01*
X73937429Y6655400D01*
X73973626Y6312500D01*
X73962145Y6960200D01*
X73959222Y7109138D01*
X73954997Y7301598D01*
X73949650Y7530326D01*
X73943364Y7788068D01*
X73936321Y8067568D01*
X73928702Y8361570D01*
X73920688Y8662821D01*
X73912461Y8964065D01*
X73907777Y9131900D01*
X73901578Y9374377D01*
X73895759Y9645550D01*
X73890336Y9941473D01*
X73885328Y10258197D01*
X73880753Y10591776D01*
X73876627Y10938263D01*
X73872969Y11293710D01*
X73869797Y11654169D01*
X73867127Y12015695D01*
X73864979Y12374339D01*
X73863369Y12726154D01*
X73862315Y13067193D01*
X73861834Y13393509D01*
X73861945Y13701154D01*
X73862665Y13986182D01*
X73864012Y14244644D01*
X73866004Y14472594D01*
X73868657Y14666085D01*
X73871990Y14821169D01*
X73876021Y14933899D01*
X73880767Y15000327D01*
X73881481Y15005650D01*
X73888811Y15079641D01*
X73886523Y15128063D01*
X73879516Y15139000D01*
X73853890Y15118555D01*
X73799156Y15057776D01*
X73715969Y14957499D01*
X73604980Y14818561D01*
X73466843Y14641798D01*
X73302211Y14428047D01*
X73111737Y14178144D01*
X72896073Y13892925D01*
X72655874Y13573227D01*
X72630086Y13538800D01*
X72216842Y12989714D01*
X71829231Y12480425D01*
X71465096Y12008210D01*
X71122276Y11570344D01*
X70798613Y11164101D01*
X70491947Y10786757D01*
X70200120Y10435588D01*
X69920973Y10107868D01*
X69812437Y9982800D01*
X69709077Y9866257D01*
X69590639Y9735902D01*
X69461820Y9596598D01*
X69327312Y9453206D01*
X69191810Y9310588D01*
X69060010Y9173607D01*
X68936605Y9047123D01*
X68826290Y8936000D01*
X68733760Y8845099D01*
X68663708Y8779281D01*
X68620830Y8743409D01*
X68610688Y8738200D01*
X68581570Y8755167D01*
X68522273Y8802410D01*
X68438692Y8874439D01*
X68336727Y8965768D01*
X68222274Y9070908D01*
X68101231Y9184371D01*
X67979496Y9300669D01*
X67862967Y9414314D01*
X67757542Y9519819D01*
X67669117Y9611695D01*
X67650798Y9631414D01*
X67514139Y9782299D01*
X67385880Y9929748D01*
X67262838Y10078324D01*
X67141825Y10232594D01*
X67019658Y10397122D01*
X66893149Y10576473D01*
X66759115Y10775213D01*
X66614369Y10997905D01*
X66455727Y11249116D01*
X66280002Y11533411D01*
X66084009Y11855353D01*
X65987704Y12014800D01*
X65693702Y12495417D01*
X65416775Y12932621D01*
X65154130Y13329754D01*
X64902972Y13690157D01*
X64660509Y14017172D01*
X64423947Y14314139D01*
X64190494Y14584400D01*
X63957357Y14831297D01*
X63721741Y15058170D01*
X63480854Y15268361D01*
X63231903Y15465211D01*
X62972095Y15652062D01*
X62914100Y15691553D01*
X62484237Y15953742D01*
X62037464Y16172686D01*
X61578993Y16346298D01*
X61114033Y16472494D01*
X60831300Y16525016D01*
X60619732Y16548484D01*
X60383440Y16559615D01*
X60136462Y16558881D01*
X59892837Y16546752D01*
X59666601Y16523699D01*
X59471793Y16490193D01*
X59419727Y16477691D01*
X59051733Y16356708D01*
X58711941Y16193652D01*
X58401277Y15989311D01*
X58120671Y15744469D01*
X57871051Y15459913D01*
X57653344Y15136429D01*
X57506004Y14857001D01*
X57365928Y14522707D01*
X57258115Y14179407D01*
X57180924Y13818916D01*
X57132713Y13433049D01*
X57111839Y13013618D01*
X57110666Y12886051D01*
X57110666Y12886051D01*
G36*
X62193167Y13391820D02*
X62205704Y13226035D01*
X62254743Y13067155D01*
X62339737Y12922900D01*
X62460142Y12800987D01*
X62607609Y12712548D01*
X62790271Y12652765D01*
X62964562Y12640725D01*
X63045069Y12651246D01*
X63223490Y12709698D01*
X63374857Y12806374D01*
X63495251Y12934269D01*
X63580749Y13086378D01*
X63627431Y13255698D01*
X63631376Y13435223D01*
X63588662Y13617950D01*
X63587697Y13620544D01*
X63502102Y13782295D01*
X63382895Y13912150D01*
X63237940Y14007538D01*
X63075103Y14065890D01*
X62902250Y14084638D01*
X62727247Y14061211D01*
X62557960Y13993041D01*
X62518914Y13969647D01*
X62380003Y13853424D01*
X62279772Y13713233D01*
X62217674Y13556792D01*
X62193167Y13391820D01*
X62193167Y13391820D01*
X62193167Y13391820D01*
G37*
X62193167Y13391820D02*
X62205704Y13226035D01*
X62254743Y13067155D01*
X62339737Y12922900D01*
X62460142Y12800987D01*
X62607609Y12712548D01*
X62790271Y12652765D01*
X62964562Y12640725D01*
X63045069Y12651246D01*
X63223490Y12709698D01*
X63374857Y12806374D01*
X63495251Y12934269D01*
X63580749Y13086378D01*
X63627431Y13255698D01*
X63631376Y13435223D01*
X63588662Y13617950D01*
X63587697Y13620544D01*
X63502102Y13782295D01*
X63382895Y13912150D01*
X63237940Y14007538D01*
X63075103Y14065890D01*
X62902250Y14084638D01*
X62727247Y14061211D01*
X62557960Y13993041D01*
X62518914Y13969647D01*
X62380003Y13853424D01*
X62279772Y13713233D01*
X62217674Y13556792D01*
X62193167Y13391820D01*
X62193167Y13391820D01*
D14*
X30000Y12719000D02*
X6680000Y12719000D01*
X6680000Y12719000D02*
X6680000Y20719000D01*
X6680000Y20719000D02*
X30000Y20719000D01*
X30000Y20719000D02*
X30000Y12719000D01*
X2300000Y5500000D02*
X-1700000Y5500000D01*
X-1700000Y5500000D02*
X-1700000Y3500000D01*
X-1700000Y3500000D02*
X2300000Y3500000D01*
X6700000Y1200000D02*
X6700000Y9800000D01*
X6700000Y9800000D02*
X2300000Y9800000D01*
X2300000Y9800000D02*
X2300000Y1200000D01*
X2300000Y1200000D02*
X6700000Y1200000D01*
X8875000Y17489000D02*
X13875000Y17489000D01*
X13875000Y17489000D02*
X13875000Y5489000D01*
X13875000Y5489000D02*
X8875000Y5489000D01*
X8875000Y5489000D02*
X8875000Y17489000D01*
D15*
G36*
X48623000Y5627000D02*
X31627000Y5627000D01*
X31627000Y10623000D01*
X48623000Y10623000D01*
X48623000Y5627000D01*
X48623000Y5627000D01*
G37*
X48623000Y5627000D02*
X31627000Y5627000D01*
X31627000Y10623000D01*
X48623000Y10623000D01*
X48623000Y5627000D01*
M02*
