G04 #@! TF.FileFunction,Legend,Top*
%FSLAX46Y46*%
G04 Gerber Fmt 4.6, Leading zero omitted, Abs format (unit mm)*
G04 Created by KiCad (PCBNEW 4.0.0-rc2-1-stable) date Mardi 07 juin 2016 13:35:49*
%MOMM*%
G01*
G04 APERTURE LIST*
%ADD10C,0.100000*%
%ADD11C,0.400000*%
%ADD12C,0.300000*%
%ADD13C,0.500000*%
%ADD14C,0.200000*%
%ADD15C,0.150000*%
%ADD16C,0.250000*%
%ADD17C,0.152400*%
%ADD18C,0.127000*%
G04 APERTURE END LIST*
D10*
D11*
X124534500Y14377000D02*
G75*
G03X124534500Y14377000I-190500J0D01*
G01*
X118121000Y8408000D02*
G75*
G03X118121000Y8408000I-190500J0D01*
G01*
X108659500Y8027000D02*
G75*
G03X108659500Y8027000I-190500J0D01*
G01*
X102309500Y4725000D02*
G75*
G03X102309500Y4725000I-190500J0D01*
G01*
X102309500Y18695000D02*
G75*
G03X102309500Y18695000I-190500J0D01*
G01*
X101390500Y13800000D02*
G75*
G03X101390500Y13800000I-190500J0D01*
G01*
X94990500Y14600000D02*
G75*
G03X94990500Y14600000I-190500J0D01*
G01*
X88911000Y8852500D02*
G75*
G03X88911000Y8852500I-190500J0D01*
G01*
X84402500Y17361500D02*
G75*
G03X84402500Y17361500I-190500J0D01*
G01*
X40333500Y7138000D02*
G75*
G03X40333500Y7138000I-190500J0D01*
G01*
X35888500Y17425000D02*
G75*
G03X35888500Y17425000I-190500J0D01*
G01*
D12*
X135561286Y13170715D02*
X135561286Y12670715D01*
X136189857Y12670715D02*
X134989857Y12670715D01*
X134989857Y13385001D01*
X135389857Y14599286D02*
X136189857Y14599286D01*
X135389857Y13956429D02*
X136018429Y13956429D01*
X136132714Y14027857D01*
X136189857Y14170715D01*
X136189857Y14385000D01*
X136132714Y14527857D01*
X136075571Y14599286D01*
X136132714Y15242143D02*
X136189857Y15385000D01*
X136189857Y15670715D01*
X136132714Y15813572D01*
X136018429Y15885000D01*
X135961286Y15885000D01*
X135847000Y15813572D01*
X135789857Y15670715D01*
X135789857Y15456429D01*
X135732714Y15313572D01*
X135618429Y15242143D01*
X135561286Y15242143D01*
X135447000Y15313572D01*
X135389857Y15456429D01*
X135389857Y15670715D01*
X135447000Y15813572D01*
X136132714Y17099286D02*
X136189857Y16956429D01*
X136189857Y16670715D01*
X136132714Y16527858D01*
X136018429Y16456429D01*
X135561286Y16456429D01*
X135447000Y16527858D01*
X135389857Y16670715D01*
X135389857Y16956429D01*
X135447000Y17099286D01*
X135561286Y17170715D01*
X135675571Y17170715D01*
X135789857Y16456429D01*
X116278571Y16228572D02*
X116278571Y15371429D01*
X116278571Y15800001D02*
X114778571Y15800001D01*
X114992857Y15657144D01*
X115135714Y15514286D01*
X115207143Y15371429D01*
X106770476Y9226190D02*
X104470476Y9226190D01*
X104470476Y9702381D01*
X104580000Y9988095D01*
X104799048Y10178571D01*
X105018095Y10273810D01*
X105456190Y10369048D01*
X105784762Y10369048D01*
X106222857Y10273810D01*
X106441905Y10178571D01*
X106660952Y9988095D01*
X106770476Y9702381D01*
X106770476Y9226190D01*
X109414286Y8988095D02*
X109414286Y10511905D01*
X110290476Y9750000D02*
X108538095Y9750000D01*
X112934286Y8988095D02*
X112934286Y10511905D01*
D13*
X139547619Y13071429D02*
X141452381Y13071429D01*
X140500000Y12119048D02*
X140500000Y14023810D01*
X140571429Y10952381D02*
X140571429Y9047619D01*
D12*
X19962048Y4772714D02*
X19962048Y6201286D01*
X19962048Y5487000D02*
X22462048Y5487000D01*
X22104905Y5725095D01*
X21866810Y5963190D01*
X21747762Y6201286D01*
D14*
X134758000Y18568000D02*
X131964000Y18568000D01*
X134758000Y10948000D02*
X134758000Y18568000D01*
X131964000Y10948000D02*
X134758000Y10948000D01*
X131964000Y18568000D02*
X131964000Y10948000D01*
D15*
X101240049Y13292017D02*
X96240049Y13292017D01*
X96240049Y13292017D02*
X96240049Y10292017D01*
X96240049Y10292017D02*
X101240049Y10292017D01*
X101240049Y10292017D02*
X101240049Y13292017D01*
D16*
X101452181Y13792017D02*
G75*
G03X101452181Y13792017I-212132J0D01*
G01*
D15*
X40340000Y7741000D02*
X40695000Y7741000D01*
X40340000Y15491000D02*
X40695000Y15491000D01*
X50990000Y15491000D02*
X50635000Y15491000D01*
X50990000Y7741000D02*
X50635000Y7741000D01*
X40340000Y7741000D02*
X40340000Y15491000D01*
X50990000Y7741000D02*
X50990000Y15491000D01*
X40695000Y7741000D02*
X40695000Y6216000D01*
X84775032Y17073114D02*
X84775032Y16848114D01*
X88025032Y17073114D02*
X88025032Y16848114D01*
X88025032Y13823114D02*
X88025032Y14048114D01*
X84775032Y13823114D02*
X84775032Y14048114D01*
X84775032Y17073114D02*
X88025032Y17073114D01*
X84775032Y13823114D02*
X88025032Y13823114D01*
X84775032Y16848114D02*
X83700032Y16848114D01*
X35750000Y13276000D02*
X34975000Y13276000D01*
X31450000Y17576000D02*
X32225000Y17576000D01*
X31450000Y13276000D02*
X32225000Y13276000D01*
X35750000Y17576000D02*
X35750000Y16801000D01*
X31450000Y17576000D02*
X31450000Y16801000D01*
X31450000Y13276000D02*
X31450000Y14051000D01*
X35750000Y13276000D02*
X35750000Y14051000D01*
X31134000Y9972000D02*
X32134000Y9972000D01*
X32134000Y8622000D02*
X31134000Y8622000D01*
X80994785Y7223775D02*
X80994785Y6223775D01*
X79644785Y6223775D02*
X79644785Y7223775D01*
X83534785Y7223775D02*
X83534785Y6223775D01*
X82184785Y6223775D02*
X82184785Y7223775D01*
X86074785Y7223775D02*
X86074785Y6223775D01*
X84724785Y6223775D02*
X84724785Y7223775D01*
X88614785Y7223775D02*
X88614785Y6223775D01*
X87264785Y6223775D02*
X87264785Y7223775D01*
X91154785Y7223775D02*
X91154785Y6223775D01*
X89804785Y6223775D02*
X89804785Y7223775D01*
X93694785Y7223775D02*
X93694785Y6223775D01*
X92344785Y6223775D02*
X92344785Y7223775D01*
X96234785Y7223775D02*
X96234785Y6223775D01*
X94884785Y6223775D02*
X94884785Y7223775D01*
X47550000Y4050000D02*
X46550000Y4050000D01*
X46550000Y5400000D02*
X47550000Y5400000D01*
X82210032Y13716114D02*
X81210032Y13716114D01*
X81210032Y15066114D02*
X82210032Y15066114D01*
X82210032Y15621114D02*
X81210032Y15621114D01*
X81210032Y16971114D02*
X82210032Y16971114D01*
X82210032Y17526114D02*
X81210032Y17526114D01*
X81210032Y18876114D02*
X82210032Y18876114D01*
X29281082Y6282196D02*
X29281082Y7282196D01*
X30631082Y7282196D02*
X30631082Y6282196D01*
X86792000Y11829000D02*
X86792000Y10829000D01*
X85442000Y10829000D02*
X85442000Y11829000D01*
X84887000Y11829000D02*
X84887000Y10829000D01*
X83537000Y10829000D02*
X83537000Y11829000D01*
X97634000Y16532000D02*
X97634000Y17532000D01*
X98984000Y17532000D02*
X98984000Y16532000D01*
X78410000Y7245000D02*
X78410000Y6245000D01*
X77060000Y6245000D02*
X77060000Y7245000D01*
X26652000Y17752000D02*
X27652000Y17752000D01*
X27652000Y16402000D02*
X26652000Y16402000D01*
X26652000Y15847000D02*
X27652000Y15847000D01*
X27652000Y14497000D02*
X26652000Y14497000D01*
X50688000Y4050000D02*
X49688000Y4050000D01*
X49688000Y5400000D02*
X50688000Y5400000D01*
X94289785Y4793775D02*
X79049785Y4793775D01*
X79049785Y4793775D02*
X79049785Y2253775D01*
X79049785Y2253775D02*
X94289785Y2253775D01*
X97109785Y5073775D02*
X95559785Y5073775D01*
X94289785Y4793775D02*
X94289785Y2253775D01*
X95559785Y1973775D02*
X97109785Y1973775D01*
X97109785Y1973775D02*
X97109785Y5073775D01*
X76947000Y9525000D02*
X78497000Y9525000D01*
X82307000Y9805000D02*
X79767000Y9805000D01*
X79767000Y9805000D02*
X79767000Y12345000D01*
X78497000Y12625000D02*
X76947000Y12625000D01*
X76947000Y12625000D02*
X76947000Y9525000D01*
X79767000Y12345000D02*
X82307000Y12345000D01*
X82307000Y12345000D02*
X82307000Y9805000D01*
X130860860Y4404940D02*
X130860860Y4755460D01*
X130860860Y7905060D02*
X130860860Y7554540D01*
X134910440Y4404940D02*
X134910440Y4755460D01*
X130409560Y4404940D02*
X130409560Y4755460D01*
X130409560Y7905060D02*
X130409560Y7554540D01*
X134910440Y7905060D02*
X134910440Y7554540D01*
X130409560Y4404940D02*
X134910440Y4404940D01*
X130409560Y7905060D02*
X134910440Y7905060D01*
X32411082Y5682196D02*
X32411082Y7582196D01*
X31311082Y5682196D02*
X31311082Y7582196D01*
X31861082Y6582196D02*
X31861082Y7032196D01*
X31611082Y6532196D02*
X32111082Y6532196D01*
X31861082Y6532196D02*
X31611082Y6782196D01*
X31611082Y6782196D02*
X32111082Y6782196D01*
X32111082Y6782196D02*
X31861082Y6532196D01*
X116208000Y8275000D02*
X115208000Y8275000D01*
X115208000Y6575000D02*
X116208000Y6575000D01*
X122865195Y14244513D02*
X121865195Y14244513D01*
X121865195Y12544513D02*
X122865195Y12544513D01*
X115108000Y12630000D02*
X115108000Y13330000D01*
X116308000Y13330000D02*
X116308000Y12630000D01*
X121200000Y18787000D02*
X121900000Y18787000D01*
X121900000Y17587000D02*
X121200000Y17587000D01*
X119118000Y11618000D02*
X118418000Y11618000D01*
X118418000Y12818000D02*
X119118000Y12818000D01*
X125435195Y17620513D02*
X124735195Y17620513D01*
X124735195Y18820513D02*
X125435195Y18820513D01*
X117240000Y4256000D02*
X118240000Y4256000D01*
X118240000Y5956000D02*
X117240000Y5956000D01*
X123823195Y10258513D02*
X124823195Y10258513D01*
X124823195Y11958513D02*
X123823195Y11958513D01*
X107619345Y7175587D02*
X107619345Y6475587D01*
X106419345Y6475587D02*
X106419345Y7175587D01*
X109667345Y4181587D02*
X108967345Y4181587D01*
X108967345Y5381587D02*
X109667345Y5381587D01*
X112191345Y7175587D02*
X112191345Y6475587D01*
X110991345Y6475587D02*
X110991345Y7175587D01*
X36726082Y7282196D02*
X36726082Y6282196D01*
X38426082Y6282196D02*
X38426082Y7282196D01*
X36753000Y11194000D02*
X36753000Y10194000D01*
X38453000Y10194000D02*
X38453000Y11194000D01*
X104370000Y6878400D02*
X104370000Y6178400D01*
X103170000Y6178400D02*
X103170000Y6878400D01*
X98990049Y13986017D02*
X98290049Y13986017D01*
X98290049Y15186017D02*
X98990049Y15186017D01*
X102850049Y12142017D02*
X102850049Y11442017D01*
X101650049Y11442017D02*
X101650049Y12142017D01*
X93873785Y10768775D02*
X93873785Y10068775D01*
X92673785Y10068775D02*
X92673785Y10768775D01*
X92747244Y17718164D02*
X92047244Y17718164D01*
X92047244Y18918164D02*
X92747244Y18918164D01*
X95452244Y18918164D02*
X96152244Y18918164D01*
X96152244Y17718164D02*
X95452244Y17718164D01*
X91728622Y15493164D02*
X91728622Y14793164D01*
X90528622Y14793164D02*
X90528622Y15493164D01*
X44160000Y18914000D02*
X44860000Y18914000D01*
X44860000Y17714000D02*
X44160000Y17714000D01*
X87775032Y17728114D02*
X87075032Y17728114D01*
X87075032Y18928114D02*
X87775032Y18928114D01*
X34397000Y11237000D02*
X33697000Y11237000D01*
X33697000Y12437000D02*
X34397000Y12437000D01*
X37761000Y18025000D02*
X38461000Y18025000D01*
X38461000Y16825000D02*
X37761000Y16825000D01*
X24012000Y17362000D02*
X24012000Y18062000D01*
X25212000Y18062000D02*
X25212000Y17362000D01*
X25212000Y14887000D02*
X25212000Y14187000D01*
X24012000Y14187000D02*
X24012000Y14887000D01*
X123967504Y17075900D02*
X122667504Y17075900D01*
X124542504Y14775900D02*
X122667504Y14775900D01*
X117551000Y11095000D02*
X116251000Y11095000D01*
X118126000Y8795000D02*
X116251000Y8795000D01*
D13*
X80443639Y18058000D02*
G75*
G03X80443639Y18058000I-223607J0D01*
G01*
D15*
X78620032Y17858000D02*
X79620032Y16858000D01*
X79620032Y17858000D02*
X76820032Y17858000D01*
X76820032Y17858000D02*
X76820032Y14658000D01*
X76820032Y14658000D02*
X79620032Y14658000D01*
X79620032Y14658000D02*
X79620032Y17858000D01*
X126395195Y10386513D02*
X126395195Y15386513D01*
X126395195Y15386513D02*
X131395195Y15386513D01*
X131395195Y15386513D02*
X131395195Y10386513D01*
X131395195Y10386513D02*
X126395195Y10386513D01*
X119812000Y4436000D02*
X119812000Y9436000D01*
X119812000Y9436000D02*
X124812000Y9436000D01*
X124812000Y9436000D02*
X124812000Y4436000D01*
X124812000Y4436000D02*
X119812000Y4436000D01*
D17*
X52600000Y3500000D02*
X52600000Y19500000D01*
X52600000Y19500000D02*
X58000000Y19500000D01*
X52600000Y3500000D02*
X58000000Y3500000D01*
X74600000Y3500000D02*
X74600000Y19500000D01*
X52600000Y19500000D02*
X56400000Y3500000D01*
X52600000Y3500000D02*
X56400000Y19500000D01*
X56400000Y3492000D02*
X56400000Y19492000D01*
D14*
X102457000Y17305000D02*
X101457000Y18305000D01*
X101457000Y18305000D02*
X100257000Y18305000D01*
X100257000Y18305000D02*
X100257000Y14005000D01*
X100257000Y14005000D02*
X102457000Y14005000D01*
X102457000Y14005000D02*
X102457000Y17305000D01*
D15*
X95673622Y16943164D02*
X95673622Y16543164D01*
X95673622Y16943164D02*
X95273622Y16943164D01*
X92473622Y16943164D02*
X92473622Y16543164D01*
X92473622Y16943164D02*
X92873622Y16943164D01*
X92473622Y13743164D02*
X92473622Y14143164D01*
X92473622Y13743164D02*
X92873622Y13743164D01*
X95673622Y13743164D02*
X95273622Y13743164D01*
D12*
X88798785Y8853775D02*
G75*
G03X88798785Y8853775I-100000J0D01*
G01*
D14*
X89148785Y9153775D02*
X88998785Y9303775D01*
X88998785Y12003775D02*
X88998785Y12153775D01*
X88998785Y12153775D02*
X89148785Y12153775D01*
X91998785Y9303775D02*
X91998785Y9153775D01*
X91998785Y9153775D02*
X91848785Y9153775D01*
X91998785Y12003775D02*
X91998785Y12153775D01*
X91998785Y12153775D02*
X91848785Y12153775D01*
D18*
X36240082Y7801196D02*
X36240082Y6023196D01*
X36240082Y6023196D02*
X33192082Y6023196D01*
X33192082Y6023196D02*
X33192082Y7801196D01*
X33192082Y7801196D02*
X36240082Y7801196D01*
D15*
X108756345Y6140587D02*
X109906345Y6140587D01*
X107981345Y7590587D02*
X109906345Y7590587D01*
X114358000Y17750000D02*
X104358000Y17750000D01*
X114358000Y14750000D02*
X114358000Y17750000D01*
X104358000Y14750000D02*
X114358000Y14750000D01*
X104358000Y17750000D02*
X104358000Y14750000D01*
X114358000Y13972000D02*
X104358000Y13972000D01*
X114358000Y10972000D02*
X114358000Y13972000D01*
X104358000Y10972000D02*
X114358000Y10972000D01*
X104358000Y13972000D02*
X104358000Y10972000D01*
X103989000Y16632000D02*
X103989000Y15932000D01*
X102789000Y15932000D02*
X102789000Y16632000D01*
X22323000Y17583000D02*
X17323000Y17583000D01*
X17323000Y17583000D02*
X17323000Y5583000D01*
X17323000Y5583000D02*
X22323000Y5583000D01*
X22323000Y5583000D02*
X22323000Y17583000D01*
X101419000Y8121000D02*
X99019000Y8121000D01*
X102469000Y4921000D02*
X99019000Y4921000D01*
X129498095Y2752619D02*
X129498095Y3752619D01*
X130069524Y2752619D02*
X129640952Y3324048D01*
X130069524Y3752619D02*
X129498095Y3181190D01*
X135321905Y3088333D02*
X135798096Y3088333D01*
X135226667Y2802619D02*
X135560000Y3802619D01*
X135893334Y2802619D01*
X54052381Y7677714D02*
X53052381Y7677714D01*
X54052381Y8249143D01*
X53052381Y8249143D01*
X54052381Y8868190D02*
X54004762Y8772952D01*
X53957143Y8725333D01*
X53861905Y8677714D01*
X53576190Y8677714D01*
X53480952Y8725333D01*
X53433333Y8772952D01*
X53385714Y8868190D01*
X53385714Y9011048D01*
X53433333Y9106286D01*
X53480952Y9153905D01*
X53576190Y9201524D01*
X53861905Y9201524D01*
X53957143Y9153905D01*
X54004762Y9106286D01*
X54052381Y9011048D01*
X54052381Y8868190D01*
X53957143Y10963429D02*
X54004762Y10915810D01*
X54052381Y10772953D01*
X54052381Y10677715D01*
X54004762Y10534857D01*
X53909524Y10439619D01*
X53814286Y10392000D01*
X53623810Y10344381D01*
X53480952Y10344381D01*
X53290476Y10392000D01*
X53195238Y10439619D01*
X53100000Y10534857D01*
X53052381Y10677715D01*
X53052381Y10772953D01*
X53100000Y10915810D01*
X53147619Y10963429D01*
X54052381Y11534857D02*
X54004762Y11439619D01*
X53957143Y11392000D01*
X53861905Y11344381D01*
X53576190Y11344381D01*
X53480952Y11392000D01*
X53433333Y11439619D01*
X53385714Y11534857D01*
X53385714Y11677715D01*
X53433333Y11772953D01*
X53480952Y11820572D01*
X53576190Y11868191D01*
X53861905Y11868191D01*
X53957143Y11820572D01*
X54004762Y11772953D01*
X54052381Y11677715D01*
X54052381Y11534857D01*
X53385714Y12296762D02*
X54385714Y12296762D01*
X53433333Y12296762D02*
X53385714Y12392000D01*
X53385714Y12582477D01*
X53433333Y12677715D01*
X53480952Y12725334D01*
X53576190Y12772953D01*
X53861905Y12772953D01*
X53957143Y12725334D01*
X54004762Y12677715D01*
X54052381Y12582477D01*
X54052381Y12392000D01*
X54004762Y12296762D01*
X53385714Y13201524D02*
X54385714Y13201524D01*
X53433333Y13201524D02*
X53385714Y13296762D01*
X53385714Y13487239D01*
X53433333Y13582477D01*
X53480952Y13630096D01*
X53576190Y13677715D01*
X53861905Y13677715D01*
X53957143Y13630096D01*
X54004762Y13582477D01*
X54052381Y13487239D01*
X54052381Y13296762D01*
X54004762Y13201524D01*
X54004762Y14487239D02*
X54052381Y14392001D01*
X54052381Y14201524D01*
X54004762Y14106286D01*
X53909524Y14058667D01*
X53528571Y14058667D01*
X53433333Y14106286D01*
X53385714Y14201524D01*
X53385714Y14392001D01*
X53433333Y14487239D01*
X53528571Y14534858D01*
X53623810Y14534858D01*
X53719048Y14058667D01*
X54052381Y14963429D02*
X53385714Y14963429D01*
X53576190Y14963429D02*
X53480952Y15011048D01*
X53433333Y15058667D01*
X53385714Y15153905D01*
X53385714Y15249144D01*
M02*
